  0
SECTION
  2
HEADER
  9
$ACADVER
  1
AC1012
  9
$DWGCODEPAGE
  3
ansi_1252
  9
$INSBASE
 10
0.0
 20
0.0
 30
0.0
  9
$EXTMIN
 10
1.000000000000000E+20
 20
1.000000000000000E+20
 30
1.000000000000000E+20
  9
$EXTMAX
 10
-1.000000000000000E+20
 20
-1.000000000000000E+20
 30
-1.000000000000000E+20
  9
$LIMMIN
 10
0.0
 20
0.0
  9
$LIMMAX
 10
12.0
 20
9.0
  9
$ORTHOMODE
 70
     0
  9
$REGENMODE
 70
     1
  9
$FILLMODE
 70
     1
  9
$QTEXTMODE
 70
     0
  9
$MIRRTEXT
 70
     1
  9
$DRAGMODE
 70
     2
  9
$LTSCALE
 40
1.0
  9
$OSMODE
 70
    37
  9
$ATTMODE
 70
     1
  9
$TEXTSIZE
 40
0.2
  9
$TRACEWID
 40
0.05
  9
$TEXTSTYLE
  7
STANDARD
  9
$CLAYER
  8
0
  9
$CELTYPE
  6
BYLAYER
  9
$CECOLOR
 62
   256
  9
$CELTSCALE
 40
1.0
  9
$DELOBJ
 70
     1
  9
$DISPSILH
 70
     0
  9
$DIMSCALE
 40
1.0
  9
$DIMASZ
 40
0.18
  9
$DIMEXO
 40
0.0625
  9
$DIMDLI
 40
0.38
  9
$DIMRND
 40
0.0
  9
$DIMDLE
 40
0.0
  9
$DIMEXE
 40
0.18
  9
$DIMTP
 40
0.0
  9
$DIMTM
 40
0.0
  9
$DIMTXT
 40
0.18
  9
$DIMCEN
 40
0.09
  9
$DIMTSZ
 40
0.0
  9
$DIMTOL
 70
     0
  9
$DIMLIM
 70
     0
  9
$DIMTIH
 70
     1
  9
$DIMTOH
 70
     1
  9
$DIMSE1
 70
     0
  9
$DIMSE2
 70
     0
  9
$DIMTAD
 70
     0
  9
$DIMZIN
 70
     0
  9
$DIMBLK
  1

  9
$DIMASO
 70
     1
  9
$DIMSHO
 70
     1
  9
$DIMPOST
  1

  9
$DIMAPOST
  1

  9
$DIMALT
 70
     0
  9
$DIMALTD
 70
     2
  9
$DIMALTF
 40
25.4
  9
$DIMLFAC
 40
1.0
  9
$DIMTOFL
 70
     0
  9
$DIMTVP
 40
0.0
  9
$DIMTIX
 70
     0
  9
$DIMSOXD
 70
     0
  9
$DIMSAH
 70
     0
  9
$DIMBLK1
  1

  9
$DIMBLK2
  1

  9
$DIMSTYLE
  2
STANDARD
  9
$DIMCLRD
 70
     0
  9
$DIMCLRE
 70
     0
  9
$DIMCLRT
 70
     0
  9
$DIMTFAC
 40
1.0
  9
$DIMGAP
 40
0.09
  9
$DIMJUST
 70
     0
  9
$DIMSD1
 70
     0
  9
$DIMSD2
 70
     0
  9
$DIMTOLJ
 70
     1
  9
$DIMTZIN
 70
     0
  9
$DIMALTZ
 70
     0
  9
$DIMALTTZ
 70
     0
  9
$DIMFIT
 70
     3
  9
$DIMUPT
 70
     0
  9
$DIMUNIT
 70
     2
  9
$DIMDEC
 70
     4
  9
$DIMTDEC
 70
     4
  9
$DIMALTU
 70
     2
  9
$DIMALTTD
 70
     2
  9
$DIMTXSTY
  7
STANDARD
  9
$DIMAUNIT
 70
     0
  9
$LUNITS
 70
     2
  9
$LUPREC
 70
     4
  9
$SKETCHINC
 40
0.1
  9
$FILLETRAD
 40
0.5
  9
$AUNITS
 70
     0
  9
$AUPREC
 70
     0
  9
$MENU
  1
.
  9
$ELEVATION
 40
0.0
  9
$PELEVATION
 40
0.0
  9
$THICKNESS
 40
0.0
  9
$LIMCHECK
 70
     0
  9
$CHAMFERA
 40
0.5
  9
$CHAMFERB
 40
0.5
  9
$CHAMFERC
 40
1.0
  9
$CHAMFERD
 40
0.0
  9
$SKPOLY
 70
     0
  9
$TDCREATE
 40
2458275.935385231
  9
$TDUPDATE
 40
2458275.935385266
  9
$TDINDWG
 40
0.0000000116
  9
$TDUSRTIMER
 40
0.0000000116
  9
$USRTIMER
 70
     1
  9
$ANGBASE
 50
0.0
  9
$ANGDIR
 70
     0
  9
$PDMODE
 70
     0
  9
$PDSIZE
 40
0.0
  9
$PLINEWID
 40
0.0
  9
$COORDS
 70
     1
  9
$SPLFRAME
 70
     0
  9
$SPLINETYPE
 70
     6
  9
$SPLINESEGS
 70
     8
  9
$ATTDIA
 70
     0
  9
$ATTREQ
 70
     1
  9
$HANDLING
 70
     1
  9
$HANDSEED
  5
C7
  9
$SURFTAB1
 70
     6
  9
$SURFTAB2
 70
     6
  9
$SURFTYPE
 70
     6
  9
$SURFU
 70
     6
  9
$SURFV
 70
     6
  9
$UCSNAME
  2

  9
$UCSORG
 10
0.0
 20
0.0
 30
0.0
  9
$UCSXDIR
 10
1.0
 20
0.0
 30
0.0
  9
$UCSYDIR
 10
0.0
 20
1.0
 30
0.0
  9
$PUCSNAME
  2

  9
$PUCSORG
 10
0.0
 20
0.0
 30
0.0
  9
$PUCSXDIR
 10
1.0
 20
0.0
 30
0.0
  9
$PUCSYDIR
 10
0.0
 20
1.0
 30
0.0
  9
$USERI1
 70
     0
  9
$USERI2
 70
     0
  9
$USERI3
 70
     0
  9
$USERI4
 70
     0
  9
$USERI5
 70
     0
  9
$USERR1
 40
0.0
  9
$USERR2
 40
0.0
  9
$USERR3
 40
0.0
  9
$USERR4
 40
0.0
  9
$USERR5
 40
0.0
  9
$WORLDVIEW
 70
     1
  9
$SHADEDGE
 70
     3
  9
$SHADEDIF
 70
    70
  9
$TILEMODE
 70
     1
  9
$MAXACTVP
 70
    64
  9
$PINSBASE
 10
0.0
 20
0.0
 30
0.0
  9
$PLIMCHECK
 70
     0
  9
$PEXTMIN
 10
1.000000000000000E+20
 20
1.000000000000000E+20
 30
1.000000000000000E+20
  9
$PEXTMAX
 10
-1.000000000000000E+20
 20
-1.000000000000000E+20
 30
-1.000000000000000E+20
  9
$PLIMMIN
 10
0.0
 20
0.0
  9
$PLIMMAX
 10
12.0
 20
9.0
  9
$UNITMODE
 70
     0
  9
$VISRETAIN
 70
     1
  9
$PLINEGEN
 70
     0
  9
$PSLTSCALE
 70
     1
  9
$TREEDEPTH
 70
  3020
  9
$PICKSTYLE
 70
     1
  9
$CMLSTYLE
  2
STANDARD
  9
$CMLJUST
 70
     0
  9
$CMLSCALE
 40
1.0
  9
$SAVEIMAGES
 70
     1
  0
ENDSEC
  0
SECTION
  2
CLASSES
  0
CLASS
  1
ACDBDICTIONARYWDFLT
  2
AcDbDictionaryWithDefault
  3
ObjectDBX Classes
 90
    32768
280
     0
281
     0
  0
CLASS
  1
VISUALSTYLE
  2
AcDbVisualStyle
  3
ObjectDBX Classes
 90
     4095
280
     0
281
     0
  0
CLASS
  1
MATERIAL
  2
AcDbMaterial
  3
ObjectDBX Classes
 90
     1153
280
     0
281
     0
  0
CLASS
  1
SUN
  2
AcDbSun
  3
SCENEOE
 90
     1024
280
     0
281
     0
  0
CLASS
  1
DICTIONARYVAR
  2
AcDbDictionaryVar
  3
ObjectDBX Classes
 90
        0
280
     0
281
     0
  0
CLASS
  1
XRECORD
  2
AcDbXrecord
  3
AutoCAD 2000
 90
    32768
280
     0
281
     0
  0
CLASS
  1
LWPOLYLINE
  2
AcDbPolyline
  3
AutoCAD 2000
 90
    32768
280
     0
281
     1
  0
CLASS
  1
HATCH
  2
AcDbHatch
  3
AutoCAD 2000
 90
    32768
280
     0
281
     1
  0
CLASS
  1
ACDBPLACEHOLDER
  2
AcDbPlaceHolder
  3
ObjectDBX Classes
 90
        0
280
     0
281
     0
  0
CLASS
  1
LAYOUT
  2
AcDbLayout
  3
ObjectDBX Classes
 90
        0
280
     0
281
     0
  0
ENDSEC
  0
SECTION
  2
TABLES
  0
TABLE
  2
VPORT
  5
8
330
0
100
AcDbSymbolTable
 70
     1
  0
VPORT
  5
29
330
8
100
AcDbSymbolTableRecord
100
AcDbViewportTableRecord
  2
*ACTIVE
 70
     0
 10
0.0
 20
0.0
 11
1.0
 21
1.0
 12
0.0
 22
0.0
 13
0.0
 23
0.0
 14
0.5
 24
0.5
 15
0.5
 25
0.5
 16
0.0
 26
0.0
 36
1.0
 17
104.9999970067632
 27
148.5000011496697
 37
0.0
 40
297.0000022993394
 41
0.7070706814401716
 42
50.0
 43
0.0
 44
0.0
 50
0.0
 51
0.0
 71
     0
 72
   100
 73
     1
 74
     3
 75
     0
 76
     0
 77
     0
 78
     0
  0
ENDTAB
  0
TABLE
  2
LTYPE
  5
5
330
0
100
AcDbSymbolTable
 70
     1
  0
LTYPE
  5
14
330
5
100
AcDbSymbolTableRecord
100
AcDbLinetypeTableRecord
  2
BYBLOCK
 70
     0
  3

 72
    65
 73
     0
 40
0.0
  0
LTYPE
  5
15
330
5
100
AcDbSymbolTableRecord
100
AcDbLinetypeTableRecord
  2
BYLAYER
 70
     0
  3

 72
    65
 73
     0
 40
0.0
  0
LTYPE
  5
16
330
5
100
AcDbSymbolTableRecord
100
AcDbLinetypeTableRecord
  2
CONTINUOUS
 70
     0
  3
Solid line
 72
    65
 73
     0
 40
0.0
  0
ENDTAB
  0
TABLE
  2
LAYER
  5
2
330
0
100
AcDbSymbolTable
 70
     2
  0
LAYER
  5
10
330
2
100
AcDbSymbolTableRecord
100
AcDbLayerTableRecord
  2
0
 70
     0
 62
     7
  6
CONTINUOUS
  0
LAYER
  5
40
330
2
100
AcDbSymbolTableRecord
100
AcDbLayerTableRecord
  2
SVG8
 70
     0
 62
     7
  6
CONTINUOUS
  0
ENDTAB
  0
TABLE
  2
STYLE
  5
3
330
0
100
AcDbSymbolTable
 70
     1
  0
STYLE
  5
11
330
3
100
AcDbSymbolTableRecord
100
AcDbTextStyleTableRecord
  2
STANDARD
 70
     0
 40
0.0
 41
1.0
 50
0.0
 71
     0
 42
0.2
  3
txt
  4

  0
ENDTAB
  0
TABLE
  2
VIEW
  5
6
330
0
100
AcDbSymbolTable
 70
     0
  0
ENDTAB
  0
TABLE
  2
UCS
  5
7
330
0
100
AcDbSymbolTable
 70
     0
  0
ENDTAB
  0
TABLE
  2
APPID
  5
9
330
0
100
AcDbSymbolTable
 70
     1
  0
APPID
  5
12
330
9
100
AcDbSymbolTableRecord
100
AcDbRegAppTableRecord
  2
ACAD
 70
     0
  0
ENDTAB
  0
TABLE
  2
DIMSTYLE
  5
A
330
0
100
AcDbSymbolTable
 70
     1
  0
DIMSTYLE
105
27
330
A
100
AcDbSymbolTableRecord
100
AcDbDimStyleTableRecord
  2
STANDARD
 70
     0
  3

  4

  5

  6

  7

 40
1.0
 41
0.18
 42
0.0625
 43
0.38
 44
0.18
 45
0.0
 46
0.0
 47
0.0
 48
0.0
140
0.18
141
0.09
142
0.0
143
25.4
144
1.0
145
0.0
146
1.0
147
0.09
 71
     0
 72
     0
 73
     1
 74
     1
 75
     0
 76
     0
 77
     0
 78
     0
170
     0
171
     2
172
     0
173
     0
174
     0
175
     0
176
     0
177
     0
178
     0
270
     2
271
     4
272
     4
273
     2
274
     2
340
11
275
     0
280
     0
281
     0
282
     0
283
     1
284
     0
285
     0
286
     0
287
     3
288
     0
  0
ENDTAB
  0
TABLE
  2
BLOCK_RECORD
  5
1
330
0
100
AcDbSymbolTable
 70
     5
  0
BLOCK_RECORD
  5
1F
330
1
100
AcDbSymbolTableRecord
100
AcDbBlockTableRecord
  2
*MODEL_SPACE
  0
BLOCK_RECORD
  5
1B
330
1
100
AcDbSymbolTableRecord
100
AcDbBlockTableRecord
  2
*PAPER_SPACE
  0
BLOCK_RECORD
  5
41
330
1
100
AcDbSymbolTableRecord
100
AcDbBlockTableRecord
  2
BLOCK_2
  0
BLOCK_RECORD
  5
45
330
1
100
AcDbSymbolTableRecord
100
AcDbBlockTableRecord
  2
BLOCK_3
  0
BLOCK_RECORD
  5
7B
330
1
100
AcDbSymbolTableRecord
100
AcDbBlockTableRecord
  2
*U3
  0
BLOCK_RECORD
  5
7E
330
1
100
AcDbSymbolTableRecord
100
AcDbBlockTableRecord
  2
*U4
  0
ENDTAB
  0
ENDSEC
  0
SECTION
  2
BLOCKS
  0
BLOCK
  5
20
330
1F
100
AcDbEntity
  8
0
100
AcDbBlockBegin
  2
*MODEL_SPACE
 70
     0
 10
0.0
 20
0.0
 30
0.0
  3
*MODEL_SPACE
  1

  0
ENDBLK
  5
21
330
1F
100
AcDbEntity
  8
0
100
AcDbBlockEnd
  0
BLOCK
  5
1C
330
1B
100
AcDbEntity
 67
     1
  8
0
100
AcDbBlockBegin
  2
*PAPER_SPACE
 70
     0
 10
0.0
 20
0.0
 30
0.0
  3
*PAPER_SPACE
  1

  0
ENDBLK
  5
1D
330
1B
100
AcDbEntity
 67
     1
  8
0
100
AcDbBlockEnd
  0
BLOCK
  5
43
330
41
100
AcDbEntity
  8
0
100
AcDbBlockBegin
  2
BLOCK_2
 70
     0
 10
0.0
 20
0.0
 30
0.0
  3
BLOCK_2
  1

  0
ENDBLK
  5
44
330
41
100
AcDbEntity
  8
0
100
AcDbBlockEnd
  0
BLOCK
  5
47
330
45
100
AcDbEntity
  8
0
100
AcDbBlockBegin
  2
BLOCK_3
 70
     0
 10
0.0
 20
0.0
 30
0.0
  3
BLOCK_3
  1

  0
POLYLINE
  5
49
330
45
100
AcDbEntity
  8
SVG8
 62
     7
100
AcDb2dPolyline
 66
     1
 10
0.0
 20
0.0
 30
0.0
  0
VERTEX
  5
4A
330
49
100
AcDbEntity
  8
SVG8
 62
     7
100
AcDbVertex
100
AcDb2dVertex
 10
58.35007909815615
 20
233.9021862632822
 30
0.0
  0
VERTEX
  5
4B
330
49
100
AcDbEntity
  8
SVG8
 62
     7
100
AcDbVertex
100
AcDb2dVertex
 10
106.6576325190324
 20
233.9021862632822
 30
0.0
  0
VERTEX
  5
4C
330
49
100
AcDbEntity
  8
SVG8
 62
     7
100
AcDbVertex
100
AcDb2dVertex
 10
106.6576325190324
 20
210.1765253733635
 30
0.0
  0
VERTEX
  5
4D
330
49
100
AcDbEntity
  8
SVG8
 62
     7
100
AcDbVertex
100
AcDb2dVertex
 10
58.35007909815615
 20
210.1765253733635
 30
0.0
  0
VERTEX
  5
4E
330
49
100
AcDbEntity
  8
SVG8
 62
     7
100
AcDbVertex
100
AcDb2dVertex
 10
58.35007909815615
 20
233.9021862632822
 30
0.0
  0
SEQEND
  5
4F
330
49
100
AcDbEntity
  8
SVG8
 62
     7
  0
SPLINE
  5
50
330
45
100
AcDbEntity
  8
SVG8
100
AcDbSpline
210
0.0
220
0.0
230
1.0
 70
    11
 71
     3
 72
    17
 73
    13
 74
     0
 42
0.0000000001
 43
0.0000000001
 12
1.0
 22
0.0
 32
0.0
 13
1.0
 23
0.0
 33
0.0
 40
0.0
 40
0.0
 40
0.0
 40
0.0
 40
1.0
 40
1.0
 40
1.0
 40
2.0
 40
2.0
 40
2.0
 40
3.0
 40
3.0
 40
3.0
 40
4.0
 40
4.0
 40
4.0
 40
4.0
 10
108.3250213407684
 20
211.9901620505997
 30
0.0
 10
108.7638564599982
 20
211.9901620505997
 30
0.0
 10
109.1195998480865
 20
211.6344186625115
 30
0.0
 10
109.1195998480865
 20
211.1955835432817
 30
0.0
 10
109.1195998480865
 20
210.7567484240519
 30
0.0
 10
108.7638564599982
 20
210.4010050359637
 30
0.0
 10
108.3250213407684
 20
210.4010050359637
 30
0.0
 10
107.8861862215386
 20
210.4010050359637
 30
0.0
 10
107.5304428334504
 20
210.7567484240519
 30
0.0
 10
107.5304428334504
 20
211.1955835432817
 30
0.0
 10
107.5304428334504
 20
211.6344186625115
 30
0.0
 10
107.8861862215386
 20
211.9901620505997
 30
0.0
 10
108.3250213407684
 20
211.9901620505997
 30
0.0
  0
INSERT
  5
51
330
45
100
AcDbEntity
  8
SVG8
 62
     7
100
AcDbBlockReference
  2
*U4
 10
0.0
 20
0.0
 30
0.0
1001
ACAD
1002
{
1000
R14_HATCH_DATA
1000
51
1011
1.0
1021
0.0
1031
0.0
1011
0.0
1021
1.0
1031
0.0
1011
0.0
1021
0.0
1031
1.0
1040
0.0
1010
0.0
1020
0.0
1030
1.0
1000
SOLID
1070
     1
1070
     1
1071
        1
1071
        1
1071
        1
1070
     4
1070
     3
1070
     0
1070
     1
1071
       17
1071
       13
1040
0.0
1040
0.0
1040
0.0
1040
0.0
1040
1.0
1040
1.0
1040
1.0
1040
2.0
1040
2.0
1040
2.0
1040
3.0
1040
3.0
1040
3.0
1040
4.0
1040
4.0
1040
4.0
1040
4.0
1040
108.3250213407684
1040
211.9901620505997
1040
108.7638564599982
1040
211.9901620505997
1040
109.1195998480865
1040
211.6344186625115
1040
109.1195998480865
1040
211.1955835432817
1040
109.1195998480865
1040
210.7567484240519
1040
108.7638564599982
1040
210.4010050359637
1040
108.3250213407684
1040
210.4010050359637
1040
107.8861862215386
1040
210.4010050359637
1040
107.5304428334504
1040
210.7567484240519
1040
107.5304428334504
1040
211.1955835432817
1040
107.5304428334504
1040
211.6344186625115
1040
107.8861862215386
1040
211.9901620505997
1040
108.3250213407684
1040
211.9901620505997
1071
        0
1070
     2
1070
     1
1071
        0
1002
}
  0
SPLINE
  5
52
330
45
100
AcDbEntity
  8
SVG8
 62
     7
100
AcDbSpline
210
0.0
220
0.0
230
1.0
 70
    11
 71
     3
 72
    35
 73
    31
 74
     0
 42
0.0000000001
 43
0.0000000001
 12
1.0
 22
0.0
 32
0.0
 13
1.0
 23
0.0
 33
0.0
 40
0.0
 40
0.0
 40
0.0
 40
0.0
 40
1.0
 40
1.0
 40
1.0
 40
2.0
 40
2.0
 40
2.0
 40
3.0
 40
3.0
 40
3.0
 40
4.0
 40
4.0
 40
4.0
 40
5.0
 40
5.0
 40
5.0
 40
6.0
 40
6.0
 40
6.0
 40
7.0
 40
7.0
 40
7.0
 40
8.0
 40
8.0
 40
8.0
 40
9.0
 40
9.0
 40
9.0
 40
10.0
 40
10.0
 40
10.0
 40
10.0
 10
57.87191826703863
 20
210.103138231517
 30
0.0
 10
57.87191826703863
 20
210.103138231517
 30
0.0
 10
58.2120328413133
 20
209.7351420365044
 30
0.0
 10
58.22318320079025
 20
209.7351420365044
 30
0.0
 10
58.22318320079025
 20
209.7351420365044
 30
0.0
 10
110.1778502154956
 20
209.7351420365044
 30
0.0
 10
110.1778502154956
 20
209.7351420365044
 30
0.0
 10
110.1778502154956
 20
209.7351420365044
 30
0.0
 10
110.1778502154956
 20
213.3563347638792
 30
0.0
 10
110.1778502154956
 20
213.3563347638792
 30
0.0
 10
110.1778502154956
 20
213.3563347638792
 30
0.0
 10
108.6047378166516
 20
213.3563347638792
 30
0.0
 10
108.6047378166516
 20
213.3563347638792
 30
0.0
 10
108.6047378166516
 20
213.3563347638792
 30
0.0
 10
107.2365356845416
 20
214.7245521547774
 30
0.0
 10
107.2365356845416
 20
214.7245521547774
 30
0.0
 10
107.2365356845416
 20
214.7245521547774
 30
0.0
 10
107.2365356845416
 20
234.1936787089585
 30
0.0
 10
107.2365356845416
 20
234.1936787089585
 30
0.0
 10
107.2365356845416
 20
234.1936787089585
 30
0.0
 10
106.882829344678
 20
234.547385048822
 30
0.0
 10
106.882829344678
 20
234.547385048822
 30
0.0
 10
106.882829344678
 20
234.547385048822
 30
0.0
 10
58.19241385438551
 20
234.547385048822
 30
0.0
 10
58.19241385438551
 20
234.547385048822
 30
0.0
 10
58.19241385438551
 20
234.547385048822
 30
0.0
 10
57.87191826703863
 20
233.9922665194192
 30
0.0
 10
57.87191826703863
 20
233.9922665194192
 30
0.0
 10
57.87191826703863
 20
233.9922665194192
 30
0.0
 10
57.87191826703863
 20
210.103138231517
 30
0.0
 10
57.87191826703863
 20
210.103138231517
 30
0.0
  0
POLYLINE
  5
53
330
45
100
AcDbEntity
  8
SVG8
 62
     7
100
AcDb2dPolyline
 66
     1
 10
0.0
 20
0.0
 30
0.0
  0
VERTEX
  5
54
330
53
100
AcDbEntity
  8
SVG8
 62
     7
100
AcDbVertex
100
AcDb2dVertex
 10
57.3647542942505
 20
208.7927974242603
 30
0.0
  0
VERTEX
  5
55
330
53
100
AcDbEntity
  8
SVG8
 62
     7
100
AcDbVertex
100
AcDb2dVertex
 10
110.6438841246914
 20
208.7927974242603
 30
0.0
  0
VERTEX
  5
56
330
53
100
AcDbEntity
  8
SVG8
 62
     7
100
AcDbVertex
100
AcDb2dVertex
 10
111.0581907418901
 20
209.2071116708532
 30
0.0
  0
VERTEX
  5
57
330
53
100
AcDbEntity
  8
SVG8
 62
     7
100
AcDbVertex
100
AcDb2dVertex
 10
111.0581907418901
 20
213.9178123932642
 30
0.0
  0
VERTEX
  5
58
330
53
100
AcDbEntity
  8
SVG8
 62
     7
100
AcDbVertex
100
AcDb2dVertex
 10
110.7502912842021
 20
214.2257118509522
 30
0.0
  0
VERTEX
  5
59
330
53
100
AcDbEntity
  8
SVG8
 62
     7
100
AcDbVertex
100
AcDb2dVertex
 10
109.5002532079107
 20
214.2257118509522
 30
0.0
  0
VERTEX
  5
5A
330
53
100
AcDbEntity
  8
SVG8
 62
     7
100
AcDbVertex
100
AcDb2dVertex
 10
108.1743026603257
 20
215.5516547691431
 30
0.0
  0
VERTEX
  5
5B
330
53
100
AcDbEntity
  8
SVG8
 62
     7
100
AcDbVertex
100
AcDb2dVertex
 10
108.1743026603257
 20
234.979738997764
 30
0.0
  0
VERTEX
  5
5C
330
53
100
AcDbEntity
  8
SVG8
 62
     7
100
AcDbVertex
100
AcDb2dVertex
 10
107.6652847447713
 20
235.4887645427125
 30
0.0
  0
VERTEX
  5
5D
330
53
100
AcDbEntity
  8
SVG8
 62
     7
100
AcDbVertex
100
AcDb2dVertex
 10
57.36759242885565
 20
235.4887645427125
 30
0.0
  0
VERTEX
  5
5E
330
53
100
AcDbEntity
  8
SVG8
 62
     7
100
AcDbVertex
100
AcDb2dVertex
 10
56.95558607397801
 20
235.0767581878349
 30
0.0
  0
VERTEX
  5
5F
330
53
100
AcDbEntity
  8
SVG8
 62
     7
100
AcDbVertex
100
AcDb2dVertex
 10
56.95558607397801
 20
209.16454728117
 30
0.0
  0
VERTEX
  5
60
330
53
100
AcDbEntity
  8
SVG8
 62
     7
100
AcDbVertex
100
AcDb2dVertex
 10
57.3647542942505
 20
208.7927974242603
 30
0.0
  0
SEQEND
  5
61
330
53
100
AcDbEntity
  8
SVG8
 62
     7
  0
POLYLINE
  5
62
330
45
100
AcDbEntity
  8
SVG8
 62
     7
100
AcDb2dPolyline
 66
     1
 10
0.0
 20
0.0
 30
0.0
  0
VERTEX
  5
63
330
62
100
AcDbEntity
  8
SVG8
 62
     7
100
AcDbVertex
100
AcDb2dVertex
 10
55.68272466523688
 20
207.3322185883892
 30
0.0
  0
VERTEX
  5
64
330
62
100
AcDbEntity
  8
SVG8
 62
     7
100
AcDbVertex
100
AcDb2dVertex
 10
114.696503829625
 20
207.3315243135261
 30
0.0
  0
VERTEX
  5
65
330
62
100
AcDbEntity
  8
SVG8
 62
     7
100
AcDbVertex
100
AcDb2dVertex
 10
114.696503829625
 20
214.5707435697243
 30
0.0
  0
VERTEX
  5
66
330
62
100
AcDbEntity
  8
SVG8
 62
     7
100
AcDbVertex
100
AcDb2dVertex
 10
113.8133327980194
 20
214.5707435697243
 30
0.0
  0
VERTEX
  5
67
330
62
100
AcDbEntity
  8
SVG8
 62
     7
100
AcDbVertex
100
AcDb2dVertex
 10
113.8133327980194
 20
228.8949538803919
 30
0.0
  0
VERTEX
  5
68
330
62
100
AcDbEntity
  8
SVG8
 62
     7
100
AcDbVertex
100
AcDb2dVertex
 10
114.7300121285116
 20
228.8949538803919
 30
0.0
  0
VERTEX
  5
69
330
62
100
AcDbEntity
  8
SVG8
 62
     7
100
AcDbVertex
100
AcDb2dVertex
 10
114.7300121285116
 20
236.579664902172
 30
0.0
  0
VERTEX
  5
6A
330
62
100
AcDbEntity
  8
SVG8
 62
     7
100
AcDbVertex
100
AcDb2dVertex
 10
55.68272466523688
 20
236.579664902172
 30
0.0
  0
VERTEX
  5
6B
330
62
100
AcDbEntity
  8
SVG8
 62
     7
100
AcDbVertex
100
AcDb2dVertex
 10
55.68272466523688
 20
207.3322185883892
 30
0.0
  0
SEQEND
  5
6C
330
62
100
AcDbEntity
  8
SVG8
 62
     7
  0
SPLINE
  5
6D
330
45
100
AcDbEntity
  8
SVG8
 62
     7
100
AcDbSpline
210
0.0
220
0.0
230
1.0
 70
     8
 71
     3
 72
    29
 73
    25
 74
     0
 42
0.0000000001
 43
0.0000000001
 12
1.0
 22
0.0
 32
0.0
 13
1.0
 23
0.0
 33
0.0
 40
0.0
 40
0.0
 40
0.0
 40
0.0
 40
1.0
 40
1.0
 40
1.0
 40
2.0
 40
2.0
 40
2.0
 40
3.0
 40
3.0
 40
3.0
 40
4.0
 40
4.0
 40
4.0
 40
5.0
 40
5.0
 40
5.0
 40
6.0
 40
6.0
 40
6.0
 40
7.0
 40
7.0
 40
7.0
 40
8.0
 40
8.0
 40
8.0
 40
8.0
 10
114.3585140416072
 20
228.9438048908133
 30
0.0
 10
114.3585140416072
 20
228.9438048908133
 30
0.0
 10
118.3853158769069
 20
228.9438048908133
 30
0.0
 10
118.3853158769069
 20
228.9438048908133
 30
0.0
 10
118.3853158769069
 20
228.9438048908133
 30
0.0
 10
119.2792062072228
 20
228.0499069311033
 30
0.0
 10
119.2792062072228
 20
228.0499069311033
 30
0.0
 10
119.2792062072228
 20
228.0499069311033
 30
0.0
 10
128.7034534160441
 20
228.0499069311033
 30
0.0
 10
128.7034534160441
 20
228.0499069311033
 30
0.0
 10
128.7034534160441
 20
228.0499069311033
 30
0.0
 10
128.754555097725
 20
215.5365867157959
 30
0.0
 10
128.7034534160441
 20
215.5365867157959
 30
0.0
 10
128.6523517343633
 20
215.5365867157959
 30
0.0
 10
119.3256844760791
 20
215.5365867157959
 30
0.0
 10
119.3256844760791
 20
215.5365867157959
 30
0.0
 10
119.3256844760791
 20
215.5365867157959
 30
0.0
 10
118.5952844319291
 20
214.8061790422518
 30
0.0
 10
118.5952844319291
 20
214.8061790422518
 30
0.0
 10
118.5952844319291
 20
214.8061790422518
 30
0.0
 10
118.5661859228322
 20
214.777080533155
 30
0.0
 10
118.5661859228322
 20
214.777080533155
 30
0.0
 10
118.5661859228322
 20
214.777080533155
 30
0.0
 10
114.3091747499634
 20
214.777080533155
 30
0.0
 10
114.3091747499634
 20
214.777080533155
 30
0.0
  0
ENDBLK
  5
48
330
45
100
AcDbEntity
  8
0
100
AcDbBlockEnd
  0
BLOCK
  5
BD
330
7B
100
AcDbEntity
  8
0
100
AcDbBlockBegin
  2
*U3
 70
     1
 10
0.0
 20
0.0
 30
0.0
  3
*U3
  1

  0
SOLID
  5
7C
330
7B
100
AcDbEntity
  8
SVG8
 62
     7
100
AcDbTrace
 10
79.63957526986651
 20
240.2921814769221
 30
0.0
 11
79.63957526986651
 21
242.2921813638355
 31
0.0
 12
81.63957515677997
 22
240.2921814769221
 32
0.0
 13
81.63957515677997
 23
240.2921814769221
 33
0.0
  0
SOLID
  5
7D
330
7B
100
AcDbEntity
  8
SVG8
 62
     7
100
AcDbTrace
 10
81.63957515677997
 20
240.2921814769221
 30
0.0
 11
79.63957526986651
 21
242.2921813638355
 31
0.0
 12
81.63957515677997
 22
242.2921813638355
 32
0.0
 13
81.63957515677997
 23
242.2921813638355
 33
0.0
  0
ENDBLK
  5
BE
330
7B
100
AcDbEntity
  8
0
100
AcDbBlockEnd
  0
BLOCK
  5
BF
330
7E
100
AcDbEntity
  8
0
100
AcDbBlockBegin
  2
*U4
 70
     1
 10
0.0
 20
0.0
 30
0.0
  3
*U4
  1

  0
SOLID
  5
7F
330
7E
100
AcDbEntity
  8
SVG8
 62
     7
100
AcDbTrace
 10
107.5345451359336
 20
211.1143422549964
 30
0.0
 11
107.5304428334504
 21
211.1955835432817
 31
0.0
 12
107.5345451359336
 22
211.276824831567
 32
0.0
 13
107.5345451359336
 23
211.276824831567
 33
0.0
  0
SOLID
  5
80
330
7E
100
AcDbEntity
  8
SVG8
 62
     7
100
AcDbTrace
 10
107.5345451359336
 20
211.1143422549964
 30
0.0
 11
107.5345451359336
 21
211.276824831567
 31
0.0
 12
107.5465857819996
 22
211.0354478212353
 32
0.0
 13
107.5465857819996
 23
211.0354478212353
 33
0.0
  0
SOLID
  5
81
330
7E
100
AcDbEntity
  8
SVG8
 62
     7
100
AcDbTrace
 10
107.5465857819996
 20
211.0354478212353
 30
0.0
 11
107.5345451359336
 21
211.276824831567
 31
0.0
 12
107.5465857819996
 22
211.3557192653282
 32
0.0
 13
107.5465857819996
 23
211.3557192653282
 33
0.0
  0
SOLID
  5
82
330
7E
100
AcDbEntity
  8
SVG8
 62
     7
100
AcDbTrace
 10
107.5465857819996
 20
211.0354478212353
 30
0.0
 11
107.5465857819996
 21
211.3557192653282
 31
0.0
 12
107.5661653795726
 22
210.959299634074
 32
0.0
 13
107.5661653795726
 23
210.959299634074
 33
0.0
  0
SOLID
  5
83
330
7E
100
AcDbEntity
  8
SVG8
 62
     7
100
AcDbTrace
 10
107.5661653795726
 20
210.959299634074
 30
0.0
 11
107.5465857819996
 21
211.3557192653282
 31
0.0
 12
107.5661653795726
 22
211.4318674524894
 32
0.0
 13
107.5661653795726
 23
211.4318674524894
 33
0.0
  0
SOLID
  5
84
330
7E
100
AcDbEntity
  8
SVG8
 62
     7
100
AcDbTrace
 10
107.5661653795726
 20
210.959299634074
 30
0.0
 11
107.5661653795726
 21
211.4318674524894
 31
0.0
 12
107.5928845365772
 22
210.8862970855882
 32
0.0
 13
107.5928845365772
 23
210.8862970855882
 33
0.0
  0
SOLID
  5
85
330
7E
100
AcDbEntity
  8
SVG8
 62
     7
100
AcDbTrace
 10
107.5928845365772
 20
210.8862970855882
 30
0.0
 11
107.5661653795726
 21
211.4318674524894
 31
0.0
 12
107.5928845365772
 22
211.5048700009752
 32
0.0
 13
107.5928845365772
 23
211.5048700009752
 33
0.0
  0
SOLID
  5
86
330
7E
100
AcDbEntity
  8
SVG8
 62
     7
100
AcDbTrace
 10
107.5928845365772
 20
210.8862970855882
 30
0.0
 11
107.5928845365772
 21
211.5048700009752
 31
0.0
 12
107.6263438609376
 22
210.8168395678535
 32
0.0
 13
107.6263438609376
 23
210.8168395678535
 33
0.0
  0
SOLID
  5
87
330
7E
100
AcDbEntity
  8
SVG8
 62
     7
100
AcDbTrace
 10
107.6263438609376
 20
210.8168395678535
 30
0.0
 11
107.5928845365772
 21
211.5048700009752
 31
0.0
 12
107.6263438609376
 22
211.57432751871
 32
0.0
 13
107.6263438609376
 23
211.57432751871
 33
0.0
  0
SOLID
  5
88
330
7E
100
AcDbEntity
  8
SVG8
 62
     7
100
AcDbTrace
 10
107.6263438609376
 20
210.8168395678535
 30
0.0
 11
107.6263438609376
 21
211.57432751871
 31
0.0
 12
107.6661439605783
 22
210.7513264729454
 32
0.0
 13
107.6661439605783
 23
210.7513264729454
 33
0.0
  0
SOLID
  5
89
330
7E
100
AcDbEntity
  8
SVG8
 62
     7
100
AcDbTrace
 10
107.6661439605783
 20
210.7513264729454
 30
0.0
 11
107.6263438609376
 21
211.57432751871
 31
0.0
 12
107.6661439605783
 22
211.6398406136181
 32
0.0
 13
107.6661439605783
 23
211.6398406136181
 33
0.0
  0
SOLID
  5
8A
330
7E
100
AcDbEntity
  8
SVG8
 62
     7
100
AcDbTrace
 10
107.6661439605783
 20
210.7513264729454
 30
0.0
 11
107.6661439605783
 21
211.6398406136181
 31
0.0
 12
107.7118854434238
 22
210.6901571929395
 32
0.0
 13
107.7118854434238
 23
210.6901571929395
 33
0.0
  0
SOLID
  5
8B
330
7E
100
AcDbEntity
  8
SVG8
 62
     7
100
AcDbTrace
 10
107.7118854434238
 20
210.6901571929395
 30
0.0
 11
107.6661439605783
 21
211.6398406136181
 31
0.0
 12
107.7118854434238
 22
211.7010098936239
 32
0.0
 13
107.7118854434238
 23
211.7010098936239
 33
0.0
  0
SOLID
  5
8C
330
7E
100
AcDbEntity
  8
SVG8
 62
     7
100
AcDbTrace
 10
107.7118854434238
 20
210.6901571929395
 30
0.0
 11
107.7118854434238
 21
211.7010098936239
 31
0.0
 12
107.7631689173982
 22
210.6337311199115
 32
0.0
 13
107.7631689173982
 23
210.6337311199115
 33
0.0
  0
SOLID
  5
8D
330
7E
100
AcDbEntity
  8
SVG8
 62
     7
100
AcDbTrace
 10
107.7631689173982
 20
210.6337311199115
 30
0.0
 11
107.7118854434238
 21
211.7010098936239
 31
0.0
 12
107.7631689173982
 22
211.7574359666519
 32
0.0
 13
107.7631689173982
 23
211.7574359666519
 33
0.0
  0
SOLID
  5
8E
330
7E
100
AcDbEntity
  8
SVG8
 62
     7
100
AcDbTrace
 10
107.7631689173982
 20
210.6337311199115
 30
0.0
 11
107.7631689173982
 21
211.7574359666519
 31
0.0
 12
107.8195949904262
 22
210.582447645937
 32
0.0
 13
107.8195949904262
 23
210.582447645937
 33
0.0
  0
SOLID
  5
8F
330
7E
100
AcDbEntity
  8
SVG8
 62
     7
100
AcDbTrace
 10
107.8195949904262
 20
210.582447645937
 30
0.0
 11
107.7631689173982
 21
211.7574359666519
 31
0.0
 12
107.8195949904262
 22
211.8087194406264
 32
0.0
 13
107.8195949904262
 23
211.8087194406264
 33
0.0
  0
SOLID
  5
90
330
7E
100
AcDbEntity
  8
SVG8
 62
     7
100
AcDbTrace
 10
107.8195949904262
 20
210.582447645937
 30
0.0
 11
107.8195949904262
 21
211.8087194406264
 31
0.0
 12
107.8807642704321
 22
210.5367061630916
 32
0.0
 13
107.8807642704321
 23
210.5367061630916
 33
0.0
  0
SOLID
  5
91
330
7E
100
AcDbEntity
  8
SVG8
 62
     7
100
AcDbTrace
 10
107.8807642704321
 20
210.5367061630916
 30
0.0
 11
107.8195949904262
 21
211.8087194406264
 31
0.0
 12
107.8807642704321
 22
211.8544609234718
 32
0.0
 13
107.8807642704321
 23
211.8544609234718
 33
0.0
  0
SOLID
  5
92
330
7E
100
AcDbEntity
  8
SVG8
 62
     7
100
AcDbTrace
 10
107.8807642704321
 20
210.5367061630916
 30
0.0
 11
107.8807642704321
 21
211.8544609234718
 31
0.0
 12
107.9462773653402
 22
210.4969060634509
 32
0.0
 13
107.9462773653402
 23
210.4969060634509
 33
0.0
  0
SOLID
  5
93
330
7E
100
AcDbEntity
  8
SVG8
 62
     7
100
AcDbTrace
 10
107.9462773653402
 20
210.4969060634509
 30
0.0
 11
107.8807642704321
 21
211.8544609234718
 31
0.0
 12
107.9462773653402
 22
211.8942610231125
 32
0.0
 13
107.9462773653402
 23
211.8942610231125
 33
0.0
  0
SOLID
  5
94
330
7E
100
AcDbEntity
  8
SVG8
 62
     7
100
AcDbTrace
 10
107.9462773653402
 20
210.4969060634509
 30
0.0
 11
107.9462773653402
 21
211.8942610231125
 31
0.0
 12
108.0157348830749
 22
210.4634467390904
 32
0.0
 13
108.0157348830749
 23
210.4634467390904
 33
0.0
  0
SOLID
  5
95
330
7E
100
AcDbEntity
  8
SVG8
 62
     7
100
AcDbTrace
 10
108.0157348830749
 20
210.4634467390904
 30
0.0
 11
107.9462773653402
 21
211.8942610231125
 31
0.0
 12
108.0157348830749
 22
211.927720347473
 32
0.0
 13
108.0157348830749
 23
211.927720347473
 33
0.0
  0
SOLID
  5
96
330
7E
100
AcDbEntity
  8
SVG8
 62
     7
100
AcDbTrace
 10
108.0157348830749
 20
210.4634467390904
 30
0.0
 11
108.0157348830749
 21
211.927720347473
 31
0.0
 12
108.0887374315607
 22
210.4367275820859
 32
0.0
 13
108.0887374315607
 23
210.4367275820859
 33
0.0
  0
SOLID
  5
97
330
7E
100
AcDbEntity
  8
SVG8
 62
     7
100
AcDbTrace
 10
108.0887374315607
 20
210.4367275820859
 30
0.0
 11
108.0157348830749
 21
211.927720347473
 31
0.0
 12
108.0887374315607
 22
211.9544395044775
 32
0.0
 13
108.0887374315607
 23
211.9544395044775
 33
0.0
  0
SOLID
  5
98
330
7E
100
AcDbEntity
  8
SVG8
 62
     7
100
AcDbTrace
 10
108.0887374315607
 20
210.4367275820859
 30
0.0
 11
108.0887374315607
 21
211.9544395044775
 31
0.0
 12
108.164885618722
 22
210.4171479845129
 32
0.0
 13
108.164885618722
 23
210.4171479845129
 33
0.0
  0
SOLID
  5
99
330
7E
100
AcDbEntity
  8
SVG8
 62
     7
100
AcDbTrace
 10
108.164885618722
 20
210.4171479845129
 30
0.0
 11
108.0887374315607
 21
211.9544395044775
 31
0.0
 12
108.164885618722
 22
211.9740191020506
 32
0.0
 13
108.164885618722
 23
211.9740191020506
 33
0.0
  0
SOLID
  5
9A
330
7E
100
AcDbEntity
  8
SVG8
 62
     7
100
AcDbTrace
 10
108.164885618722
 20
210.4171479845129
 30
0.0
 11
108.164885618722
 21
211.9740191020506
 31
0.0
 12
108.2437800524831
 22
210.4051073384469
 32
0.0
 13
108.2437800524831
 23
210.4051073384469
 33
0.0
  0
SOLID
  5
9B
330
7E
100
AcDbEntity
  8
SVG8
 62
     7
100
AcDbTrace
 10
108.2437800524831
 20
210.4051073384469
 30
0.0
 11
108.164885618722
 21
211.9740191020506
 31
0.0
 12
108.2437800524831
 22
211.9860597481165
 32
0.0
 13
108.2437800524831
 23
211.9860597481165
 33
0.0
  0
SOLID
  5
9C
330
7E
100
AcDbEntity
  8
SVG8
 62
     7
100
AcDbTrace
 10
108.2437800524831
 20
210.4051073384469
 30
0.0
 11
108.2437800524831
 21
211.9860597481165
 31
0.0
 12
108.3250213407684
 22
210.4010050359637
 32
0.0
 13
108.3250213407684
 23
210.4010050359637
 33
0.0
  0
SOLID
  5
9D
330
7E
100
AcDbEntity
  8
SVG8
 62
     7
100
AcDbTrace
 10
108.3250213407684
 20
210.4010050359637
 30
0.0
 11
108.2437800524831
 21
211.9860597481165
 31
0.0
 12
108.3250213407684
 22
211.9901620505997
 32
0.0
 13
108.3250213407684
 23
211.9901620505997
 33
0.0
  0
SOLID
  5
9E
330
7E
100
AcDbEntity
  8
SVG8
 62
     7
100
AcDbTrace
 10
108.3250213407684
 20
210.4010050359637
 30
0.0
 11
108.3250213407684
 21
211.9901620505997
 31
0.0
 12
108.4062626290538
 22
210.4051073384469
 32
0.0
 13
108.4062626290538
 23
210.4051073384469
 33
0.0
  0
SOLID
  5
9F
330
7E
100
AcDbEntity
  8
SVG8
 62
     7
100
AcDbTrace
 10
108.4062626290538
 20
210.4051073384469
 30
0.0
 11
108.3250213407684
 21
211.9901620505997
 31
0.0
 12
108.4062626290538
 22
211.9860597481165
 32
0.0
 13
108.4062626290538
 23
211.9860597481165
 33
0.0
  0
SOLID
  5
A0
330
7E
100
AcDbEntity
  8
SVG8
 62
     7
100
AcDbTrace
 10
108.4062626290538
 20
210.4051073384469
 30
0.0
 11
108.4062626290538
 21
211.9860597481165
 31
0.0
 12
108.4851570628149
 22
210.4171479845129
 32
0.0
 13
108.4851570628149
 23
210.4171479845129
 33
0.0
  0
SOLID
  5
A1
330
7E
100
AcDbEntity
  8
SVG8
 62
     7
100
AcDbTrace
 10
108.4851570628149
 20
210.4171479845129
 30
0.0
 11
108.4062626290538
 21
211.9860597481165
 31
0.0
 12
108.4851570628149
 22
211.9740191020506
 32
0.0
 13
108.4851570628149
 23
211.9740191020506
 33
0.0
  0
SOLID
  5
A2
330
7E
100
AcDbEntity
  8
SVG8
 62
     7
100
AcDbTrace
 10
108.4851570628149
 20
210.4171479845129
 30
0.0
 11
108.4851570628149
 21
211.9740191020506
 31
0.0
 12
108.5613052499761
 22
210.4367275820859
 32
0.0
 13
108.5613052499761
 23
210.4367275820859
 33
0.0
  0
SOLID
  5
A3
330
7E
100
AcDbEntity
  8
SVG8
 62
     7
100
AcDbTrace
 10
108.5613052499761
 20
210.4367275820859
 30
0.0
 11
108.4851570628149
 21
211.9740191020506
 31
0.0
 12
108.5613052499761
 22
211.9544395044775
 32
0.0
 13
108.5613052499761
 23
211.9544395044775
 33
0.0
  0
SOLID
  5
A4
330
7E
100
AcDbEntity
  8
SVG8
 62
     7
100
AcDbTrace
 10
108.5613052499761
 20
210.4367275820859
 30
0.0
 11
108.5613052499761
 21
211.9544395044775
 31
0.0
 12
108.6343077984619
 22
210.4634467390904
 32
0.0
 13
108.6343077984619
 23
210.4634467390904
 33
0.0
  0
SOLID
  5
A5
330
7E
100
AcDbEntity
  8
SVG8
 62
     7
100
AcDbTrace
 10
108.6343077984619
 20
210.4634467390904
 30
0.0
 11
108.5613052499761
 21
211.9544395044775
 31
0.0
 12
108.6343077984619
 22
211.927720347473
 32
0.0
 13
108.6343077984619
 23
211.927720347473
 33
0.0
  0
SOLID
  5
A6
330
7E
100
AcDbEntity
  8
SVG8
 62
     7
100
AcDbTrace
 10
108.6343077984619
 20
210.4634467390904
 30
0.0
 11
108.6343077984619
 21
211.927720347473
 31
0.0
 12
108.7037653161967
 22
210.4969060634509
 32
0.0
 13
108.7037653161967
 23
210.4969060634509
 33
0.0
  0
SOLID
  5
A7
330
7E
100
AcDbEntity
  8
SVG8
 62
     7
100
AcDbTrace
 10
108.7037653161967
 20
210.4969060634509
 30
0.0
 11
108.6343077984619
 21
211.927720347473
 31
0.0
 12
108.7037653161967
 22
211.8942610231125
 32
0.0
 13
108.7037653161967
 23
211.8942610231125
 33
0.0
  0
SOLID
  5
A8
330
7E
100
AcDbEntity
  8
SVG8
 62
     7
100
AcDbTrace
 10
108.7037653161967
 20
210.4969060634509
 30
0.0
 11
108.7037653161967
 21
211.8942610231125
 31
0.0
 12
108.7692784111048
 22
210.5367061630916
 32
0.0
 13
108.7692784111048
 23
210.5367061630916
 33
0.0
  0
SOLID
  5
A9
330
7E
100
AcDbEntity
  8
SVG8
 62
     7
100
AcDbTrace
 10
108.7692784111048
 20
210.5367061630916
 30
0.0
 11
108.7037653161967
 21
211.8942610231125
 31
0.0
 12
108.7692784111048
 22
211.8544609234718
 32
0.0
 13
108.7692784111048
 23
211.8544609234718
 33
0.0
  0
SOLID
  5
AA
330
7E
100
AcDbEntity
  8
SVG8
 62
     7
100
AcDbTrace
 10
108.7692784111048
 20
210.5367061630916
 30
0.0
 11
108.7692784111048
 21
211.8544609234718
 31
0.0
 12
108.8304476911106
 22
210.582447645937
 32
0.0
 13
108.8304476911106
 23
210.582447645937
 33
0.0
  0
SOLID
  5
AB
330
7E
100
AcDbEntity
  8
SVG8
 62
     7
100
AcDbTrace
 10
108.8304476911106
 20
210.582447645937
 30
0.0
 11
108.7692784111048
 21
211.8544609234718
 31
0.0
 12
108.8304476911106
 22
211.8087194406264
 32
0.0
 13
108.8304476911106
 23
211.8087194406264
 33
0.0
  0
SOLID
  5
AC
330
7E
100
AcDbEntity
  8
SVG8
 62
     7
100
AcDbTrace
 10
108.8304476911106
 20
210.582447645937
 30
0.0
 11
108.8304476911106
 21
211.8087194406264
 31
0.0
 12
108.8868737641386
 22
210.6337311199115
 32
0.0
 13
108.8868737641386
 23
210.6337311199115
 33
0.0
  0
SOLID
  5
AD
330
7E
100
AcDbEntity
  8
SVG8
 62
     7
100
AcDbTrace
 10
108.8868737641386
 20
210.6337311199115
 30
0.0
 11
108.8304476911106
 21
211.8087194406264
 31
0.0
 12
108.8868737641386
 22
211.7574359666519
 32
0.0
 13
108.8868737641386
 23
211.7574359666519
 33
0.0
  0
SOLID
  5
AE
330
7E
100
AcDbEntity
  8
SVG8
 62
     7
100
AcDbTrace
 10
108.8868737641386
 20
210.6337311199115
 30
0.0
 11
108.8868737641386
 21
211.7574359666519
 31
0.0
 12
108.9381572381131
 22
210.6901571929395
 32
0.0
 13
108.9381572381131
 23
210.6901571929395
 33
0.0
  0
SOLID
  5
AF
330
7E
100
AcDbEntity
  8
SVG8
 62
     7
100
AcDbTrace
 10
108.9381572381131
 20
210.6901571929395
 30
0.0
 11
108.8868737641386
 21
211.7574359666519
 31
0.0
 12
108.9381572381131
 22
211.7010098936239
 32
0.0
 13
108.9381572381131
 23
211.7010098936239
 33
0.0
  0
SOLID
  5
B0
330
7E
100
AcDbEntity
  8
SVG8
 62
     7
100
AcDbTrace
 10
108.9381572381131
 20
210.6901571929395
 30
0.0
 11
108.9381572381131
 21
211.7010098936239
 31
0.0
 12
108.9838987209585
 22
210.7513264729454
 32
0.0
 13
108.9838987209585
 23
210.7513264729454
 33
0.0
  0
SOLID
  5
B1
330
7E
100
AcDbEntity
  8
SVG8
 62
     7
100
AcDbTrace
 10
108.9838987209585
 20
210.7513264729454
 30
0.0
 11
108.9381572381131
 21
211.7010098936239
 31
0.0
 12
108.9838987209585
 22
211.6398406136181
 32
0.0
 13
108.9838987209585
 23
211.6398406136181
 33
0.0
  0
SOLID
  5
B2
330
7E
100
AcDbEntity
  8
SVG8
 62
     7
100
AcDbTrace
 10
108.9838987209585
 20
210.7513264729454
 30
0.0
 11
108.9838987209585
 21
211.6398406136181
 31
0.0
 12
109.0236988205993
 22
210.8168395678535
 32
0.0
 13
109.0236988205993
 23
210.8168395678535
 33
0.0
  0
SOLID
  5
B3
330
7E
100
AcDbEntity
  8
SVG8
 62
     7
100
AcDbTrace
 10
109.0236988205993
 20
210.8168395678535
 30
0.0
 11
108.9838987209585
 21
211.6398406136181
 31
0.0
 12
109.0236988205993
 22
211.57432751871
 32
0.0
 13
109.0236988205993
 23
211.57432751871
 33
0.0
  0
SOLID
  5
B4
330
7E
100
AcDbEntity
  8
SVG8
 62
     7
100
AcDbTrace
 10
109.0236988205993
 20
210.8168395678535
 30
0.0
 11
109.0236988205993
 21
211.57432751871
 31
0.0
 12
109.0571581449597
 22
210.8862970855882
 32
0.0
 13
109.0571581449597
 23
210.8862970855882
 33
0.0
  0
SOLID
  5
B5
330
7E
100
AcDbEntity
  8
SVG8
 62
     7
100
AcDbTrace
 10
109.0571581449597
 20
210.8862970855882
 30
0.0
 11
109.0236988205993
 21
211.57432751871
 31
0.0
 12
109.0571581449597
 22
211.5048700009752
 32
0.0
 13
109.0571581449597
 23
211.5048700009752
 33
0.0
  0
SOLID
  5
B6
330
7E
100
AcDbEntity
  8
SVG8
 62
     7
100
AcDbTrace
 10
109.0571581449597
 20
210.8862970855882
 30
0.0
 11
109.0571581449597
 21
211.5048700009752
 31
0.0
 12
109.0838773019643
 22
210.959299634074
 32
0.0
 13
109.0838773019643
 23
210.959299634074
 33
0.0
  0
SOLID
  5
B7
330
7E
100
AcDbEntity
  8
SVG8
 62
     7
100
AcDbTrace
 10
109.0838773019643
 20
210.959299634074
 30
0.0
 11
109.0571581449597
 21
211.5048700009752
 31
0.0
 12
109.0838773019643
 22
211.4318674524894
 32
0.0
 13
109.0838773019643
 23
211.4318674524894
 33
0.0
  0
SOLID
  5
B8
330
7E
100
AcDbEntity
  8
SVG8
 62
     7
100
AcDbTrace
 10
109.0838773019643
 20
210.959299634074
 30
0.0
 11
109.0838773019643
 21
211.4318674524894
 31
0.0
 12
109.1034568995373
 22
211.0354478212353
 32
0.0
 13
109.1034568995373
 23
211.0354478212353
 33
0.0
  0
SOLID
  5
B9
330
7E
100
AcDbEntity
  8
SVG8
 62
     7
100
AcDbTrace
 10
109.1034568995373
 20
211.0354478212353
 30
0.0
 11
109.0838773019643
 21
211.4318674524894
 31
0.0
 12
109.1034568995373
 22
211.3557192653282
 32
0.0
 13
109.1034568995373
 23
211.3557192653282
 33
0.0
  0
SOLID
  5
BA
330
7E
100
AcDbEntity
  8
SVG8
 62
     7
100
AcDbTrace
 10
109.1034568995373
 20
211.0354478212353
 30
0.0
 11
109.1034568995373
 21
211.3557192653282
 31
0.0
 12
109.1154975456032
 22
211.1143422549964
 32
0.0
 13
109.1154975456032
 23
211.1143422549964
 33
0.0
  0
SOLID
  5
BB
330
7E
100
AcDbEntity
  8
SVG8
 62
     7
100
AcDbTrace
 10
109.1154975456032
 20
211.1143422549964
 30
0.0
 11
109.1034568995373
 21
211.3557192653282
 31
0.0
 12
109.1154975456032
 22
211.276824831567
 32
0.0
 13
109.1154975456032
 23
211.276824831567
 33
0.0
  0
SOLID
  5
BC
330
7E
100
AcDbEntity
  8
SVG8
 62
     7
100
AcDbTrace
 10
109.1154975456032
 20
211.1143422549964
 30
0.0
 11
109.1154975456032
 21
211.276824831567
 31
0.0
 12
109.1195998480865
 22
211.1955835432817
 32
0.0
 13
109.1195998480865
 23
211.1955835432817
 33
0.0
  0
ENDBLK
  5
C0
330
7E
100
AcDbEntity
  8
0
100
AcDbBlockEnd
  0
ENDSEC
  0
SECTION
  2
ENTITIES
  0
INSERT
  5
42
330
1F
100
AcDbEntity
  8
SVG8
100
AcDbBlockReference
  2
BLOCK_2
 10
0.0
 20
0.0
 30
0.0
  0
INSERT
  5
46
330
1F
100
AcDbEntity
  8
SVG8
100
AcDbBlockReference
  2
BLOCK_3
 10
0.0
 20
0.0
 30
0.0
  0
POLYLINE
  5
6E
330
1F
100
AcDbEntity
  8
SVG8
100
AcDb2dPolyline
 66
     1
 10
0.0
 20
0.0
 30
0.0
  0
VERTEX
  5
6F
330
6E
100
AcDbEntity
  8
SVG8
100
AcDbVertex
100
AcDb2dVertex
 10
79.63957526986651
 20
242.2921813638355
 30
0.0
  0
VERTEX
  5
70
330
6E
100
AcDbEntity
  8
SVG8
100
AcDbVertex
100
AcDb2dVertex
 10
81.63957515677997
 20
242.2921813638355
 30
0.0
  0
VERTEX
  5
71
330
6E
100
AcDbEntity
  8
SVG8
100
AcDbVertex
100
AcDb2dVertex
 10
81.63957515677997
 20
240.2921814769221
 30
0.0
  0
VERTEX
  5
72
330
6E
100
AcDbEntity
  8
SVG8
100
AcDbVertex
100
AcDb2dVertex
 10
79.63957526986651
 20
240.2921814769221
 30
0.0
  0
VERTEX
  5
73
330
6E
100
AcDbEntity
  8
SVG8
100
AcDbVertex
100
AcDb2dVertex
 10
79.63957526986651
 20
242.2921813638355
 30
0.0
  0
SEQEND
  5
75
330
6E
100
AcDbEntity
  8
SVG8
  0
INSERT
  5
74
330
1F
100
AcDbEntity
  8
SVG8
 62
     7
100
AcDbBlockReference
  2
*U3
 10
0.0
 20
0.0
 30
0.0
1001
ACAD
1002
{
1000
R14_HATCH_DATA
1000
74
1011
1.0
1021
0.0
1031
0.0
1011
0.0
1021
1.0
1031
0.0
1011
0.0
1021
0.0
1031
1.0
1040
0.0
1010
0.0
1020
0.0
1030
1.0
1000
SOLID
1070
     1
1070
     1
1071
        1
1071
        1
1071
        4
1070
     1
1040
79.63957526986651
1040
242.2921813638355
1040
81.63957515677997
1040
242.2921813638355
1070
     1
1040
81.63957515677997
1040
242.2921813638355
1040
81.63957515677997
1040
240.2921814769221
1070
     1
1040
81.63957515677997
1040
240.2921814769221
1040
79.63957526986651
1040
240.2921814769221
1070
     1
1040
79.63957526986651
1040
240.2921814769221
1040
79.63957526986651
1040
242.2921813638355
1071
        0
1070
     2
1070
     1
1071
        0
1002
}
  0
ENDSEC
  0
SECTION
  2
OBJECTS
  0
DICTIONARY
  5
C
330
0
100
AcDbDictionary
  3
ACAD_GROUP
350
D
  3
ACAD_LAYOUT
350
1A
  3
ACAD_MATERIAL
350
3B
  3
ACAD_MLEADERSTYLE
350
78
  3
ACAD_MLINESTYLE
350
17
  3
ACAD_PLOTSETTINGS
350
19
  3
ACAD_VISUALSTYLE
350
2A
  3
ACDBVARIABLEDICTIONARY
350
76
1001
ACAD
1000
TREAT_AS_HARD
1070
     0
  0
DICTIONARY
  5
D
102
{ACAD_REACTORS
330
C
102
}
330
C
100
AcDbDictionary
1001
ACAD
1000
TREAT_AS_HARD
1070
     0
  0
DICTIONARY
  5
1A
102
{ACAD_REACTORS
330
C
102
}
330
C
100
AcDbDictionary
1001
ACAD
1000
TREAT_AS_HARD
1070
     0
  0
DICTIONARY
  5
3B
102
{ACAD_REACTORS
330
C
102
}
330
C
100
AcDbDictionary
  3
BYBLOCK
350
3D
  3
BYLAYER
350
3C
  3
GLOBAL
350
3E
1001
ACAD
1000
TREAT_AS_HARD
1070
     0
  0
DICTIONARY
  5
78
102
{ACAD_REACTORS
330
C
102
}
330
C
100
AcDbDictionary
1001
ACAD
1000
TREAT_AS_HARD
1070
     0
  0
DICTIONARY
  5
17
102
{ACAD_REACTORS
330
C
102
}
330
C
100
AcDbDictionary
  3
STANDARD
350
18
1001
ACAD
1000
TREAT_AS_HARD
1070
     0
  0
DICTIONARY
  5
19
102
{ACAD_REACTORS
330
C
102
}
330
C
100
AcDbDictionary
1001
ACAD
1000
TREAT_AS_HARD
1070
     0
  0
DICTIONARY
  5
2A
102
{ACAD_REACTORS
330
C
102
}
330
C
100
AcDbDictionary
  3
2DWIREFRAME
350
2F
  3
3D_HIDDEN
350
31
  3
3DWIREFRAME
350
30
  3
BASIC
350
32
  3
BRIGHTEN
350
36
  3
COLORCHANGE
350
3A
  3
CONCEPTUAL
350
34
  3
DIM
350
35
  3
FACEPATTERN
350
39
  3
FLAT
350
2B
  3
FLATWITHEDGES
350
2C
  3
GOURAUD
350
2D
  3
GOURAUDWITHEDGES
350
2E
  3
LINEPATTERN
350
38
  3
REALISTIC
350
33
  3
THICKEN
350
37
1001
ACAD
1000
TREAT_AS_HARD
1070
     0
  0
DICTIONARY
  5
76
102
{ACAD_REACTORS
330
C
102
}
330
C
100
AcDbDictionary
  3
DIMASSOC
350
79
  3
HIDETEXT
350
7A
1001
ACAD
1000
TREAT_AS_HARD
1070
     0
  0
MATERIAL
  5
3D
102
{ACAD_REACTORS
330
3B
102
}
102
{ACAD_XDICTIONARY
360
C3
102
}
330
3B
100
AcDbMaterial
  1
ByBlock
  0
MATERIAL
  5
3C
102
{ACAD_REACTORS
330
3B
102
}
102
{ACAD_XDICTIONARY
360
C1
102
}
330
3B
100
AcDbMaterial
  1
ByLayer
  0
MATERIAL
  5
3E
102
{ACAD_REACTORS
330
3B
102
}
102
{ACAD_XDICTIONARY
360
C5
102
}
330
3B
100
AcDbMaterial
  1
Global
  0
MLINESTYLE
  5
18
102
{ACAD_REACTORS
330
17
102
}
330
17
100
AcDbMlineStyle
  2
Standard
 70
     0
  3

 62
   256
 51
90.0
 52
90.0
 71
     2
 49
0.5
 62
   256
  6
BYLAYER
 49
-0.5
 62
   256
  6
BYLAYER
  0
ACAD_PROXY_OBJECT
  5
2F
102
{ACAD_REACTORS
330
2A
102
}
330
2A
100
AcDbZombieObject
 90
      499
 91
      501
 93
      436
310
42CC9915DA5C99599C985B595049028333333333333E3BF0000000000000FB0107901411070040501600405405064090741402480A0340
1001
ACAD
1000
AcDbSavedByObjectVersion
1070
     0
  0
ACAD_PROXY_OBJECT
  5
31
102
{ACAD_REACTORS
330
2A
102
}
330
2A
100
AcDbZombieObject
 90
      499
 91
      501
 93
      500
310
424CD108121A5919195B90640502408333333333333E3BF0000000000000FB01079024090700405020000000000001110200405405064090740C02480A0340
1001
ACAD
1000
AcDbSavedByObjectVersion
1070
     0
  0
ACAD_PROXY_OBJECT
  5
30
102
{ACAD_REACTORS
330
2A
102
}
330
2A
100
AcDbZombieObject
 90
      499
 91
      501
 93
      436
310
42CCD915DA5C99599C985B595059028333333333333E3BF0000000000000FB0107901411070040501600405405064090741402480A0340
1001
ACAD
1000
AcDbSavedByObjectVersion
1070
     0
  0
ACAD_PROXY_OBJECT
  5
32
102
{ACAD_REACTORS
330
2A
102
}
330
2A
100
AcDbZombieObject
 90
      499
 91
      501
 93
      388
310
4150985CDA58D07406404333333333333E3BF0000000000000FB0107A41107004050150841D405064090741402480A0350
1001
ACAD
1000
AcDbSavedByObjectVersion
1070
     0
  0
ACAD_PROXY_OBJECT
  5
36
102
{ACAD_REACTORS
330
2A
102
}
330
2A
100
AcDbZombieObject
 90
      499
 91
      501
 93
      428
310
42109C9A59DA1D195B90C409028333333333333E3BF0000000000000FB010790141107004050150841D405064090741402480A029950
1001
ACAD
1000
AcDbSavedByObjectVersion
1070
     0
  0
ACAD_PROXY_OBJECT
  5
3A
102
{ACAD_REACTORS
330
2A
102
}
330
2A
100
AcDbZombieObject
 90
      499
 91
      501
 93
      452
310
42D0DBDB1BDC90DA185B99D95104090240C333333333333E3BF0000000000000FB0108901411070040501508421405064090741402480A0350
1001
ACAD
1000
AcDbSavedByObjectVersion
1070
     0
  0
ACAD_PROXY_OBJECT
  5
34
102
{ACAD_REACTORS
330
2A
102
}
330
2A
100
AcDbZombieObject
 90
      499
 91
      501
 93
      500
310
4290DBDB98D95C1D1D585B10940D028333333333333E3BF0000000000000FB0107902409070040501000000000000111010841D405064090740C02480A0340
1001
ACAD
1000
AcDbSavedByObjectVersion
1070
     0
  0
ACAD_PROXY_OBJECT
  5
35
102
{ACAD_REACTORS
330
2A
102
}
330
2A
100
AcDbZombieObject
 90
      499
 91
      501
 93
      412
310
40D11A5B50B409028333333333333E3BF0000000000000FB010790141107004050150841D405064090741402480A02677FFFFFD0
1001
ACAD
1000
AcDbSavedByObjectVersion
1070
     0
  0
ACAD_PROXY_OBJECT
  5
39
102
{ACAD_REACTORS
330
2A
102
}
330
2A
100
AcDbZombieObject
 90
      499
 91
      501
 93
      444
310
42D19858D95C185D1D195C9B90F409028333333333333E3BF0000000000000FB010790141107004050150841D405064090741402480A0350
1001
ACAD
1000
AcDbSavedByObjectVersion
1070
     0
  0
ACAD_PROXY_OBJECT
  5
2B
102
{ACAD_REACTORS
330
2A
102
}
330
2A
100
AcDbZombieObject
 90
      499
 91
      501
 93
      388
310
41119B185D240901404333333333333E3BF0000000000000F9010740A41107004050150841D405064090741402480A1B50
1001
ACAD
1000
AcDbSavedByObjectVersion
1070
     0
  0
ACAD_PROXY_OBJECT
  5
2C
102
{ACAD_REACTORS
330
2A
102
}
330
2A
100
AcDbZombieObject
 90
      499
 91
      501
 93
      476
310
43519B185D15DA5D1A115919D95CD0140901404333333333333E3BF0000000000000F9010740901411070040501600405405064090741402480A1B50
1001
ACAD
1000
AcDbSavedByObjectVersion
1070
     0
  0
ACAD_PROXY_OBJECT
  5
2D
102
{ACAD_REACTORS
330
2A
102
}
330
2A
100
AcDbZombieObject
 90
      499
 91
      501
 93
      412
310
41D1DBDD5C985D5910240902404333333333333E3BF0000000000000F9010740A411070040501641D405064090741402480A1B50
1001
ACAD
1000
AcDbSavedByObjectVersion
1070
     0
  0
ACAD_PROXY_OBJECT
  5
2E
102
{ACAD_REACTORS
330
2A
102
}
330
2A
100
AcDbZombieObject
 90
      499
 91
      501
 93
      500
310
4411DBDD5C985D5915DA5D1A115919D95CD0340902404333333333333E3BF0000000000000F9010740901411070040501600405405064090741402480A1B50
1001
ACAD
1000
AcDbSavedByObjectVersion
1070
     0
  0
ACAD_PROXY_OBJECT
  5
38
102
{ACAD_REACTORS
330
2A
102
}
330
2A
100
AcDbZombieObject
 90
      499
 91
      501
 93
      444
310
42D31A5B995C185D1D195C9B90E409028333333333333E3BF0000000000000FB010790141107004050750841D405064090741402483A0350
1001
ACAD
1000
AcDbSavedByObjectVersion
1070
     0
  0
ACAD_PROXY_OBJECT
  5
33
102
{ACAD_REACTORS
330
2A
102
}
330
2A
100
AcDbZombieObject
 90
      499
 91
      501
 93
      420
310
425499585B1A5CDD1A58D08409028333333333333E3BF0000000000000FB01079019070040501508421405064090741402480A1B40
1001
ACAD
1000
AcDbSavedByObjectVersion
1070
     0
  0
ACAD_PROXY_OBJECT
  5
37
102
{ACAD_REACTORS
330
2A
102
}
330
2A
100
AcDbZombieObject
 90
      499
 91
      501
 93
      412
310
41D51A1A58DAD95B90D409028333333333333E3BF0000000000000FB010790141107004050150C41D405064090741402480A0350
1001
ACAD
1000
AcDbSavedByObjectVersion
1070
     0
  0
DICTIONARYVAR
  5
79
102
{ACAD_REACTORS
330
76
102
}
330
76
100
DictionaryVariables
280
     0
  1
2
  0
DICTIONARYVAR
  5
7A
102
{ACAD_REACTORS
330
76
102
}
330
76
100
DictionaryVariables
280
     0
  1
1
  0
DICTIONARY
  5
C3
330
3D
100
AcDbDictionary
  3
ACAD_XREC_ROUNDTRIP
360
C4
1001
ACAD
1000
TREAT_AS_HARD
1070
     1
  0
DICTIONARY
  5
C1
330
3C
100
AcDbDictionary
  3
ACAD_XREC_ROUNDTRIP
360
C2
1001
ACAD
1000
TREAT_AS_HARD
1070
     1
  0
DICTIONARY
  5
C5
330
3E
100
AcDbDictionary
  3
ACAD_XREC_ROUNDTRIP
360
C6
1001
ACAD
1000
TREAT_AS_HARD
1070
     1
  0
XRECORD
  5
C4
102
{ACAD_REACTORS
330
C3
102
}
330
C3
100
AcDbXrecord
102
MATERIAL
148
0.0
149
0.0
149
0.0
 93
        0
 94
      127
282
     0
 72
     1
 77
     1
171
     1
175
     1
179
     1
273
     0
  0
XRECORD
  5
C2
102
{ACAD_REACTORS
330
C1
102
}
330
C1
100
AcDbXrecord
102
MATERIAL
148
0.0
149
0.0
149
0.0
 93
        0
 94
      127
282
     0
 72
     1
 77
     1
171
     1
175
     1
179
     1
273
     0
  0
XRECORD
  5
C6
102
{ACAD_REACTORS
330
C5
102
}
330
C5
100
AcDbXrecord
102
MATERIAL
148
0.0
149
0.0
149
0.0
 93
        0
 94
      127
282
     0
 72
     1
 77
     1
171
     1
175
     1
179
     1
273
     0
  0
ENDSEC
  0
EOF
