  0
SECTION
  2
HEADER
  9
$ACADVER
  1
AC1014
  9
$HANDSEED
  5
FFFF
  9
$MEASUREMENT
 70
     1
  0
ENDSEC
  0
SECTION
  2
TABLES
  0
TABLE
  2
VPORT
  5
8
330
0
100
AcDbSymbolTable
 70
     4
  0
VPORT
  5
2E
330
8
100
AcDbSymbolTableRecord
100
AcDbViewportTableRecord
  2
*ACTIVE
 70
     0
 10
0.0
 20
0.0
 11
1.0
 21
1.0
 12
210.0
 22
148.5
 13
0.0
 23
0.0
 14
10.0
 24
10.0
 15
10.0
 25
10.0
 16
0.0
 26
0.0
 36
1.0
 17
0.0
 27
0.0
 37
0.0
 40
341.0
 41
1.24
 42
50.0
 43
0.0
 44
0.0
 50
0.0
 51
0.0
 71
     0
 72
   100
 73
     1
 74
     3
 75
     0
 76
     0
 77
     0
 78
     0
  0
ENDTAB
  0
TABLE
  2
LTYPE
  5
5
330
0
100
AcDbSymbolTable
 70
     1
  0
LTYPE
  5
14
330
5
100
AcDbSymbolTableRecord
100
AcDbLinetypeTableRecord
  2
BYBLOCK
 70
     0
  3

 72
    65
 73
     0
 40
0.0
  0
LTYPE
  5
15
330
5
100
AcDbSymbolTableRecord
100
AcDbLinetypeTableRecord
  2
BYLAYER
 70
     0
  3

 72
    65
 73
     0
 40
0.0
  0
LTYPE
  5
16
330
5
100
AcDbSymbolTableRecord
100
AcDbLinetypeTableRecord
  2
CONTINUOUS
 70
     0
  3
Solid line
 72
    65
 73
     0
 40
0.0
  0
ENDTAB
  0
TABLE
  2
LAYER
  5
2
100
AcDbSymbolTable
 70
2
  0
LAYER
  5
50
100
AcDbSymbolTableRecord
100
AcDbLayerTableRecord
  2
0
 70
0
  6
CONTINUOUS
  0
LAYER
  5
51
100
AcDbSymbolTableRecord
100
AcDbLayerTableRecord
  2
Layer_1
 70
0
  6
CONTINUOUS
  0
ENDTAB
  0
TABLE
  2
STYLE
  5
3
330
0
100
AcDbSymbolTable
 70
     1
  0
STYLE
  5
11
330
3
100
AcDbSymbolTableRecord
100
AcDbTextStyleTableRecord
  2
STANDARD
 70
     0
 40
0.0
 41
1.0
 50
0.0
 71
     0
 42
2.5
  3
txt
  4

  0
ENDTAB
  0
TABLE
  2
VIEW
  5
6
330
0
100
AcDbSymbolTable
 70
     0
  0
ENDTAB
  0
TABLE
  2
UCS
  5
7
330
0
100
AcDbSymbolTable
 70
     0
  0
ENDTAB
  0
TABLE
  2
APPID
  5
9
330
0
100
AcDbSymbolTable
 70
     2
  0
APPID
  5
12
330
9
100
AcDbSymbolTableRecord
100
AcDbRegAppTableRecord
  2
ACAD
 70
     0
  0
ENDTAB
  0
TABLE
  2
DIMSTYLE
  5
A
330
0
100
AcDbSymbolTable
 70
     1
  0
DIMSTYLE
105
27
330
A
100
AcDbSymbolTableRecord
100
AcDbDimStyleTableRecord
  2
ISO-25
 70
     0
  3

  4

  5

  6

  7

 40
1.0
 41
2.5
 42
0.625
 43
3.75
 44
1.25
 45
0.0
 46
0.0
 47
0.0
 48
0.0
140
2.5
141
2.5
142
0.0
143
0.03937007874016
144
1.0
145
0.0
146
1.0
147
0.625
 71
     0
 72
     0
 73
     0
 74
     0
 75
     0
 76
     0
 77
     1
 78
     8
170
     0
171
     3
172
     1
173
     0
174
     0
175
     0
176
     0
177
     0
178
     0
270
     2
271
     2
272
     2
273
     2
274
     3
340
11
275
     0
280
     0
281
     0
282
     0
283
     0
284
     8
285
     0
286
     0
287
     3
288
     0
  0
ENDTAB
  0
TABLE
  2
BLOCK_RECORD
  5
1
330
0
100
AcDbSymbolTable
 70
     1
  0
BLOCK_RECORD
  5
1F
330
1
100
AcDbSymbolTableRecord
100
AcDbBlockTableRecord
  2
*MODEL_SPACE
  0
BLOCK_RECORD
  5
1B
330
1
100
AcDbSymbolTableRecord
100
AcDbBlockTableRecord
  2
*PAPER_SPACE
  0
ENDTAB
  0
ENDSEC
  0
SECTION
  2
BLOCKS
  0
BLOCK
  5
20
330
1F
100
AcDbEntity
  8
0
100
AcDbBlockBegin
  2
*MODEL_SPACE
 70
     0
 10
0.0
 20
0.0
 30
0.0
  3
*MODEL_SPACE
  1

  0
ENDBLK
  5
21
330
1F
100
AcDbEntity
  8
0
100
AcDbBlockEnd
  0
BLOCK
  5
1C
330
1B
100
AcDbEntity
 67
     1
  8
0
100
AcDbBlockBegin
  2
*PAPER_SPACE
  1

  0
ENDBLK
  5
1D
330
1B
100
AcDbEntity
 67
     1
  8
0
100
AcDbBlockEnd
  0
ENDSEC
  0
SECTION
  2
ENTITIES
  0
LWPOLYLINE
  5
100
100
AcDbEntity
  8
Layer_1
 62
7
100
AcDbPolyline
 90
4
 70
1
 10
75.976868
 20
131.980620
 30
0.0
 10
69.957769
 20
131.980620
 30
0.0
 10
69.957769
 20
137.999367
 30
0.0
 10
75.976868
 20
137.999367
 30
0.0
  0
LWPOLYLINE
  5
101
100
AcDbEntity
  8
Layer_1
 62
7
100
AcDbPolyline
 90
4
 70
1
 10
81.553360
 20
127.428450
 30
0.0
 10
81.553360
 20
184.528450
 30
0.0
 10
113.553360
 20
184.528450
 30
0.0
 10
113.553360
 20
127.428450
 30
0.0
  0
LWPOLYLINE
  5
102
100
AcDbEntity
  8
Layer_1
 62
7
100
AcDbPolyline
 90
36
 70
1
 10
53.611613
 20
189.023670
 30
0.0
 10
51.591344
 20
188.821213
 30
0.0
 10
49.711941
 20
188.240245
 30
0.0
 10
48.013012
 20
187.320376
 30
0.0
 10
46.534163
 20
186.101211
 30
0.0
 10
45.315002
 20
184.622360
 30
0.0
 10
44.395135
 20
182.923429
 30
0.0
 10
43.814170
 20
181.044027
 30
0.0
 10
43.611713
 20
179.023760
 30
0.0
 10
43.611713
 20
120.852640
 30
0.0
 10
43.814170
 20
118.832368
 30
0.0
 10
44.395135
 20
116.952964
 30
0.0
 10
45.315002
 20
115.254034
 30
0.0
 10
46.534163
 20
113.775186
 30
0.0
 10
48.013012
 20
112.556026
 30
0.0
 10
49.711941
 20
111.636160
 30
0.0
 10
51.591344
 20
111.055196
 30
0.0
 10
53.611613
 20
110.852740
 30
0.0
 10
141.495150
 20
110.852740
 30
0.0
 10
143.515419
 20
111.055196
 30
0.0
 10
145.394822
 20
111.636160
 30
0.0
 10
147.093751
 20
112.556026
 30
0.0
 10
148.572600
 20
113.775186
 30
0.0
 10
149.791761
 20
115.254034
 30
0.0
 10
150.711628
 20
116.952964
 30
0.0
 10
151.292593
 20
118.832368
 30
0.0
 10
151.495050
 20
120.852640
 30
0.0
 10
151.495050
 20
179.023760
 30
0.0
 10
151.292593
 20
181.044027
 30
0.0
 10
150.711628
 20
182.923429
 30
0.0
 10
149.791761
 20
184.622360
 30
0.0
 10
148.572600
 20
186.101211
 30
0.0
 10
147.093751
 20
187.320376
 30
0.0
 10
145.394822
 20
188.240245
 30
0.0
 10
143.515419
 20
188.821213
 30
0.0
 10
141.495150
 20
189.023670
 30
0.0
  0
LWPOLYLINE
  5
103
100
AcDbEntity
  8
Layer_1
 62
7
100
AcDbPolyline
 90
19
 70
1
 10
53.797143
 20
116.911270
 30
0.0
 10
62.067433
 20
116.911270
 30
0.0
 10
62.711272
 20
116.781249
 30
0.0
 10
63.237058
 20
116.426739
 30
0.0
 10
63.591578
 20
115.900957
 30
0.0
 10
63.721616
 20
115.257120
 30
0.0
 10
63.591578
 20
114.613363
 30
0.0
 10
63.237058
 20
114.087756
 30
0.0
 10
62.711272
 20
113.733421
 30
0.0
 10
62.067433
 20
113.603480
 30
0.0
 10
53.797143
 20
113.603480
 30
0.0
 10
53.153306
 20
113.733421
 30
0.0
 10
52.627522
 20
114.087756
 30
0.0
 10
52.273006
 20
114.613363
 30
0.0
 10
52.142973
 20
115.257120
 30
0.0
 10
52.273006
 20
115.900957
 30
0.0
 10
52.627522
 20
116.426739
 30
0.0
 10
53.153306
 20
116.781249
 30
0.0
 10
53.797143
 20
116.911270
 30
0.0
  0
LWPOLYLINE
  5
104
100
AcDbEntity
  8
Layer_1
 62
7
100
AcDbPolyline
 90
19
 70
1
 10
133.039330
 20
116.911270
 30
0.0
 10
141.310680
 20
116.911270
 30
0.0
 10
141.954517
 20
116.781249
 30
0.0
 10
142.480299
 20
116.426739
 30
0.0
 10
142.834809
 20
115.900957
 30
0.0
 10
142.964830
 20
115.257120
 30
0.0
 10
142.834796
 20
114.613363
 30
0.0
 10
142.480288
 20
114.087756
 30
0.0
 10
141.954513
 20
113.733421
 30
0.0
 10
141.310680
 20
113.603480
 30
0.0
 10
133.039330
 20
113.603480
 30
0.0
 10
132.395588
 20
113.733421
 30
0.0
 10
131.869984
 20
114.087756
 30
0.0
 10
131.515640
 20
114.613363
 30
0.0
 10
131.385680
 20
115.257120
 30
0.0
 10
131.515636
 20
115.900957
 30
0.0
 10
131.869973
 20
116.426739
 30
0.0
 10
132.395576
 20
116.781249
 30
0.0
 10
133.039330
 20
116.911270
 30
0.0
  0
LWPOLYLINE
  5
105
100
AcDbEntity
  8
Layer_1
 62
7
100
AcDbPolyline
 90
8
 70
1
 10
127.267160
 20
151.706610
 30
0.0
 10
68.253380
 20
151.705920
 30
0.0
 10
68.253380
 20
158.945140
 30
0.0
 10
69.136550
 20
158.945140
 30
0.0
 10
69.136550
 20
173.269330
 30
0.0
 10
68.219870
 20
173.269330
 30
0.0
 10
68.219870
 20
180.954040
 30
0.0
 10
127.267160
 20
180.954040
 30
0.0
  0
LWPOLYLINE
  5
106
100
AcDbEntity
  8
Layer_1
 62
7
100
AcDbPolyline
 90
4
 70
0
 10
65.288040
 20
172.656380
 30
0.0
 10
74.712280
 20
172.656380
 30
0.0
 10
74.712280
 20
160.143080
 30
0.0
 10
65.334510
 20
160.143080
 30
0.0
  0
LWPOLYLINE
  5
107
100
AcDbEntity
  8
Layer_1
 62
7
100
AcDbPolyline
 90
12
 70
1
 10
125.585130
 20
153.167200
 30
0.0
 10
72.306000
 20
153.167200
 30
0.0
 10
71.891690
 20
153.581520
 30
0.0
 10
71.891690
 20
158.292210
 30
0.0
 10
72.199590
 20
158.600120
 30
0.0
 10
73.449628
 20
158.600120
 30
0.0
 10
74.775578
 20
159.926060
 30
0.0
 10
74.775578
 20
179.354120
 30
0.0
 10
75.284598
 20
179.863150
 30
0.0
 10
125.582290
 20
179.863150
 30
0.0
 10
125.994300
 20
179.451140
 30
0.0
 10
125.994300
 20
153.538950
 30
0.0
  0
LWPOLYLINE
  5
108
100
AcDbEntity
  8
Layer_1
 62
7
100
AcDbPolyline
 90
10
 70
1
 10
125.077970
 20
154.477540
 30
0.0
 10
124.726700
 20
154.109550
 30
0.0
 10
72.772040
 20
154.109550
 30
0.0
 10
72.772040
 20
157.730740
 30
0.0
 10
74.345148
 20
157.730740
 30
0.0
 10
75.713348
 20
159.098960
 30
0.0
 10
75.713348
 20
178.568060
 30
0.0
 10
76.067058
 20
178.921770
 30
0.0
 10
124.757470
 20
178.921770
 30
0.0
 10
125.077970
 20
178.366650
 30
0.0
  0
LWPOLYLINE
  5
109
100
AcDbEntity
  8
Layer_1
 62
7
100
AcDbPolyline
 90
4
 70
1
 10
124.599800
 20
178.276570
 30
0.0
 10
76.292249
 20
178.276570
 30
0.0
 10
76.292249
 20
154.550910
 30
0.0
 10
124.599800
 20
154.550910
 30
0.0
  0
LWPOLYLINE
  5
10a
100
AcDbEntity
  8
Layer_1
 62
7
100
AcDbPolyline
 90
9
 70
1
 10
73.830284
 20
155.569980
 30
0.0
 10
74.063012
 20
155.008134
 30
0.0
 10
74.624860
 20
154.775410
 30
0.0
 10
75.186707
 20
155.008134
 30
0.0
 10
75.419435
 20
155.569980
 30
0.0
 10
75.186711
 20
156.131832
 30
0.0
 10
74.624860
 20
156.364560
 30
0.0
 10
74.063008
 20
156.131833
 30
0.0
 10
73.830284
 20
155.569980
 30
0.0
  0
LWPOLYLINE
  5
10b
100
AcDbEntity
  8
Layer_1
 62
7
100
AcDbPolyline
 90
4
 70
0
 10
66.622160
 20
160.143080
 30
0.0
 10
57.197920
 20
160.143080
 30
0.0
 10
57.197920
 20
172.656380
 30
0.0
 10
66.575690
 20
172.656380
 30
0.0
  0
LWPOLYLINE
  5
10c
100
AcDbEntity
  8
Layer_1
 62
7
100
AcDbPolyline
 90
4
 70
1
 10
84.794099
 20
150.633580
 30
0.0
 10
110.312650
 20
150.633580
 30
0.0
 10
110.312650
 20
132.575920
 30
0.0
 10
84.794099
 20
132.575920
 30
0.0
  0
LWPOLYLINE
  5
10d
100
AcDbEntity
  8
Layer_1
 62
7
100
AcDbPolyline
 90
33
 70
1
 10
149.674050
 20
133.146130
 30
0.0
 10
149.480127
 20
131.186117
 30
0.0
 10
148.912845
 20
129.319296
 30
0.0
 10
147.993933
 20
127.598125
 30
0.0
 10
146.745118
 20
126.075062
 30
0.0
 10
145.222055
 20
124.826247
 30
0.0
 10
143.500884
 20
123.907335
 30
0.0
 10
141.634063
 20
123.340053
 30
0.0
 10
139.674050
 20
123.146130
 30
0.0
 10
137.714037
 20
123.340053
 30
0.0
 10
135.847216
 20
123.907335
 30
0.0
 10
134.126045
 20
124.826247
 30
0.0
 10
132.602982
 20
126.075062
 30
0.0
 10
131.354167
 20
127.598125
 30
0.0
 10
130.435255
 20
129.319296
 30
0.0
 10
129.867973
 20
131.186117
 30
0.0
 10
129.674050
 20
133.146130
 30
0.0
 10
129.867973
 20
135.106143
 30
0.0
 10
130.435255
 20
136.972964
 30
0.0
 10
131.354167
 20
138.694135
 30
0.0
 10
132.602982
 20
140.217198
 30
0.0
 10
134.126045
 20
141.466013
 30
0.0
 10
135.847216
 20
142.384925
 30
0.0
 10
137.714037
 20
142.952207
 30
0.0
 10
139.674050
 20
143.146130
 30
0.0
 10
141.634063
 20
142.952207
 30
0.0
 10
143.500884
 20
142.384925
 30
0.0
 10
145.222055
 20
141.466013
 30
0.0
 10
146.745118
 20
140.217198
 30
0.0
 10
147.993933
 20
138.694135
 30
0.0
 10
148.912845
 20
136.972964
 30
0.0
 10
149.480127
 20
135.106143
 30
0.0
 10
149.674050
 20
133.146130
 30
0.0
  0
LWPOLYLINE
  5
10e
100
AcDbEntity
  8
Layer_1
 62
7
100
AcDbPolyline
 90
23
 70
1
 10
139.108640
 20
126.611780
 30
0.0
 10
138.503486
 20
126.861475
 30
0.0
 10
138.252220
 20
127.468200
 30
0.0
 10
138.252220
 20
134.566940
 30
0.0
 10
135.240210
 20
131.554900
 30
0.0
 10
134.635568
 20
131.305458
 30
0.0
 10
134.026260
 20
131.554900
 30
0.0
 10
133.217630
 20
132.363500
 30
0.0
 10
132.968188
 20
132.968144
 30
0.0
 10
133.217630
 20
133.577460
 30
0.0
 10
139.069130
 20
139.428980
 30
0.0
 10
139.674040
 20
139.680490
 30
0.0
 10
140.278960
 20
139.428980
 30
0.0
 10
146.130480
 20
133.577460
 30
0.0
 10
146.379900
 20
132.972809
 30
0.0
 10
146.130480
 20
132.363500
 30
0.0
 10
145.321860
 20
131.554900
 30
0.0
 10
144.717216
 20
131.305458
 30
0.0
 10
144.107900
 20
131.554900
 30
0.0
 10
141.106270
 20
134.566940
 30
0.0
 10
141.106270
 20
127.472380
 30
0.0
 10
140.855001
 20
126.867209
 30
0.0
 10
140.249830
 20
126.615940
 30
0.0
  0
LWPOLYLINE
  5
10f
100
AcDbEntity
  8
Layer_1
 62
7
100
AcDbPolyline
 90
33
 70
1
 10
65.432710
 20
133.146130
 30
0.0
 10
65.238787
 20
131.186117
 30
0.0
 10
64.671505
 20
129.319296
 30
0.0
 10
63.752593
 20
127.598125
 30
0.0
 10
62.503778
 20
126.075062
 30
0.0
 10
60.980715
 20
124.826247
 30
0.0
 10
59.259544
 20
123.907335
 30
0.0
 10
57.392723
 20
123.340053
 30
0.0
 10
55.432710
 20
123.146130
 30
0.0
 10
53.472697
 20
123.340053
 30
0.0
 10
51.605876
 20
123.907335
 30
0.0
 10
49.884705
 20
124.826247
 30
0.0
 10
48.361642
 20
126.075062
 30
0.0
 10
47.112827
 20
127.598125
 30
0.0
 10
46.193915
 20
129.319296
 30
0.0
 10
45.626633
 20
131.186117
 30
0.0
 10
45.432710
 20
133.146130
 30
0.0
 10
45.626633
 20
135.106143
 30
0.0
 10
46.193915
 20
136.972964
 30
0.0
 10
47.112827
 20
138.694135
 30
0.0
 10
48.361642
 20
140.217198
 30
0.0
 10
49.884705
 20
141.466013
 30
0.0
 10
51.605876
 20
142.384925
 30
0.0
 10
53.472697
 20
142.952207
 30
0.0
 10
55.432710
 20
143.146130
 30
0.0
 10
57.392723
 20
142.952207
 30
0.0
 10
59.259544
 20
142.384925
 30
0.0
 10
60.980715
 20
141.466013
 30
0.0
 10
62.503778
 20
140.217198
 30
0.0
 10
63.752593
 20
138.694135
 30
0.0
 10
64.671505
 20
136.972964
 30
0.0
 10
65.238787
 20
135.106143
 30
0.0
 10
65.432710
 20
133.146130
 30
0.0
  0
LWPOLYLINE
  5
110
100
AcDbEntity
  8
Layer_1
 62
7
100
AcDbPolyline
 90
23
 70
1
 10
55.998119
 20
139.680490
 30
0.0
 10
56.603273
 20
139.430795
 30
0.0
 10
56.854540
 20
138.824070
 30
0.0
 10
56.854540
 20
131.725330
 30
0.0
 10
59.866548
 20
134.737370
 30
0.0
 10
60.471192
 20
134.986813
 30
0.0
 10
61.080503
 20
134.737370
 30
0.0
 10
61.889127
 20
133.928770
 30
0.0
 10
62.138570
 20
133.324128
 30
0.0
 10
61.889127
 20
132.714820
 30
0.0
 10
56.037628
 20
126.863290
 30
0.0
 10
55.432716
 20
126.611780
 30
0.0
 10
54.827803
 20
126.863290
 30
0.0
 10
48.976277
 20
132.714820
 30
0.0
 10
48.726855
 20
133.319463
 30
0.0
 10
48.976277
 20
133.928770
 30
0.0
 10
49.784901
 20
134.737370
 30
0.0
 10
50.389545
 20
134.986813
 30
0.0
 10
50.998856
 20
134.737370
 30
0.0
 10
54.000485
 20
131.725330
 30
0.0
 10
54.000485
 20
138.819890
 30
0.0
 10
54.251755
 20
139.425066
 30
0.0
 10
54.856932
 20
139.676340
 30
0.0
  0
LWPOLYLINE
  5
111
100
AcDbEntity
  8
Layer_1
 62
7
100
AcDbPolyline
 90
33
 70
1
 10
86.996270
 20
123.333170
 30
0.0
 10
86.863918
 20
121.995461
 30
0.0
 10
86.476748
 20
120.721356
 30
0.0
 10
85.849590
 20
119.546657
 30
0.0
 10
84.997274
 20
118.507166
 30
0.0
 10
83.957784
 20
117.654850
 30
0.0
 10
82.783084
 20
117.027692
 30
0.0
 10
81.508979
 20
116.640522
 30
0.0
 10
80.171270
 20
116.508170
 30
0.0
 10
78.833561
 20
116.640522
 30
0.0
 10
77.559456
 20
117.027692
 30
0.0
 10
76.384757
 20
117.654850
 30
0.0
 10
75.345266
 20
118.507166
 30
0.0
 10
74.492950
 20
119.546657
 30
0.0
 10
73.865792
 20
120.721356
 30
0.0
 10
73.478622
 20
121.995461
 30
0.0
 10
73.346270
 20
123.333170
 30
0.0
 10
73.478622
 20
124.670879
 30
0.0
 10
73.865792
 20
125.944984
 30
0.0
 10
74.492950
 20
127.119684
 30
0.0
 10
75.345266
 20
128.159174
 30
0.0
 10
76.384757
 20
129.011490
 30
0.0
 10
77.559456
 20
129.638648
 30
0.0
 10
78.833561
 20
130.025818
 30
0.0
 10
80.171270
 20
130.158170
 30
0.0
 10
81.508979
 20
130.025818
 30
0.0
 10
82.783084
 20
129.638648
 30
0.0
 10
83.957784
 20
129.011490
 30
0.0
 10
84.997274
 20
128.159174
 30
0.0
 10
85.849590
 20
127.119684
 30
0.0
 10
86.476748
 20
125.944984
 30
0.0
 10
86.863918
 20
124.670879
 30
0.0
 10
86.996270
 20
123.333170
 30
0.0
  0
LWPOLYLINE
  5
112
100
AcDbEntity
  8
Layer_1
 62
7
100
AcDbPolyline
 90
15
 70
1
 10
79.302747
 20
124.030290
 30
0.0
 10
80.130956
 20
125.473000
 30
0.0
 10
80.047536
 20
125.782240
 30
0.0
 10
79.458256
 20
126.119280
 30
0.0
 10
79.149813
 20
126.036280
 30
0.0
 10
78.246727
 20
124.463680
 30
0.0
 10
78.246727
 20
124.463680
 30
0.0
 10
77.251883
 20
122.731190
 30
0.0
 10
77.251883
 20
122.731190
 30
0.0
 10
76.421488
 20
121.284700
 30
0.0
 10
76.504908
 20
120.976660
 30
0.0
 10
77.093791
 20
120.638020
 30
0.0
 10
77.403029
 20
120.721020
 30
0.0
 10
78.556961
 20
122.731170
 30
0.0
 10
78.556961
 20
122.731170
 30
0.0
  0
LWPOLYLINE
  5
113
100
AcDbEntity
  8
Layer_1
 62
7
100
AcDbPolyline
 90
9
 70
1
 10
84.855722
 20
124.463460
 30
0.0
 10
82.867622
 20
124.463460
 30
0.0
 10
83.471202
 20
123.320650
 30
0.0
 10
83.690072
 20
122.905950
 30
0.0
 10
83.758002
 20
122.730970
 30
0.0
 10
84.855727
 20
122.730970
 30
0.0
 10
85.060496
 20
122.935340
 30
0.0
 10
85.060496
 20
124.258890
 30
0.0
 10
84.855727
 20
124.463460
 30
0.0
  0
LWPOLYLINE
  5
114
100
AcDbEntity
  8
Layer_1
 62
7
100
AcDbPolyline
 90
4
 70
1
 10
80.023110
 20
124.463460
 30
0.0
 10
79.028464
 20
122.730970
 30
0.0
 10
81.727593
 20
122.730970
 30
0.0
 10
80.923416
 20
124.463460
 30
0.0
  0
LWPOLYLINE
  5
115
100
AcDbEntity
  8
Layer_1
 62
7
100
AcDbPolyline
 90
6
 70
1
 10
77.775028
 20
124.463460
 30
0.0
 10
75.486628
 20
124.463460
 30
0.0
 10
75.282058
 20
124.259090
 30
0.0
 10
75.282058
 20
122.935540
 30
0.0
 10
75.486628
 20
122.731170
 30
0.0
 10
76.780382
 20
122.731170
 30
0.0
  0
LWPOLYLINE
  5
116
100
AcDbEntity
  8
Layer_1
 62
7
100
AcDbPolyline
 90
10
 70
1
 10
76.901535
 20
120.378820
 30
0.0
 10
76.312652
 20
120.716650
 30
0.0
 10
76.166648
 20
120.730136
 30
0.0
 10
76.090803
 20
120.604640
 30
0.0
 10
75.988916
 20
119.717840
 30
0.0
 10
76.025684
 20
119.596514
 30
0.0
 10
76.150188
 20
119.620140
 30
0.0
 10
76.910870
 20
120.138710
 30
0.0
 10
76.985229
 20
120.261524
 30
0.0
 10
76.901570
 20
120.378840
 30
0.0
  0
LWPOLYLINE
  5
117
100
AcDbEntity
  8
Layer_1
 62
7
100
AcDbPolyline
 90
25
 70
1
 10
83.331579
 20
122.708920
 30
0.0
 10
83.319459
 20
122.731020
 30
0.0
 10
83.319459
 20
122.731020
 30
0.0
 10
82.947460
 20
123.437480
 30
0.0
 10
82.940860
 20
123.450580
 30
0.0
 10
82.898950
 20
123.530380
 30
0.0
 10
82.867570
 20
123.589380
 30
0.0
 10
82.840760
 20
123.640980
 30
0.0
 10
82.792300
 20
123.732580
 30
0.0
 10
82.777200
 20
123.761580
 30
0.0
 10
82.721390
 20
123.867050
 30
0.0
 10
82.705100
 20
123.897650
 30
0.0
 10
81.447890
 20
126.155470
 30
0.0
 10
80.553469
 20
127.662360
 30
0.0
 10
80.171306
 20
128.238163
 30
0.0
 10
79.923746
 20
128.422820
 30
0.0
 10
79.900726
 20
128.033093
 30
0.0
 10
80.159051
 20
127.265161
 30
0.0
 10
80.840338
 20
125.686550
 30
0.0
 10
81.720708
 20
123.697576
 30
0.0
 10
82.551772
 20
122.150270
 30
0.0
 10
82.823374
 20
122.087969
 30
0.0
 10
83.035987
 20
122.162970
 30
0.0
 10
83.296814
 20
122.362138
 30
0.0
 10
83.331521
 20
122.708950
 30
0.0
  0
LWPOLYLINE
  5
118
100
AcDbEntity
  8
Layer_1
 62
7
100
AcDbPolyline
 90
10
 70
1
 10
84.003084
 20
121.312090
 30
0.0
 10
83.722644
 20
121.850530
 30
0.0
 10
83.390566
 20
121.961150
 30
0.0
 10
83.052331
 20
121.786970
 30
0.0
 10
82.938452
 20
121.646266
 30
0.0
 10
82.968911
 20
121.464620
 30
0.0
 10
83.323830
 20
120.904140
 30
0.0
 10
83.666832
 20
120.819940
 30
0.0
 10
83.908144
 20
120.964930
 30
0.0
 10
84.003084
 20
121.312100
 30
0.0
  0
LWPOLYLINE
  5
119
100
AcDbEntity
  8
Layer_1
 62
7
100
AcDbPolyline
 90
9
 70
1
 10
83.916489
 20
120.532740
 30
0.0
 10
83.765943
 20
120.322166
 30
0.0
 10
83.872199
 20
119.907510
 30
0.0
 10
84.386155
 20
119.556910
 30
0.0
 10
84.766347
 20
119.296580
 30
0.0
 10
84.726848
 20
120.131991
 30
0.0
 10
84.482832
 20
120.584088
 30
0.0
 10
84.248052
 20
120.646018
 30
0.0
 10
83.916489
 20
120.532740
 30
0.0
  0
LWPOLYLINE
  5
11a
100
AcDbEntity
  8
Layer_1
 62
7
100
AcDbPolyline
 90
33
 70
1
 10
104.378380
 20
123.333170
 30
0.0
 10
104.246028
 20
121.995461
 30
0.0
 10
103.858858
 20
120.721356
 30
0.0
 10
103.231700
 20
119.546657
 30
0.0
 10
102.379384
 20
118.507166
 30
0.0
 10
101.339894
 20
117.654850
 30
0.0
 10
100.165194
 20
117.027692
 30
0.0
 10
98.891089
 20
116.640522
 30
0.0
 10
97.553380
 20
116.508170
 30
0.0
 10
96.215671
 20
116.640522
 30
0.0
 10
94.941566
 20
117.027692
 30
0.0
 10
93.766867
 20
117.654850
 30
0.0
 10
92.727376
 20
118.507166
 30
0.0
 10
91.875060
 20
119.546657
 30
0.0
 10
91.247902
 20
120.721356
 30
0.0
 10
90.860732
 20
121.995461
 30
0.0
 10
90.728380
 20
123.333170
 30
0.0
 10
90.860732
 20
124.670879
 30
0.0
 10
91.247902
 20
125.944984
 30
0.0
 10
91.875060
 20
127.119684
 30
0.0
 10
92.727376
 20
128.159174
 30
0.0
 10
93.766867
 20
129.011490
 30
0.0
 10
94.941566
 20
129.638648
 30
0.0
 10
96.215671
 20
130.025818
 30
0.0
 10
97.553380
 20
130.158170
 30
0.0
 10
98.891089
 20
130.025818
 30
0.0
 10
100.165194
 20
129.638648
 30
0.0
 10
101.339894
 20
129.011490
 30
0.0
 10
102.379384
 20
128.159174
 30
0.0
 10
103.231700
 20
127.119684
 30
0.0
 10
103.858858
 20
125.944984
 30
0.0
 10
104.246028
 20
124.670879
 30
0.0
 10
104.378380
 20
123.333170
 30
0.0
  0
LWPOLYLINE
  5
11b
100
AcDbEntity
  8
Layer_1
 62
7
100
AcDbPolyline
 90
19
 70
1
 10
102.405080
 20
126.126000
 30
0.0
 10
101.521790
 20
127.009300
 30
0.0
 10
101.080230
 20
127.191130
 30
0.0
 10
100.638520
 20
127.009300
 30
0.0
 10
96.377802
 20
122.742140
 30
0.0
 10
94.468289
 20
124.658160
 30
0.0
 10
94.026689
 20
124.839970
 30
0.0
 10
93.584975
 20
124.658160
 30
0.0
 10
92.701684
 20
123.774850
 30
0.0
 10
92.519830
 20
123.333130
 30
0.0
 10
92.701684
 20
122.891440
 30
0.0
 10
95.052797
 20
120.540370
 30
0.0
 10
95.936157
 20
119.657080
 30
0.0
 10
96.377802
 20
119.475230
 30
0.0
 10
96.819448
 20
119.657080
 30
0.0
 10
97.702785
 20
120.540370
 30
0.0
 10
102.405080
 20
125.242640
 30
0.0
 10
102.586930
 20
125.684360
 30
0.0
 10
102.405080
 20
126.126000
 30
0.0
  0
LWPOLYLINE
  5
11c
100
AcDbEntity
  8
Layer_1
 62
7
100
AcDbPolyline
 90
33
 70
1
 10
121.760490
 20
123.333170
 30
0.0
 10
121.628138
 20
121.995461
 30
0.0
 10
121.240968
 20
120.721356
 30
0.0
 10
120.613810
 20
119.546657
 30
0.0
 10
119.761494
 20
118.507166
 30
0.0
 10
118.722004
 20
117.654850
 30
0.0
 10
117.547304
 20
117.027692
 30
0.0
 10
116.273199
 20
116.640522
 30
0.0
 10
114.935490
 20
116.508170
 30
0.0
 10
113.597781
 20
116.640522
 30
0.0
 10
112.323676
 20
117.027692
 30
0.0
 10
111.148977
 20
117.654850
 30
0.0
 10
110.109486
 20
118.507166
 30
0.0
 10
109.257170
 20
119.546657
 30
0.0
 10
108.630012
 20
120.721356
 30
0.0
 10
108.242842
 20
121.995461
 30
0.0
 10
108.110490
 20
123.333170
 30
0.0
 10
108.242842
 20
124.670879
 30
0.0
 10
108.630012
 20
125.944984
 30
0.0
 10
109.257170
 20
127.119684
 30
0.0
 10
110.109486
 20
128.159174
 30
0.0
 10
111.148977
 20
129.011490
 30
0.0
 10
112.323676
 20
129.638648
 30
0.0
 10
113.597781
 20
130.025818
 30
0.0
 10
114.935490
 20
130.158170
 30
0.0
 10
116.273199
 20
130.025818
 30
0.0
 10
117.547304
 20
129.638648
 30
0.0
 10
118.722004
 20
129.011490
 30
0.0
 10
119.761494
 20
128.159174
 30
0.0
 10
120.613810
 20
127.119684
 30
0.0
 10
121.240968
 20
125.944984
 30
0.0
 10
121.628138
 20
124.670879
 30
0.0
 10
121.760490
 20
123.333170
 30
0.0
  0
LWPOLYLINE
  5
11d
100
AcDbEntity
  8
Layer_1
 62
7
100
AcDbPolyline
 90
17
 70
1
 10
110.734010
 20
124.552470
 30
0.0
 10
110.829090
 20
125.023493
 30
0.0
 10
111.088393
 20
125.408113
 30
0.0
 10
111.473008
 20
125.667418
 30
0.0
 10
111.944030
 20
125.762500
 30
0.0
 10
112.415057
 20
125.667418
 30
0.0
 10
112.799676
 20
125.408113
 30
0.0
 10
113.058980
 20
125.023493
 30
0.0
 10
113.154060
 20
124.552470
 30
0.0
 10
113.058980
 20
124.081450
 30
0.0
 10
112.799676
 20
123.696838
 30
0.0
 10
112.415057
 20
123.437539
 30
0.0
 10
111.944030
 20
123.342460
 30
0.0
 10
111.473008
 20
123.437539
 30
0.0
 10
111.088393
 20
123.696838
 30
0.0
 10
110.829090
 20
124.081450
 30
0.0
 10
110.734010
 20
124.552470
 30
0.0
  0
LWPOLYLINE
  5
11e
100
AcDbEntity
  8
Layer_1
 62
7
100
AcDbPolyline
 90
12
 70
1
 10
113.826300
 20
121.594630
 30
0.0
 10
113.720649
 20
122.117971
 30
0.0
 10
113.432524
 20
122.545325
 30
0.0
 10
113.005167
 20
122.833449
 30
0.0
 10
112.481820
 20
122.939100
 30
0.0
 10
111.406240
 20
122.939100
 30
0.0
 10
110.882908
 20
122.833449
 30
0.0
 10
110.455553
 20
122.545325
 30
0.0
 10
110.167424
 20
122.117971
 30
0.0
 10
110.061770
 20
121.594630
 30
0.0
 10
110.061770
 20
121.056840
 30
0.0
 10
113.826300
 20
121.056840
 30
0.0
  0
LWPOLYLINE
  5
11f
100
AcDbEntity
  8
Layer_1
 62
7
100
AcDbPolyline
 90
17
 70
1
 10
116.716920
 20
124.552470
 30
0.0
 10
116.812004
 20
124.081450
 30
0.0
 10
117.071314
 20
123.696838
 30
0.0
 10
117.455940
 20
123.437539
 30
0.0
 10
117.926970
 20
123.342460
 30
0.0
 10
118.397988
 20
123.437539
 30
0.0
 10
118.782598
 20
123.696838
 30
0.0
 10
119.041893
 20
124.081450
 30
0.0
 10
119.136970
 20
124.552470
 30
0.0
 10
119.041893
 20
125.023493
 30
0.0
 10
118.782598
 20
125.408113
 30
0.0
 10
118.397988
 20
125.667418
 30
0.0
 10
117.926970
 20
125.762500
 30
0.0
 10
117.455940
 20
125.667415
 30
0.0
 10
117.071314
 20
125.408105
 30
0.0
 10
116.812004
 20
125.023485
 30
0.0
 10
116.716920
 20
124.552470
 30
0.0
  0
LWPOLYLINE
  5
120
100
AcDbEntity
  8
Layer_1
 62
7
100
AcDbPolyline
 90
13
 70
1
 10
118.464740
 20
122.939100
 30
0.0
 10
117.389160
 20
122.939100
 30
0.0
 10
116.865813
 20
122.833449
 30
0.0
 10
116.438456
 20
122.545325
 30
0.0
 10
116.150331
 20
122.117971
 30
0.0
 10
116.044680
 20
121.594630
 30
0.0
 10
116.044680
 20
121.056840
 30
0.0
 10
119.809210
 20
121.056840
 30
0.0
 10
119.809210
 20
121.594630
 30
0.0
 10
119.703559
 20
122.117971
 30
0.0
 10
119.415435
 20
122.545325
 30
0.0
 10
118.988081
 20
122.833449
 30
0.0
 10
118.464740
 20
122.939100
 30
0.0
  0
LWPOLYLINE
  5
121
100
AcDbEntity
  8
Layer_1
 62
7
100
AcDbPolyline
 90
16
 70
1
 10
116.361310
 20
119.212350
 30
0.0
 10
115.167830
 20
119.075340
 30
0.0
 10
113.960639
 20
119.214214
 30
0.0
 10
113.166934
 20
119.523044
 30
0.0
 10
112.577020
 20
120.003830
 30
0.0
 10
112.363533
 20
120.144639
 30
0.0
 10
112.112650
 20
120.094430
 30
0.0
 10
111.969510
 20
119.880686
 30
0.0
 10
112.019450
 20
119.628310
 30
0.0
 10
112.741801
 20
118.996945
 30
0.0
 10
113.708203
 20
118.587491
 30
0.0
 10
115.167800
 20
118.403080
 30
0.0
 10
116.730080
 20
118.617400
 30
0.0
 10
117.086240
 20
118.042780
 30
0.0
 10
118.036670
 20
119.814800
 30
0.0
 10
116.026800
 20
119.752100
 30
0.0
  0
LWPOLYLINE
  5
122
100
AcDbEntity
  8
Layer_1
 62
7
100
AcDbPolyline
 90
16
 70
1
 10
113.484940
 20
127.453850
 30
0.0
 10
114.678440
 20
127.590980
 30
0.0
 10
115.885631
 20
127.452106
 30
0.0
 10
116.679338
 20
127.143275
 30
0.0
 10
117.269260
 20
126.662480
 30
0.0
 10
117.547570
 20
126.515400
 30
0.0
 10
117.733620
 20
126.571900
 30
0.0
 10
117.876756
 20
126.785646
 30
0.0
 10
117.826820
 20
127.038040
 30
0.0
 10
117.104423
 20
127.669395
 30
0.0
 10
116.138040
 20
128.078842
 30
0.0
 10
114.678460
 20
128.263250
 30
0.0
 10
113.116320
 20
128.048950
 30
0.0
 10
112.760150
 20
128.623570
 30
0.0
 10
111.809740
 20
126.851550
 30
0.0
 10
113.819460
 20
126.914250
 30
0.0
  0
LWPOLYLINE
  5
123
100
AcDbEntity
  8
Layer_1
 62
7
100
AcDbPolyline
 90
4
 70
1
 10
53.697630
 20
187.779350
 30
0.0
 10
57.177630
 20
187.779350
 30
0.0
 10
57.177630
 20
184.299350
 30
0.0
 10
53.697630
 20
184.299350
 30
0.0
  0
LWPOLYLINE
  5
124
100
AcDbEntity
  8
Layer_1
 62
7
100
AcDbPolyline
 90
4
 70
1
 10
64.928510
 20
187.779350
 30
0.0
 10
68.408510
 20
187.779350
 30
0.0
 10
68.408510
 20
184.299350
 30
0.0
 10
64.928510
 20
184.299350
 30
0.0
  0
LWPOLYLINE
  5
125
100
AcDbEntity
  8
Layer_1
 62
7
100
AcDbPolyline
 90
4
 70
1
 10
76.159360
 20
187.779350
 30
0.0
 10
79.639360
 20
187.779350
 30
0.0
 10
79.639360
 20
184.299350
 30
0.0
 10
76.159360
 20
184.299350
 30
0.0
  0
LWPOLYLINE
  5
126
100
AcDbEntity
  8
Layer_1
 62
7
100
AcDbPolyline
 90
4
 70
1
 10
81.774790
 20
187.779350
 30
0.0
 10
85.254790
 20
187.779350
 30
0.0
 10
85.254790
 20
184.299350
 30
0.0
 10
81.774790
 20
184.299350
 30
0.0
  0
LWPOLYLINE
  5
127
100
AcDbEntity
  8
Layer_1
 62
7
100
AcDbPolyline
 90
4
 70
1
 10
87.390240
 20
187.779350
 30
0.0
 10
90.870240
 20
187.779350
 30
0.0
 10
90.870240
 20
184.299350
 30
0.0
 10
87.390240
 20
184.299350
 30
0.0
  0
LWPOLYLINE
  5
128
100
AcDbEntity
  8
Layer_1
 62
7
100
AcDbPolyline
 90
4
 70
1
 10
93.005650
 20
187.779350
 30
0.0
 10
96.485650
 20
187.779350
 30
0.0
 10
96.485650
 20
184.299350
 30
0.0
 10
93.005650
 20
184.299350
 30
0.0
  0
LWPOLYLINE
  5
129
100
AcDbEntity
  8
Layer_1
 62
7
100
AcDbPolyline
 90
4
 70
1
 10
98.621090
 20
187.779350
 30
0.0
 10
102.101090
 20
187.779350
 30
0.0
 10
102.101090
 20
184.299350
 30
0.0
 10
98.621090
 20
184.299350
 30
0.0
  0
LWPOLYLINE
  5
12a
100
AcDbEntity
  8
Layer_1
 62
7
100
AcDbPolyline
 90
4
 70
1
 10
104.236540
 20
187.779350
 30
0.0
 10
107.716540
 20
187.779350
 30
0.0
 10
107.716540
 20
184.299350
 30
0.0
 10
104.236540
 20
184.299350
 30
0.0
  0
LWPOLYLINE
  5
12b
100
AcDbEntity
  8
Layer_1
 62
7
100
AcDbPolyline
 90
4
 70
1
 10
109.851970
 20
187.779350
 30
0.0
 10
113.331970
 20
187.779350
 30
0.0
 10
113.331970
 20
184.299350
 30
0.0
 10
109.851970
 20
184.299350
 30
0.0
  0
LWPOLYLINE
  5
12c
100
AcDbEntity
  8
Layer_1
 62
7
100
AcDbPolyline
 90
4
 70
1
 10
115.467400
 20
187.779350
 30
0.0
 10
118.947400
 20
187.779350
 30
0.0
 10
118.947400
 20
184.299350
 30
0.0
 10
115.467400
 20
184.299350
 30
0.0
  0
LWPOLYLINE
  5
12d
100
AcDbEntity
  8
Layer_1
 62
7
100
AcDbPolyline
 90
4
 70
1
 10
121.082830
 20
187.779350
 30
0.0
 10
124.562830
 20
187.779350
 30
0.0
 10
124.562830
 20
184.299350
 30
0.0
 10
121.082830
 20
184.299350
 30
0.0
  0
LWPOLYLINE
  5
12e
100
AcDbEntity
  8
Layer_1
 62
7
100
AcDbPolyline
 90
4
 70
1
 10
126.698250
 20
187.779350
 30
0.0
 10
130.178250
 20
187.779350
 30
0.0
 10
130.178250
 20
184.299350
 30
0.0
 10
126.698250
 20
184.299350
 30
0.0
  0
LWPOLYLINE
  5
12f
100
AcDbEntity
  8
Layer_1
 62
7
100
AcDbPolyline
 90
4
 70
1
 10
132.313670
 20
187.779350
 30
0.0
 10
135.793670
 20
187.779350
 30
0.0
 10
135.793670
 20
184.299350
 30
0.0
 10
132.313670
 20
184.299350
 30
0.0
  0
LWPOLYLINE
  5
130
100
AcDbEntity
  8
Layer_1
 62
7
100
AcDbPolyline
 90
4
 70
1
 10
137.929150
 20
187.779350
 30
0.0
 10
141.409150
 20
187.779350
 30
0.0
 10
141.409150
 20
184.299350
 30
0.0
 10
137.929150
 20
184.299350
 30
0.0
  0
LWPOLYLINE
  5
131
100
AcDbEntity
  8
Layer_1
 62
7
100
AcDbPolyline
 90
4
 70
1
 10
59.313070
 20
187.779350
 30
0.0
 10
62.793070
 20
187.779350
 30
0.0
 10
62.793070
 20
184.299350
 30
0.0
 10
59.313070
 20
184.299350
 30
0.0
  0
LWPOLYLINE
  5
132
100
AcDbEntity
  8
Layer_1
 62
7
100
AcDbPolyline
 90
4
 70
1
 10
70.543940
 20
187.779350
 30
0.0
 10
74.023940
 20
187.779350
 30
0.0
 10
74.023940
 20
184.299350
 30
0.0
 10
70.543940
 20
184.299350
 30
0.0
  0
LWPOLYLINE
  5
133
100
AcDbEntity
  8
Layer_1
 62
7
100
AcDbPolyline
 90
4
 70
1
 10
113.195490
 20
115.548150
 30
0.0
 10
116.675490
 20
115.548150
 30
0.0
 10
116.675490
 20
112.068150
 30
0.0
 10
113.195490
 20
112.068150
 30
0.0
  0
LWPOLYLINE
  5
134
100
AcDbEntity
  8
Layer_1
 62
7
100
AcDbPolyline
 90
4
 70
1
 10
95.813380
 20
115.548150
 30
0.0
 10
99.293380
 20
115.548150
 30
0.0
 10
99.293380
 20
112.068150
 30
0.0
 10
95.813380
 20
112.068150
 30
0.0
  0
LWPOLYLINE
  5
135
100
AcDbEntity
  8
Layer_1
 62
7
100
AcDbPolyline
 90
4
 70
1
 10
78.431270
 20
115.548150
 30
0.0
 10
81.911270
 20
115.548150
 30
0.0
 10
81.911270
 20
112.068150
 30
0.0
 10
78.431270
 20
112.068150
 30
0.0
  0
LWPOLYLINE
  5
136
100
AcDbEntity
  8
Layer_1
 62
7
100
AcDbPolyline
 90
4
 70
1
 10
53.250706
 20
122.185970
 30
0.0
 10
56.730706
 20
122.185970
 30
0.0
 10
56.730706
 20
118.705970
 30
0.0
 10
53.250706
 20
118.705970
 30
0.0
  0
LWPOLYLINE
  5
137
100
AcDbEntity
  8
Layer_1
 62
7
100
AcDbPolyline
 90
4
 70
1
 10
138.282500
 20
122.185970
 30
0.0
 10
141.762500
 20
122.185970
 30
0.0
 10
141.762500
 20
118.705970
 30
0.0
 10
138.282500
 20
118.705970
 30
0.0
  0
ENDSEC
  0
SECTION
  2
OBJECTS
  0
DICTIONARY
  5
C
330
0
100
AcDbDictionary
  3
ACAD_GROUP
350
D
  3
ACAD_MLINESTYLE
350
17
  0
DICTIONARY
  5
D
330
C
100
AcDbDictionary
  0
DICTIONARY
  5
1A
330
C
100
AcDbDictionary
  0
DICTIONARY
  5
17
330
C
100
AcDbDictionary
  3
STANDARD
350
18
  0
DICTIONARY
  5
19
330
C
100
AcDbDictionary
  0
ENDSEC
  0
EOF
