G04 #@! TF.GenerationSoftware,KiCad,Pcbnew,(5.0.0-rc2-199-gf785d2749)*
G04 #@! TF.CreationDate,2018-07-31T17:05:47-04:00*
G04 #@! TF.ProjectId,oshw2018badgeprototype,6F73687732303138626164676570726F,rev?*
G04 #@! TF.SameCoordinates,Original*
G04 #@! TF.FileFunction,Profile,NP*
%FSLAX46Y46*%
G04 Gerber Fmt 4.6, Leading zero omitted, Abs format (unit mm)*
G04 Created by KiCad (PCBNEW (5.0.0-rc2-199-gf785d2749)) date 07/31/18 17:05:47*
%MOMM*%
%LPD*%
G01*
G04 APERTURE LIST*
%ADD10C,0.100000*%
G04 APERTURE END LIST*
D10*
X154846860Y-136029530D02*
X154846860Y-138529530D01*
X143267710Y-136029530D02*
X143267710Y-138529530D01*
X72603646Y-136029530D02*
X72603646Y-138529530D01*
X61025003Y-136029530D02*
X61025003Y-138529530D01*
X62035336Y-140053229D02*
X61509552Y-139698894D01*
X143267710Y-136029530D02*
X143397666Y-135385693D01*
X153192710Y-134375380D02*
X153836547Y-134505401D01*
X72119088Y-134859911D02*
X72473608Y-135385693D01*
X154846860Y-138529530D02*
X154716826Y-139173287D01*
X62679173Y-134375380D02*
X62679173Y-134375380D01*
X143752014Y-139698894D02*
X143397670Y-139173287D01*
X143752003Y-134859911D02*
X144277606Y-134505401D01*
X61025003Y-136029530D02*
X61155036Y-135385693D01*
X72473608Y-135385693D02*
X72603646Y-136029530D01*
X70949463Y-140183170D02*
X62679173Y-140183170D01*
X62679173Y-140183170D02*
X62035336Y-140053229D01*
X153836547Y-134505401D02*
X154362329Y-134859911D01*
X61155036Y-135385693D02*
X61509552Y-134859911D01*
X72473608Y-139173287D02*
X72119088Y-139698894D01*
X143397666Y-135385693D02*
X143752003Y-134859911D01*
X61509552Y-134859911D02*
X62035336Y-134505401D01*
X61509552Y-139698894D02*
X61155036Y-139173287D01*
X71593302Y-140053229D02*
X70949463Y-140183170D01*
X144921360Y-140183170D02*
X144277618Y-140053229D01*
X62035336Y-134505401D02*
X62679173Y-134375380D01*
X144921360Y-134375380D02*
X153192710Y-134375380D01*
X154716826Y-139173287D02*
X154362318Y-139698894D01*
X154362329Y-134859911D02*
X154716839Y-135385693D01*
X153192710Y-140183170D02*
X144921360Y-140183170D01*
X72603646Y-138529530D02*
X72473608Y-139173287D01*
X144921360Y-134375380D02*
X144921360Y-134375380D01*
X154716839Y-135385693D02*
X154846860Y-136029530D01*
X143397670Y-139173287D02*
X143267710Y-138529530D01*
X61155036Y-139173287D02*
X61025003Y-138529530D01*
X72119088Y-139698894D02*
X71593302Y-140053229D01*
X144277606Y-134505401D02*
X144921360Y-134375380D01*
X154362318Y-139698894D02*
X153836543Y-140053229D01*
X144277618Y-140053229D02*
X143752014Y-139698894D01*
X153836543Y-140053229D02*
X153192710Y-140183170D01*
X160173791Y-79664290D02*
X158954630Y-78185439D01*
X161877080Y-85262890D02*
X161674623Y-83242623D01*
X158954630Y-139511464D02*
X160173791Y-138032616D01*
X157475781Y-140730624D02*
X158954630Y-139511464D01*
X58395042Y-140730624D02*
X60093971Y-141650490D01*
X61973374Y-142231454D02*
X63993643Y-142433910D01*
X58395042Y-76966274D02*
X56916193Y-78185439D01*
X155776852Y-141650490D02*
X157475781Y-140730624D01*
X151877180Y-142433910D02*
X153897449Y-142231454D01*
X63993643Y-142433910D02*
X151877180Y-142433910D01*
X60093971Y-141650490D02*
X61973374Y-142231454D01*
X61973374Y-75465437D02*
X60093971Y-76046405D01*
X54777165Y-136333686D02*
X55697032Y-138032616D01*
X56916193Y-78185439D02*
X55697032Y-79664290D01*
X63993643Y-75262980D02*
X61973374Y-75465437D01*
X153897449Y-142231454D02*
X155776852Y-141650490D01*
X55697032Y-138032616D02*
X56916193Y-139511464D01*
X60093971Y-76046405D02*
X58395042Y-76966274D01*
X161674623Y-83242623D02*
X161093658Y-81363221D01*
X54777165Y-81363221D02*
X54196200Y-83242623D01*
X155776852Y-76046405D02*
X153897449Y-75465437D01*
X53970000Y-132410000D02*
X54196200Y-134454282D01*
X161093658Y-136333686D02*
X161674623Y-134454282D01*
X160173791Y-138032616D02*
X161093658Y-136333686D01*
X161970000Y-132410000D02*
X161877080Y-85262890D01*
X56916193Y-139511464D02*
X58395042Y-140730624D01*
X62679173Y-134375380D02*
X70949463Y-134375380D01*
X151877180Y-75262980D02*
X63993643Y-75262980D01*
X54196200Y-134454282D02*
X54777165Y-136333686D01*
X157475781Y-76966274D02*
X155776852Y-76046405D01*
X70949463Y-134375380D02*
X71593302Y-134505401D01*
X161674623Y-134454282D02*
X161970000Y-132410000D01*
X53993743Y-85262890D02*
X53970000Y-132410000D01*
X54196200Y-83242623D02*
X53993743Y-85262890D01*
X55697032Y-79664290D02*
X54777165Y-81363221D01*
X71593302Y-134505401D02*
X72119088Y-134859911D01*
X153897449Y-75465437D02*
X151877180Y-75262980D01*
X161093658Y-81363221D02*
X160173791Y-79664290D01*
X158954630Y-78185439D02*
X157475781Y-76966274D01*
M02*
