  0
SECTION
  2
HEADER
  9
$ANGBASE
  50
0.0
  9
$ANGDIR
  70
  1
  9
$MEASUREMENT
  70
0
  0
ENDSEC
  0
SECTION
  2
TABLES
  0
TABLE
  2
LTYPE
  70
4
  0
LTYPE
  5
40F
  2
CONTINUOUS
  70
0
  3
Solid line
  72
65
  73
0
  40
0.0
  0
LTYPE
  5
410
  2
DASHDOT
 70
0
  3
Dash Dot ____ _ ____ _
 72
65
 73
4
 40
2.0
 49
1.25
 49
-0.25
 49
0.25
 49
-0.25
  0
LTYPE
  5
411
  2
DASHED
 70
0
  3
Dashed __ __ __ __ __
 72
65
 73
2
 40
0.75
 49
0.5
 49
-0.25
  0
LTYPE
  5
43B
  2
DOTTED
 70
0
  3
Dotted .  .  .  .
 72
65
 73
2
 40
0.2
 49
0.0
 49
-0.2
  0
ENDTAB
  0
TABLE
  2
STYLE
  70
4
  0
STYLE
  2
KICAD
  70
0
  40
0
  41
1
  42
1
  50
0
  71
0
  3
isocp.shx
  0
STYLE
  2
KICADB
  70
0
  40
0
  41
1
  42
1
  50
0
  71
0
  3
isocp.shx
  0
STYLE
  2
KICADI
  70
0
  40
0
  41
1
  42
1
  50
15
  71
0
  3
isocp.shx
  0
STYLE
  2
KICADBI
  70
0
  40
0
  41
1
  42
1
  50
15
  71
0
  3
isocp.shx
  0
ENDTAB
  0
TABLE
  2
LAYER
  70
30
  0
LAYER
  2
BLACK
  70
0
  62
7
  6
CONTINUOUS
  0
LAYER
  2
GRAY1
  70
0
  62
251
  6
CONTINUOUS
  0
LAYER
  2
GRAY2
  70
0
  62
8
  6
CONTINUOUS
  0
LAYER
  2
GRAY3
  70
0
  62
9
  6
CONTINUOUS
  0
LAYER
  2
WHITE
  70
0
  62
7
  6
CONTINUOUS
  0
LAYER
  2
LYELLOW
  70
0
  62
51
  6
CONTINUOUS
  0
LAYER
  2
BLUE1
  70
0
  62
178
  6
CONTINUOUS
  0
LAYER
  2
GREEN1
  70
0
  62
98
  6
CONTINUOUS
  0
LAYER
  2
CYAN1
  70
0
  62
138
  6
CONTINUOUS
  0
LAYER
  2
RED1
  70
0
  62
18
  6
CONTINUOUS
  0
LAYER
  2
MAGENTA1
  70
0
  62
228
  6
CONTINUOUS
  0
LAYER
  2
BROWN1
  70
0
  62
58
  6
CONTINUOUS
  0
LAYER
  2
BLUE2
  70
0
  62
5
  6
CONTINUOUS
  0
LAYER
  2
GREEN2
  70
0
  62
3
  6
CONTINUOUS
  0
LAYER
  2
CYAN2
  70
0
  62
4
  6
CONTINUOUS
  0
LAYER
  2
RED2
  70
0
  62
1
  6
CONTINUOUS
  0
LAYER
  2
MAGENTA2
  70
0
  62
6
  6
CONTINUOUS
  0
LAYER
  2
BROWN2
  70
0
  62
54
  6
CONTINUOUS
  0
LAYER
  2
BLUE3
  70
0
  62
171
  6
CONTINUOUS
  0
LAYER
  2
GREEN3
  70
0
  62
91
  6
CONTINUOUS
  0
LAYER
  2
CYAN3
  70
0
  62
131
  6
CONTINUOUS
  0
LAYER
  2
RED3
  70
0
  62
11
  6
CONTINUOUS
  0
LAYER
  2
MAGENTA3
  70
0
  62
221
  6
CONTINUOUS
  0
LAYER
  2
YELLOW3
  70
0
  62
2
  6
CONTINUOUS
  0
LAYER
  2
BLUE4
  70
0
  62
5
  6
CONTINUOUS
  0
LAYER
  2
GREEN4
  70
0
  62
3
  6
CONTINUOUS
  0
LAYER
  2
CYAN4
  70
0
  62
4
  6
CONTINUOUS
  0
LAYER
  2
RED4
  70
0
  62
1
  6
CONTINUOUS
  0
LAYER
  2
MAGENTA4
  70
0
  62
6
  6
CONTINUOUS
  0
LAYER
  2
YELLOW4
  70
0
  62
2
  6
CONTINUOUS
  0
ENDTAB
  0
ENDSEC
  0
SECTION
  2
ENTITIES
0
LINE
8
BLACK
6
CONTINUOUS
10
151.88
20
-75.213
11
151.882
21
-75.213
0
LINE
8
BLACK
6
CONTINUOUS
10
151.882
20
-75.213
11
151.884
21
-75.2134
0
LINE
8
BLACK
6
CONTINUOUS
10
151.884
20
-75.2134
11
153.894
21
-75.4149
0
LINE
8
BLACK
6
CONTINUOUS
10
153.894
20
-75.4149
11
153.895
21
-75.4147
0
LINE
8
BLACK
6
CONTINUOUS
10
153.895
20
-75.4147
11
153.903
21
-75.4157
0
LINE
8
BLACK
6
CONTINUOUS
10
153.903
20
-75.4157
11
153.907
21
-75.4161
0
LINE
8
BLACK
6
CONTINUOUS
10
153.907
20
-75.4161
11
153.907
21
-75.4163
0
LINE
8
BLACK
6
CONTINUOUS
10
153.907
20
-75.4163
11
153.908
21
-75.4164
0
LINE
8
BLACK
6
CONTINUOUS
10
153.908
20
-75.4164
11
153.912
21
-75.4175
0
LINE
8
BLACK
6
CONTINUOUS
10
153.912
20
-75.4175
11
153.919
21
-75.4197
0
LINE
8
BLACK
6
CONTINUOUS
10
153.919
20
-75.4197
11
153.92
21
-75.4201
0
LINE
8
BLACK
6
CONTINUOUS
10
153.92
20
-75.4201
11
155.784
21
-75.9962
0
LINE
8
BLACK
6
CONTINUOUS
10
155.784
20
-75.9962
11
155.784
21
-75.9962
0
LINE
8
BLACK
6
CONTINUOUS
10
155.784
20
-75.9962
11
155.792
21
-75.9988
0
LINE
8
BLACK
6
CONTINUOUS
10
155.792
20
-75.9988
11
155.796
21
-75.9999
0
LINE
8
BLACK
6
CONTINUOUS
10
155.796
20
-75.9999
11
155.796
21
-76.0002
0
LINE
8
BLACK
6
CONTINUOUS
10
155.796
20
-76.0002
11
155.797
21
-76.0004
0
LINE
8
BLACK
6
CONTINUOUS
10
155.797
20
-76.0004
11
155.8
21
-76.0022
0
LINE
8
BLACK
6
CONTINUOUS
10
155.8
20
-76.0022
11
155.808
21
-76.006
0
LINE
8
BLACK
6
CONTINUOUS
10
155.808
20
-76.006
11
155.808
21
-76.0064
0
LINE
8
BLACK
6
CONTINUOUS
10
155.808
20
-76.0064
11
157.492
21
-76.9183
0
LINE
8
BLACK
6
CONTINUOUS
10
157.492
20
-76.9183
11
157.493
21
-76.9184
0
LINE
8
BLACK
6
CONTINUOUS
10
157.493
20
-76.9184
11
157.5
21
-76.9225
0
LINE
8
BLACK
6
CONTINUOUS
10
157.5
20
-76.9225
11
157.503
21
-76.9244
0
LINE
8
BLACK
6
CONTINUOUS
10
157.503
20
-76.9244
11
157.504
21
-76.9247
0
LINE
8
BLACK
6
CONTINUOUS
10
157.504
20
-76.9247
11
157.504
21
-76.9249
0
LINE
8
BLACK
6
CONTINUOUS
10
157.504
20
-76.9249
11
157.507
21
-76.9274
0
LINE
8
BLACK
6
CONTINUOUS
10
157.507
20
-76.9274
11
157.514
21
-76.9326
0
LINE
8
BLACK
6
CONTINUOUS
10
157.514
20
-76.9326
11
157.514
21
-76.933
0
LINE
8
BLACK
6
CONTINUOUS
10
157.514
20
-76.933
11
158.98
21
-78.1415
0
LINE
8
BLACK
6
CONTINUOUS
10
158.98
20
-78.1415
11
158.98
21
-78.1417
0
LINE
8
BLACK
6
CONTINUOUS
10
158.98
20
-78.1417
11
158.987
21
-78.1471
0
LINE
8
BLACK
6
CONTINUOUS
10
158.987
20
-78.1471
11
158.99
21
-78.1496
0
LINE
8
BLACK
6
CONTINUOUS
10
158.99
20
-78.1496
11
158.99
21
-78.15
0
LINE
8
BLACK
6
CONTINUOUS
10
158.99
20
-78.15
11
158.99
21
-78.1503
0
LINE
8
BLACK
6
CONTINUOUS
10
158.99
20
-78.1503
11
158.993
21
-78.1533
0
LINE
8
BLACK
6
CONTINUOUS
10
158.993
20
-78.1533
11
158.998
21
-78.1597
0
LINE
8
BLACK
6
CONTINUOUS
10
158.998
20
-78.1597
11
158.999
21
-78.1601
0
LINE
8
BLACK
6
CONTINUOUS
10
158.999
20
-78.1601
11
160.207
21
-79.6261
0
LINE
8
BLACK
6
CONTINUOUS
10
160.207
20
-79.6261
11
160.207
21
-79.6263
0
LINE
8
BLACK
6
CONTINUOUS
10
160.207
20
-79.6263
11
160.213
21
-79.6328
0
LINE
8
BLACK
6
CONTINUOUS
10
160.213
20
-79.6328
11
160.215
21
-79.6359
0
LINE
8
BLACK
6
CONTINUOUS
10
160.215
20
-79.6359
11
160.215
21
-79.6363
0
LINE
8
BLACK
6
CONTINUOUS
10
160.215
20
-79.6363
11
160.216
21
-79.6366
0
LINE
8
BLACK
6
CONTINUOUS
10
160.216
20
-79.6366
11
160.218
21
-79.6401
0
LINE
8
BLACK
6
CONTINUOUS
10
160.218
20
-79.6401
11
160.222
21
-79.6473
0
LINE
8
BLACK
6
CONTINUOUS
10
160.222
20
-79.6473
11
160.222
21
-79.6478
0
LINE
8
BLACK
6
CONTINUOUS
10
160.222
20
-79.6478
11
161.134
21
-81.3322
0
LINE
8
BLACK
6
CONTINUOUS
10
161.134
20
-81.3322
11
161.134
21
-81.3325
0
LINE
8
BLACK
6
CONTINUOUS
10
161.134
20
-81.3325
11
161.138
21
-81.3399
0
LINE
8
BLACK
6
CONTINUOUS
10
161.138
20
-81.3399
11
161.14
21
-81.3433
0
LINE
8
BLACK
6
CONTINUOUS
10
161.14
20
-81.3433
11
161.14
21
-81.3438
0
LINE
8
BLACK
6
CONTINUOUS
10
161.14
20
-81.3438
11
161.14
21
-81.3443
0
LINE
8
BLACK
6
CONTINUOUS
10
161.14
20
-81.3443
11
161.141
21
-81.3479
0
LINE
8
BLACK
6
CONTINUOUS
10
161.141
20
-81.3479
11
161.144
21
-81.3558
0
LINE
8
BLACK
6
CONTINUOUS
10
161.144
20
-81.3558
11
161.144
21
-81.3563
0
LINE
8
BLACK
6
CONTINUOUS
10
161.144
20
-81.3563
11
161.72
21
-83.2201
0
LINE
8
BLACK
6
CONTINUOUS
10
161.72
20
-83.2201
11
161.72
21
-83.2206
0
LINE
8
BLACK
6
CONTINUOUS
10
161.72
20
-83.2206
11
161.723
21
-83.2284
0
LINE
8
BLACK
6
CONTINUOUS
10
161.723
20
-83.2284
11
161.724
21
-83.232
0
LINE
8
BLACK
6
CONTINUOUS
10
161.724
20
-83.232
11
161.724
21
-83.2327
0
LINE
8
BLACK
6
CONTINUOUS
10
161.724
20
-83.2327
11
161.724
21
-83.2333
0
LINE
8
BLACK
6
CONTINUOUS
10
161.724
20
-83.2333
11
161.724
21
-83.237
0
LINE
8
BLACK
6
CONTINUOUS
10
161.724
20
-83.237
11
161.725
21
-83.2451
0
LINE
8
BLACK
6
CONTINUOUS
10
161.725
20
-83.2451
11
161.725
21
-83.2458
0
LINE
8
BLACK
6
CONTINUOUS
10
161.725
20
-83.2458
11
161.927
21
-85.256
0
LINE
8
BLACK
6
CONTINUOUS
10
161.927
20
-85.256
11
161.927
21
-85.2584
0
LINE
8
BLACK
6
CONTINUOUS
10
161.927
20
-85.2584
11
161.927
21
-85.2603
0
LINE
8
BLACK
6
CONTINUOUS
10
161.927
20
-85.2603
11
161.927
21
-85.2623
0
LINE
8
BLACK
6
CONTINUOUS
10
161.927
20
-85.2623
11
161.927
21
-85.2647
0
LINE
8
BLACK
6
CONTINUOUS
10
161.927
20
-85.2647
11
162.02
21
-132.409
0
LINE
8
BLACK
6
CONTINUOUS
10
162.02
20
-132.409
11
162.02
21
-132.413
0
LINE
8
BLACK
6
CONTINUOUS
10
162.02
20
-132.413
11
162.02
21
-132.414
0
LINE
8
BLACK
6
CONTINUOUS
10
162.02
20
-132.414
11
162.02
21
-132.414
0
LINE
8
BLACK
6
CONTINUOUS
10
162.02
20
-132.414
11
162.019
21
-132.418
0
LINE
8
BLACK
6
CONTINUOUS
10
162.019
20
-132.418
11
161.724
21
-134.461
0
LINE
8
BLACK
6
CONTINUOUS
10
161.724
20
-134.461
11
161.724
21
-134.465
0
LINE
8
BLACK
6
CONTINUOUS
10
161.724
20
-134.465
11
161.724
21
-134.465
0
LINE
8
BLACK
6
CONTINUOUS
10
161.724
20
-134.465
11
161.723
21
-134.466
0
LINE
8
BLACK
6
CONTINUOUS
10
161.723
20
-134.466
11
161.722
21
-134.469
0
LINE
8
BLACK
6
CONTINUOUS
10
161.722
20
-134.469
11
161.144
21
-136.341
0
LINE
8
BLACK
6
CONTINUOUS
10
161.144
20
-136.341
11
161.144
21
-136.341
0
LINE
8
BLACK
6
CONTINUOUS
10
161.144
20
-136.341
11
161.141
21
-136.349
0
LINE
8
BLACK
6
CONTINUOUS
10
161.141
20
-136.349
11
161.14
21
-136.353
0
LINE
8
BLACK
6
CONTINUOUS
10
161.14
20
-136.353
11
161.14
21
-136.353
0
LINE
8
BLACK
6
CONTINUOUS
10
161.14
20
-136.353
11
161.14
21
-136.354
0
LINE
8
BLACK
6
CONTINUOUS
10
161.14
20
-136.354
11
161.138
21
-136.357
0
LINE
8
BLACK
6
CONTINUOUS
10
161.138
20
-136.357
11
161.134
21
-136.364
0
LINE
8
BLACK
6
CONTINUOUS
10
161.134
20
-136.364
11
161.134
21
-136.365
0
LINE
8
BLACK
6
CONTINUOUS
10
161.134
20
-136.365
11
160.222
21
-138.049
0
LINE
8
BLACK
6
CONTINUOUS
10
160.222
20
-138.049
11
160.222
21
-138.05
0
LINE
8
BLACK
6
CONTINUOUS
10
160.222
20
-138.05
11
160.218
21
-138.057
0
LINE
8
BLACK
6
CONTINUOUS
10
160.218
20
-138.057
11
160.216
21
-138.06
0
LINE
8
BLACK
6
CONTINUOUS
10
160.216
20
-138.06
11
160.215
21
-138.061
0
LINE
8
BLACK
6
CONTINUOUS
10
160.215
20
-138.061
11
160.215
21
-138.061
0
LINE
8
BLACK
6
CONTINUOUS
10
160.215
20
-138.061
11
160.213
21
-138.064
0
LINE
8
BLACK
6
CONTINUOUS
10
160.213
20
-138.064
11
160.207
21
-138.071
0
LINE
8
BLACK
6
CONTINUOUS
10
160.207
20
-138.071
11
160.207
21
-138.071
0
LINE
8
BLACK
6
CONTINUOUS
10
160.207
20
-138.071
11
158.999
21
-139.537
0
LINE
8
BLACK
6
CONTINUOUS
10
158.999
20
-139.537
11
158.998
21
-139.537
0
LINE
8
BLACK
6
CONTINUOUS
10
158.998
20
-139.537
11
158.993
21
-139.544
0
LINE
8
BLACK
6
CONTINUOUS
10
158.993
20
-139.544
11
158.99
21
-139.547
0
LINE
8
BLACK
6
CONTINUOUS
10
158.99
20
-139.547
11
158.99
21
-139.547
0
LINE
8
BLACK
6
CONTINUOUS
10
158.99
20
-139.547
11
158.99
21
-139.547
0
LINE
8
BLACK
6
CONTINUOUS
10
158.99
20
-139.547
11
158.987
21
-139.55
0
LINE
8
BLACK
6
CONTINUOUS
10
158.987
20
-139.55
11
158.98
21
-139.555
0
LINE
8
BLACK
6
CONTINUOUS
10
158.98
20
-139.555
11
158.98
21
-139.555
0
LINE
8
BLACK
6
CONTINUOUS
10
158.98
20
-139.555
11
157.514
21
-140.764
0
LINE
8
BLACK
6
CONTINUOUS
10
157.514
20
-140.764
11
157.514
21
-140.764
0
LINE
8
BLACK
6
CONTINUOUS
10
157.514
20
-140.764
11
157.507
21
-140.77
0
LINE
8
BLACK
6
CONTINUOUS
10
157.507
20
-140.77
11
157.504
21
-140.772
0
LINE
8
BLACK
6
CONTINUOUS
10
157.504
20
-140.772
11
157.504
21
-140.772
0
LINE
8
BLACK
6
CONTINUOUS
10
157.504
20
-140.772
11
157.503
21
-140.773
0
LINE
8
BLACK
6
CONTINUOUS
10
157.503
20
-140.773
11
157.5
21
-140.774
0
LINE
8
BLACK
6
CONTINUOUS
10
157.5
20
-140.774
11
157.493
21
-140.778
0
LINE
8
BLACK
6
CONTINUOUS
10
157.493
20
-140.778
11
157.492
21
-140.779
0
LINE
8
BLACK
6
CONTINUOUS
10
157.492
20
-140.779
11
155.808
21
-141.691
0
LINE
8
BLACK
6
CONTINUOUS
10
155.808
20
-141.691
11
155.808
21
-141.691
0
LINE
8
BLACK
6
CONTINUOUS
10
155.808
20
-141.691
11
155.8
21
-141.695
0
LINE
8
BLACK
6
CONTINUOUS
10
155.8
20
-141.695
11
155.797
21
-141.697
0
LINE
8
BLACK
6
CONTINUOUS
10
155.797
20
-141.697
11
155.796
21
-141.697
0
LINE
8
BLACK
6
CONTINUOUS
10
155.796
20
-141.697
11
155.796
21
-141.697
0
LINE
8
BLACK
6
CONTINUOUS
10
155.796
20
-141.697
11
155.792
21
-141.698
0
LINE
8
BLACK
6
CONTINUOUS
10
155.792
20
-141.698
11
155.784
21
-141.701
0
LINE
8
BLACK
6
CONTINUOUS
10
155.784
20
-141.701
11
155.784
21
-141.701
0
LINE
8
BLACK
6
CONTINUOUS
10
155.784
20
-141.701
11
153.92
21
-142.277
0
LINE
8
BLACK
6
CONTINUOUS
10
153.92
20
-142.277
11
153.919
21
-142.277
0
LINE
8
BLACK
6
CONTINUOUS
10
153.919
20
-142.277
11
153.912
21
-142.279
0
LINE
8
BLACK
6
CONTINUOUS
10
153.912
20
-142.279
11
153.908
21
-142.281
0
LINE
8
BLACK
6
CONTINUOUS
10
153.908
20
-142.281
11
153.907
21
-142.281
0
LINE
8
BLACK
6
CONTINUOUS
10
153.907
20
-142.281
11
153.907
21
-142.281
0
LINE
8
BLACK
6
CONTINUOUS
10
153.907
20
-142.281
11
153.903
21
-142.281
0
LINE
8
BLACK
6
CONTINUOUS
10
153.903
20
-142.281
11
153.895
21
-142.282
0
LINE
8
BLACK
6
CONTINUOUS
10
153.895
20
-142.282
11
153.894
21
-142.282
0
LINE
8
BLACK
6
CONTINUOUS
10
153.894
20
-142.282
11
151.884
21
-142.483
0
LINE
8
BLACK
6
CONTINUOUS
10
151.884
20
-142.483
11
151.882
21
-142.484
0
LINE
8
BLACK
6
CONTINUOUS
10
151.882
20
-142.484
11
151.88
21
-142.484
0
LINE
8
BLACK
6
CONTINUOUS
10
151.88
20
-142.484
11
151.878
21
-142.484
0
LINE
8
BLACK
6
CONTINUOUS
10
151.878
20
-142.484
11
151.875
21
-142.484
0
LINE
8
BLACK
6
CONTINUOUS
10
151.875
20
-142.484
11
63.9955
21
-142.484
0
LINE
8
BLACK
6
CONTINUOUS
10
63.9955
20
-142.484
11
63.993
21
-142.484
0
LINE
8
BLACK
6
CONTINUOUS
10
63.993
20
-142.484
11
63.9912
21
-142.484
0
LINE
8
BLACK
6
CONTINUOUS
10
63.9912
20
-142.484
11
63.9893
21
-142.484
0
LINE
8
BLACK
6
CONTINUOUS
10
63.9893
20
-142.484
11
63.9868
21
-142.483
0
LINE
8
BLACK
6
CONTINUOUS
10
63.9868
20
-142.483
11
61.9765
21
-142.282
0
LINE
8
BLACK
6
CONTINUOUS
10
61.9765
20
-142.282
11
61.9759
21
-142.282
0
LINE
8
BLACK
6
CONTINUOUS
10
61.9759
20
-142.282
11
61.9678
21
-142.281
0
LINE
8
BLACK
6
CONTINUOUS
10
61.9678
20
-142.281
11
61.964
21
-142.281
0
LINE
8
BLACK
6
CONTINUOUS
10
61.964
20
-142.281
11
61.9634
21
-142.281
0
LINE
8
BLACK
6
CONTINUOUS
10
61.9634
20
-142.281
11
61.9628
21
-142.281
0
LINE
8
BLACK
6
CONTINUOUS
10
61.9628
20
-142.281
11
61.9592
21
-142.279
0
LINE
8
BLACK
6
CONTINUOUS
10
61.9592
20
-142.279
11
61.9513
21
-142.277
0
LINE
8
BLACK
6
CONTINUOUS
10
61.9513
20
-142.277
11
61.9508
21
-142.277
0
LINE
8
BLACK
6
CONTINUOUS
10
61.9508
20
-142.277
11
60.0871
21
-141.701
0
LINE
8
BLACK
6
CONTINUOUS
10
60.0871
20
-141.701
11
60.0865
21
-141.701
0
LINE
8
BLACK
6
CONTINUOUS
10
60.0865
20
-141.701
11
60.0787
21
-141.698
0
LINE
8
BLACK
6
CONTINUOUS
10
60.0787
20
-141.698
11
60.075
21
-141.697
0
LINE
8
BLACK
6
CONTINUOUS
10
60.075
20
-141.697
11
60.0745
21
-141.697
0
LINE
8
BLACK
6
CONTINUOUS
10
60.0745
20
-141.697
11
60.074
21
-141.697
0
LINE
8
BLACK
6
CONTINUOUS
10
60.074
20
-141.697
11
60.0706
21
-141.695
0
LINE
8
BLACK
6
CONTINUOUS
10
60.0706
20
-141.695
11
60.0633
21
-141.691
0
LINE
8
BLACK
6
CONTINUOUS
10
60.0633
20
-141.691
11
60.0629
21
-141.691
0
LINE
8
BLACK
6
CONTINUOUS
10
60.0629
20
-141.691
11
58.3786
21
-140.779
0
LINE
8
BLACK
6
CONTINUOUS
10
58.3786
20
-140.779
11
58.3781
21
-140.778
0
LINE
8
BLACK
6
CONTINUOUS
10
58.3781
20
-140.778
11
58.3708
21
-140.774
0
LINE
8
BLACK
6
CONTINUOUS
10
58.3708
20
-140.774
11
58.3674
21
-140.773
0
LINE
8
BLACK
6
CONTINUOUS
10
58.3674
20
-140.773
11
58.367
21
-140.772
0
LINE
8
BLACK
6
CONTINUOUS
10
58.367
20
-140.772
11
58.3666
21
-140.772
0
LINE
8
BLACK
6
CONTINUOUS
10
58.3666
20
-140.772
11
58.3636
21
-140.769
0
LINE
8
BLACK
6
CONTINUOUS
10
58.3636
20
-140.769
11
58.3571
21
-140.764
0
LINE
8
BLACK
6
CONTINUOUS
10
58.3571
20
-140.764
11
58.3568
21
-140.764
0
LINE
8
BLACK
6
CONTINUOUS
10
58.3568
20
-140.764
11
56.8908
21
-139.555
0
LINE
8
BLACK
6
CONTINUOUS
10
56.8908
20
-139.555
11
56.8904
21
-139.555
0
LINE
8
BLACK
6
CONTINUOUS
10
56.8904
20
-139.555
11
56.8841
21
-139.55
0
LINE
8
BLACK
6
CONTINUOUS
10
56.8841
20
-139.55
11
56.881
21
-139.547
0
LINE
8
BLACK
6
CONTINUOUS
10
56.881
20
-139.547
11
56.8807
21
-139.547
0
LINE
8
BLACK
6
CONTINUOUS
10
56.8807
20
-139.547
11
56.8804
21
-139.547
0
LINE
8
BLACK
6
CONTINUOUS
10
56.8804
20
-139.547
11
56.8778
21
-139.544
0
LINE
8
BLACK
6
CONTINUOUS
10
56.8778
20
-139.544
11
56.8724
21
-139.537
0
LINE
8
BLACK
6
CONTINUOUS
10
56.8724
20
-139.537
11
56.8723
21
-139.537
0
LINE
8
BLACK
6
CONTINUOUS
10
56.8723
20
-139.537
11
55.6638
21
-138.071
0
LINE
8
BLACK
6
CONTINUOUS
10
55.6638
20
-138.071
11
55.6633
21
-138.071
0
LINE
8
BLACK
6
CONTINUOUS
10
55.6633
20
-138.071
11
55.6581
21
-138.064
0
LINE
8
BLACK
6
CONTINUOUS
10
55.6581
20
-138.064
11
55.6557
21
-138.061
0
LINE
8
BLACK
6
CONTINUOUS
10
55.6557
20
-138.061
11
55.6554
21
-138.061
0
LINE
8
BLACK
6
CONTINUOUS
10
55.6554
20
-138.061
11
55.6551
21
-138.06
0
LINE
8
BLACK
6
CONTINUOUS
10
55.6551
20
-138.06
11
55.6532
21
-138.057
0
LINE
8
BLACK
6
CONTINUOUS
10
55.6532
20
-138.057
11
55.6492
21
-138.05
0
LINE
8
BLACK
6
CONTINUOUS
10
55.6492
20
-138.05
11
55.6491
21
-138.049
0
LINE
8
BLACK
6
CONTINUOUS
10
55.6491
20
-138.049
11
54.7371
21
-136.365
0
LINE
8
BLACK
6
CONTINUOUS
10
54.7371
20
-136.365
11
54.7367
21
-136.364
0
LINE
8
BLACK
6
CONTINUOUS
10
54.7367
20
-136.364
11
54.7329
21
-136.357
0
LINE
8
BLACK
6
CONTINUOUS
10
54.7329
20
-136.357
11
54.7311
21
-136.354
0
LINE
8
BLACK
6
CONTINUOUS
10
54.7311
20
-136.354
11
54.7309
21
-136.353
0
LINE
8
BLACK
6
CONTINUOUS
10
54.7309
20
-136.353
11
54.7307
21
-136.353
0
LINE
8
BLACK
6
CONTINUOUS
10
54.7307
20
-136.353
11
54.7295
21
-136.349
0
LINE
8
BLACK
6
CONTINUOUS
10
54.7295
20
-136.349
11
54.7269
21
-136.341
0
LINE
8
BLACK
6
CONTINUOUS
10
54.7269
20
-136.341
11
54.727
21
-136.341
0
LINE
8
BLACK
6
CONTINUOUS
10
54.727
20
-136.341
11
54.1509
21
-134.477
0
LINE
8
BLACK
6
CONTINUOUS
10
54.1509
20
-134.477
11
54.1507
21
-134.477
0
LINE
8
BLACK
6
CONTINUOUS
10
54.1507
20
-134.477
11
54.1483
21
-134.469
0
LINE
8
BLACK
6
CONTINUOUS
10
54.1483
20
-134.469
11
54.1471
21
-134.465
0
LINE
8
BLACK
6
CONTINUOUS
10
54.1471
20
-134.465
11
54.1471
21
-134.464
0
LINE
8
BLACK
6
CONTINUOUS
10
54.1471
20
-134.464
11
54.147
21
-134.464
0
LINE
8
BLACK
6
CONTINUOUS
10
54.147
20
-134.464
11
54.1465
21
-134.46
0
LINE
8
BLACK
6
CONTINUOUS
10
54.1465
20
-134.46
11
54.1455
21
-134.452
0
LINE
8
BLACK
6
CONTINUOUS
10
54.1455
20
-134.452
11
54.1456
21
-134.451
0
LINE
8
BLACK
6
CONTINUOUS
10
54.1456
20
-134.451
11
53.9205
21
-132.417
0
LINE
8
BLACK
6
CONTINUOUS
10
53.9205
20
-132.417
11
53.92
21
-132.414
0
LINE
8
BLACK
6
CONTINUOUS
10
53.92
20
-132.414
11
53.92
21
-132.413
0
LINE
8
BLACK
6
CONTINUOUS
10
53.92
20
-132.413
11
53.9198
21
-132.411
0
LINE
8
BLACK
6
CONTINUOUS
10
53.9198
20
-132.411
11
53.92
21
-132.408
0
LINE
8
BLACK
6
CONTINUOUS
10
53.92
20
-132.408
11
53.9437
21
-85.2647
0
LINE
8
BLACK
6
CONTINUOUS
10
53.9437
20
-85.2647
11
53.9436
21
-85.2623
0
LINE
8
BLACK
6
CONTINUOUS
10
53.9436
20
-85.2623
11
53.9437
21
-85.2604
0
LINE
8
BLACK
6
CONTINUOUS
10
53.9437
20
-85.2604
11
53.9437
21
-85.2585
0
LINE
8
BLACK
6
CONTINUOUS
10
53.9437
20
-85.2585
11
53.9442
21
-85.256
0
LINE
8
BLACK
6
CONTINUOUS
10
53.9442
20
-85.256
11
54.1456
21
-83.2458
0
LINE
8
BLACK
6
CONTINUOUS
10
54.1456
20
-83.2458
11
54.1455
21
-83.2451
0
LINE
8
BLACK
6
CONTINUOUS
10
54.1455
20
-83.2451
11
54.1465
21
-83.2371
0
LINE
8
BLACK
6
CONTINUOUS
10
54.1465
20
-83.2371
11
54.1469
21
-83.2333
0
LINE
8
BLACK
6
CONTINUOUS
10
54.1469
20
-83.2333
11
54.1471
21
-83.2327
0
LINE
8
BLACK
6
CONTINUOUS
10
54.1471
20
-83.2327
11
54.1471
21
-83.232
0
LINE
8
BLACK
6
CONTINUOUS
10
54.1471
20
-83.232
11
54.1482
21
-83.2285
0
LINE
8
BLACK
6
CONTINUOUS
10
54.1482
20
-83.2285
11
54.1505
21
-83.2206
0
LINE
8
BLACK
6
CONTINUOUS
10
54.1505
20
-83.2206
11
54.1508
21
-83.2201
0
LINE
8
BLACK
6
CONTINUOUS
10
54.1508
20
-83.2201
11
54.727
21
-81.3563
0
LINE
8
BLACK
6
CONTINUOUS
10
54.727
20
-81.3563
11
54.7269
21
-81.3558
0
LINE
8
BLACK
6
CONTINUOUS
10
54.7269
20
-81.3558
11
54.7295
21
-81.348
0
LINE
8
BLACK
6
CONTINUOUS
10
54.7295
20
-81.348
11
54.7307
21
-81.3443
0
LINE
8
BLACK
6
CONTINUOUS
10
54.7307
20
-81.3443
11
54.7309
21
-81.3438
0
LINE
8
BLACK
6
CONTINUOUS
10
54.7309
20
-81.3438
11
54.7311
21
-81.3433
0
LINE
8
BLACK
6
CONTINUOUS
10
54.7311
20
-81.3433
11
54.7329
21
-81.3399
0
LINE
8
BLACK
6
CONTINUOUS
10
54.7329
20
-81.3399
11
54.7367
21
-81.3325
0
LINE
8
BLACK
6
CONTINUOUS
10
54.7367
20
-81.3325
11
54.7371
21
-81.3322
0
LINE
8
BLACK
6
CONTINUOUS
10
54.7371
20
-81.3322
11
55.6491
21
-79.6478
0
LINE
8
BLACK
6
CONTINUOUS
10
55.6491
20
-79.6478
11
55.6492
21
-79.6473
0
LINE
8
BLACK
6
CONTINUOUS
10
55.6492
20
-79.6473
11
55.6533
21
-79.6401
0
LINE
8
BLACK
6
CONTINUOUS
10
55.6533
20
-79.6401
11
55.6551
21
-79.6366
0
LINE
8
BLACK
6
CONTINUOUS
10
55.6551
20
-79.6366
11
55.6554
21
-79.6363
0
LINE
8
BLACK
6
CONTINUOUS
10
55.6554
20
-79.6363
11
55.6557
21
-79.6359
0
LINE
8
BLACK
6
CONTINUOUS
10
55.6557
20
-79.6359
11
55.6582
21
-79.6328
0
LINE
8
BLACK
6
CONTINUOUS
10
55.6582
20
-79.6328
11
55.6633
21
-79.6263
0
LINE
8
BLACK
6
CONTINUOUS
10
55.6633
20
-79.6263
11
55.6638
21
-79.6261
0
LINE
8
BLACK
6
CONTINUOUS
10
55.6638
20
-79.6261
11
56.8723
21
-78.1601
0
LINE
8
BLACK
6
CONTINUOUS
10
56.8723
20
-78.1601
11
56.8724
21
-78.1597
0
LINE
8
BLACK
6
CONTINUOUS
10
56.8724
20
-78.1597
11
56.8778
21
-78.1534
0
LINE
8
BLACK
6
CONTINUOUS
10
56.8778
20
-78.1534
11
56.8804
21
-78.1503
0
LINE
8
BLACK
6
CONTINUOUS
10
56.8804
20
-78.1503
11
56.8807
21
-78.15
0
LINE
8
BLACK
6
CONTINUOUS
10
56.8807
20
-78.15
11
56.881
21
-78.1496
0
LINE
8
BLACK
6
CONTINUOUS
10
56.881
20
-78.1496
11
56.884
21
-78.1472
0
LINE
8
BLACK
6
CONTINUOUS
10
56.884
20
-78.1472
11
56.8904
21
-78.1417
0
LINE
8
BLACK
6
CONTINUOUS
10
56.8904
20
-78.1417
11
56.8908
21
-78.1415
0
LINE
8
BLACK
6
CONTINUOUS
10
56.8908
20
-78.1415
11
58.3568
21
-76.933
0
LINE
8
BLACK
6
CONTINUOUS
10
58.3568
20
-76.933
11
58.3571
21
-76.9326
0
LINE
8
BLACK
6
CONTINUOUS
10
58.3571
20
-76.9326
11
58.3636
21
-76.9274
0
LINE
8
BLACK
6
CONTINUOUS
10
58.3636
20
-76.9274
11
58.3666
21
-76.9249
0
LINE
8
BLACK
6
CONTINUOUS
10
58.3666
20
-76.9249
11
58.367
21
-76.9247
0
LINE
8
BLACK
6
CONTINUOUS
10
58.367
20
-76.9247
11
58.3674
21
-76.9244
0
LINE
8
BLACK
6
CONTINUOUS
10
58.3674
20
-76.9244
11
58.3708
21
-76.9225
0
LINE
8
BLACK
6
CONTINUOUS
10
58.3708
20
-76.9225
11
58.3781
21
-76.9184
0
LINE
8
BLACK
6
CONTINUOUS
10
58.3781
20
-76.9184
11
58.3786
21
-76.9183
0
LINE
8
BLACK
6
CONTINUOUS
10
58.3786
20
-76.9183
11
60.0629
21
-76.0064
0
LINE
8
BLACK
6
CONTINUOUS
10
60.0629
20
-76.0064
11
60.0633
21
-76.006
0
LINE
8
BLACK
6
CONTINUOUS
10
60.0633
20
-76.006
11
60.0706
21
-76.0022
0
LINE
8
BLACK
6
CONTINUOUS
10
60.0706
20
-76.0022
11
60.074
21
-76.0004
0
LINE
8
BLACK
6
CONTINUOUS
10
60.074
20
-76.0004
11
60.0745
21
-76.0002
0
LINE
8
BLACK
6
CONTINUOUS
10
60.0745
20
-76.0002
11
60.075
21
-75.9999
0
LINE
8
BLACK
6
CONTINUOUS
10
60.075
20
-75.9999
11
60.0787
21
-75.9988
0
LINE
8
BLACK
6
CONTINUOUS
10
60.0787
20
-75.9988
11
60.0865
21
-75.9962
0
LINE
8
BLACK
6
CONTINUOUS
10
60.0865
20
-75.9962
11
60.0871
21
-75.9962
0
LINE
8
BLACK
6
CONTINUOUS
10
60.0871
20
-75.9962
11
61.9508
21
-75.4201
0
LINE
8
BLACK
6
CONTINUOUS
10
61.9508
20
-75.4201
11
61.9513
21
-75.4197
0
LINE
8
BLACK
6
CONTINUOUS
10
61.9513
20
-75.4197
11
61.9592
21
-75.4175
0
LINE
8
BLACK
6
CONTINUOUS
10
61.9592
20
-75.4175
11
61.9628
21
-75.4164
0
LINE
8
BLACK
6
CONTINUOUS
10
61.9628
20
-75.4164
11
61.9634
21
-75.4163
0
LINE
8
BLACK
6
CONTINUOUS
10
61.9634
20
-75.4163
11
61.964
21
-75.4161
0
LINE
8
BLACK
6
CONTINUOUS
10
61.964
20
-75.4161
11
61.9678
21
-75.4158
0
LINE
8
BLACK
6
CONTINUOUS
10
61.9678
20
-75.4158
11
61.9759
21
-75.4147
0
LINE
8
BLACK
6
CONTINUOUS
10
61.9759
20
-75.4147
11
61.9765
21
-75.4149
0
LINE
8
BLACK
6
CONTINUOUS
10
61.9765
20
-75.4149
11
63.9868
21
-75.2134
0
LINE
8
BLACK
6
CONTINUOUS
10
63.9868
20
-75.2134
11
63.9893
21
-75.213
0
LINE
8
BLACK
6
CONTINUOUS
10
63.9893
20
-75.213
11
63.9912
21
-75.213
0
LINE
8
BLACK
6
CONTINUOUS
10
63.9912
20
-75.213
11
63.993
21
-75.2128
0
LINE
8
BLACK
6
CONTINUOUS
10
63.993
20
-75.2128
11
63.9955
21
-75.213
0
LINE
8
BLACK
6
CONTINUOUS
10
63.9955
20
-75.213
11
151.875
21
-75.213
0
LINE
8
BLACK
6
CONTINUOUS
10
151.875
20
-75.213
11
151.878
21
-75.2128
0
LINE
8
BLACK
6
CONTINUOUS
10
151.878
20
-75.2128
11
151.88
21
-75.213
0
LINE
8
BLACK
6
CONTINUOUS
10
63.9961
20
-75.313
11
61.9834
21
-75.5147
0
LINE
8
BLACK
6
CONTINUOUS
10
61.9834
20
-75.5147
11
60.1135
21
-76.0927
0
LINE
8
BLACK
6
CONTINUOUS
10
60.1135
20
-76.0927
11
58.4231
21
-77.0079
0
LINE
8
BLACK
6
CONTINUOUS
10
58.4231
20
-77.0079
11
56.9517
21
-78.221
0
LINE
8
BLACK
6
CONTINUOUS
10
56.9517
20
-78.221
11
55.7387
21
-79.6924
0
LINE
8
BLACK
6
CONTINUOUS
10
55.7387
20
-79.6924
11
54.8235
21
-81.3827
0
LINE
8
BLACK
6
CONTINUOUS
10
54.8235
20
-81.3827
11
54.2454
21
-83.2526
0
LINE
8
BLACK
6
CONTINUOUS
10
54.2454
20
-83.2526
11
54.0437
21
-85.2654
0
LINE
8
BLACK
6
CONTINUOUS
10
54.0437
20
-85.2654
11
54.02
21
-132.407
0
LINE
8
BLACK
6
CONTINUOUS
10
54.02
20
-132.407
11
54.2454
21
-134.444
0
LINE
8
BLACK
6
CONTINUOUS
10
54.2454
20
-134.444
11
54.8235
21
-136.314
0
LINE
8
BLACK
6
CONTINUOUS
10
54.8235
20
-136.314
11
55.7387
21
-138.005
0
LINE
8
BLACK
6
CONTINUOUS
10
55.7387
20
-138.005
11
56.9517
21
-139.476
0
LINE
8
BLACK
6
CONTINUOUS
10
56.9517
20
-139.476
11
58.4231
21
-140.689
0
LINE
8
BLACK
6
CONTINUOUS
10
58.4231
20
-140.689
11
60.1135
21
-141.604
0
LINE
8
BLACK
6
CONTINUOUS
10
60.1135
20
-141.604
11
61.9834
21
-142.182
0
LINE
8
BLACK
6
CONTINUOUS
10
61.9834
20
-142.182
11
63.9961
21
-142.384
0
LINE
8
BLACK
6
CONTINUOUS
10
63.9961
20
-142.384
11
151.875
21
-142.384
0
LINE
8
BLACK
6
CONTINUOUS
10
151.875
20
-142.384
11
153.887
21
-142.182
0
LINE
8
BLACK
6
CONTINUOUS
10
153.887
20
-142.182
11
155.757
21
-141.604
0
LINE
8
BLACK
6
CONTINUOUS
10
155.757
20
-141.604
11
157.448
21
-140.689
0
LINE
8
BLACK
6
CONTINUOUS
10
157.448
20
-140.689
11
158.919
21
-139.476
0
LINE
8
BLACK
6
CONTINUOUS
10
158.919
20
-139.476
11
160.132
21
-138.005
0
LINE
8
BLACK
6
CONTINUOUS
10
160.132
20
-138.005
11
161.047
21
-136.314
0
LINE
8
BLACK
6
CONTINUOUS
10
161.047
20
-136.314
11
161.626
21
-134.443
0
LINE
8
BLACK
6
CONTINUOUS
10
161.626
20
-134.443
11
161.92
21
-132.406
0
LINE
8
BLACK
6
CONTINUOUS
10
161.92
20
-132.406
11
161.827
21
-85.2654
0
LINE
8
BLACK
6
CONTINUOUS
10
161.827
20
-85.2654
11
161.625
21
-83.2526
0
LINE
8
BLACK
6
CONTINUOUS
10
161.625
20
-83.2526
11
161.047
21
-81.3827
0
LINE
8
BLACK
6
CONTINUOUS
10
161.047
20
-81.3827
11
160.132
21
-79.6924
0
LINE
8
BLACK
6
CONTINUOUS
10
160.132
20
-79.6924
11
158.919
21
-78.221
0
LINE
8
BLACK
6
CONTINUOUS
10
158.919
20
-78.221
11
157.448
21
-77.0079
0
LINE
8
BLACK
6
CONTINUOUS
10
157.448
20
-77.0079
11
155.757
21
-76.0927
0
LINE
8
BLACK
6
CONTINUOUS
10
155.757
20
-76.0927
11
153.887
21
-75.5147
0
LINE
8
BLACK
6
CONTINUOUS
10
153.887
20
-75.5147
11
151.875
21
-75.313
0
LINE
8
BLACK
6
CONTINUOUS
10
151.875
20
-75.313
11
63.9961
21
-75.313
0
LINE
8
BLACK
6
CONTINUOUS
10
70.9501
20
-134.325
11
70.9538
21
-134.325
0
LINE
8
BLACK
6
CONTINUOUS
10
70.9538
20
-134.325
11
70.9545
21
-134.325
0
LINE
8
BLACK
6
CONTINUOUS
10
70.9545
20
-134.325
11
70.9551
21
-134.326
0
LINE
8
BLACK
6
CONTINUOUS
10
70.9551
20
-134.326
11
70.9588
21
-134.326
0
LINE
8
BLACK
6
CONTINUOUS
10
70.9588
20
-134.326
11
70.9668
21
-134.328
0
LINE
8
BLACK
6
CONTINUOUS
10
70.9668
20
-134.328
11
70.9674
21
-134.328
0
LINE
8
BLACK
6
CONTINUOUS
10
70.9674
20
-134.328
11
71.6
21
-134.456
0
LINE
8
BLACK
6
CONTINUOUS
10
71.6
20
-134.456
11
71.6056
21
-134.456
0
LINE
8
BLACK
6
CONTINUOUS
10
71.6056
20
-134.456
11
71.6126
21
-134.459
0
LINE
8
BLACK
6
CONTINUOUS
10
71.6126
20
-134.459
11
71.6198
21
-134.462
0
LINE
8
BLACK
6
CONTINUOUS
10
71.6198
20
-134.462
11
71.6239
21
-134.466
0
LINE
8
BLACK
6
CONTINUOUS
10
71.6239
20
-134.466
11
72.1442
21
-134.817
0
LINE
8
BLACK
6
CONTINUOUS
10
72.1442
20
-134.817
11
72.1489
21
-134.819
0
LINE
8
BLACK
6
CONTINUOUS
10
72.1489
20
-134.819
11
72.1544
21
-134.825
0
LINE
8
BLACK
6
CONTINUOUS
10
72.1544
20
-134.825
11
72.1602
21
-134.83
0
LINE
8
BLACK
6
CONTINUOUS
10
72.1602
20
-134.83
11
72.1625
21
-134.835
0
LINE
8
BLACK
6
CONTINUOUS
10
72.1625
20
-134.835
11
72.5133
21
-135.355
0
LINE
8
BLACK
6
CONTINUOUS
10
72.5133
20
-135.355
11
72.5169
21
-135.359
0
LINE
8
BLACK
6
CONTINUOUS
10
72.5169
20
-135.359
11
72.5197
21
-135.366
0
LINE
8
BLACK
6
CONTINUOUS
10
72.5197
20
-135.366
11
72.5229
21
-135.373
0
LINE
8
BLACK
6
CONTINUOUS
10
72.5229
20
-135.373
11
72.5233
21
-135.379
0
LINE
8
BLACK
6
CONTINUOUS
10
72.5233
20
-135.379
11
72.651
21
-136.012
0
LINE
8
BLACK
6
CONTINUOUS
10
72.651
20
-136.012
11
72.6514
21
-136.012
0
LINE
8
BLACK
6
CONTINUOUS
10
72.6514
20
-136.012
11
72.6528
21
-136.02
0
LINE
8
BLACK
6
CONTINUOUS
10
72.6528
20
-136.02
11
72.6535
21
-136.024
0
LINE
8
BLACK
6
CONTINUOUS
10
72.6535
20
-136.024
11
72.6535
21
-136.025
0
LINE
8
BLACK
6
CONTINUOUS
10
72.6535
20
-136.025
11
72.6536
21
-136.025
0
LINE
8
BLACK
6
CONTINUOUS
10
72.6536
20
-136.025
11
72.6536
21
-136.029
0
LINE
8
BLACK
6
CONTINUOUS
10
72.6536
20
-136.029
11
72.6538
21
-136.037
0
LINE
8
BLACK
6
CONTINUOUS
10
72.6538
20
-136.037
11
72.6536
21
-136.038
0
LINE
8
BLACK
6
CONTINUOUS
10
72.6536
20
-136.038
11
72.6536
21
-138.521
0
LINE
8
BLACK
6
CONTINUOUS
10
72.6536
20
-138.521
11
72.6538
21
-138.522
0
LINE
8
BLACK
6
CONTINUOUS
10
72.6538
20
-138.522
11
72.6536
21
-138.53
0
LINE
8
BLACK
6
CONTINUOUS
10
72.6536
20
-138.53
11
72.6536
21
-138.534
0
LINE
8
BLACK
6
CONTINUOUS
10
72.6536
20
-138.534
11
72.6535
21
-138.535
0
LINE
8
BLACK
6
CONTINUOUS
10
72.6535
20
-138.535
11
72.6535
21
-138.535
0
LINE
8
BLACK
6
CONTINUOUS
10
72.6535
20
-138.535
11
72.6528
21
-138.539
0
LINE
8
BLACK
6
CONTINUOUS
10
72.6528
20
-138.539
11
72.6514
21
-138.547
0
LINE
8
BLACK
6
CONTINUOUS
10
72.6514
20
-138.547
11
72.651
21
-138.547
0
LINE
8
BLACK
6
CONTINUOUS
10
72.651
20
-138.547
11
72.5233
21
-139.18
0
LINE
8
BLACK
6
CONTINUOUS
10
72.5233
20
-139.18
11
72.5229
21
-139.186
0
LINE
8
BLACK
6
CONTINUOUS
10
72.5229
20
-139.186
11
72.5197
21
-139.193
0
LINE
8
BLACK
6
CONTINUOUS
10
72.5197
20
-139.193
11
72.5169
21
-139.2
0
LINE
8
BLACK
6
CONTINUOUS
10
72.5169
20
-139.2
11
72.5132
21
-139.204
0
LINE
8
BLACK
6
CONTINUOUS
10
72.5132
20
-139.204
11
72.1625
21
-139.724
0
LINE
8
BLACK
6
CONTINUOUS
10
72.1625
20
-139.724
11
72.1602
21
-139.729
0
LINE
8
BLACK
6
CONTINUOUS
10
72.1602
20
-139.729
11
72.1544
21
-139.734
0
LINE
8
BLACK
6
CONTINUOUS
10
72.1544
20
-139.734
11
72.1489
21
-139.74
0
LINE
8
BLACK
6
CONTINUOUS
10
72.1489
20
-139.74
11
72.1441
21
-139.742
0
LINE
8
BLACK
6
CONTINUOUS
10
72.1441
20
-139.742
11
71.6239
21
-140.093
0
LINE
8
BLACK
6
CONTINUOUS
10
71.6239
20
-140.093
11
71.6198
21
-140.097
0
LINE
8
BLACK
6
CONTINUOUS
10
71.6198
20
-140.097
11
71.6126
21
-140.099
0
LINE
8
BLACK
6
CONTINUOUS
10
71.6126
20
-140.099
11
71.6056
21
-140.102
0
LINE
8
BLACK
6
CONTINUOUS
10
71.6056
20
-140.102
11
71.6
21
-140.103
0
LINE
8
BLACK
6
CONTINUOUS
10
71.6
20
-140.103
11
70.9674
21
-140.231
0
LINE
8
BLACK
6
CONTINUOUS
10
70.9674
20
-140.231
11
70.9668
21
-140.231
0
LINE
8
BLACK
6
CONTINUOUS
10
70.9668
20
-140.231
11
70.9587
21
-140.232
0
LINE
8
BLACK
6
CONTINUOUS
10
70.9587
20
-140.232
11
70.9551
21
-140.233
0
LINE
8
BLACK
6
CONTINUOUS
10
70.9551
20
-140.233
11
70.9545
21
-140.233
0
LINE
8
BLACK
6
CONTINUOUS
10
70.9545
20
-140.233
11
70.9538
21
-140.233
0
LINE
8
BLACK
6
CONTINUOUS
10
70.9538
20
-140.233
11
70.95
21
-140.233
0
LINE
8
BLACK
6
CONTINUOUS
10
70.95
20
-140.233
11
70.9419
21
-140.233
0
LINE
8
BLACK
6
CONTINUOUS
10
70.9419
20
-140.233
11
70.9413
21
-140.233
0
LINE
8
BLACK
6
CONTINUOUS
10
70.9413
20
-140.233
11
62.6874
21
-140.233
0
LINE
8
BLACK
6
CONTINUOUS
10
62.6874
20
-140.233
11
62.6868
21
-140.233
0
LINE
8
BLACK
6
CONTINUOUS
10
62.6868
20
-140.233
11
62.6786
21
-140.233
0
LINE
8
BLACK
6
CONTINUOUS
10
62.6786
20
-140.233
11
62.6748
21
-140.233
0
LINE
8
BLACK
6
CONTINUOUS
10
62.6748
20
-140.233
11
62.6742
21
-140.233
0
LINE
8
BLACK
6
CONTINUOUS
10
62.6742
20
-140.233
11
62.6736
21
-140.233
0
LINE
8
BLACK
6
CONTINUOUS
10
62.6736
20
-140.233
11
62.6699
21
-140.232
0
LINE
8
BLACK
6
CONTINUOUS
10
62.6699
20
-140.232
11
62.6618
21
-140.231
0
LINE
8
BLACK
6
CONTINUOUS
10
62.6618
20
-140.231
11
62.6613
21
-140.231
0
LINE
8
BLACK
6
CONTINUOUS
10
62.6613
20
-140.231
11
62.0286
21
-140.103
0
LINE
8
BLACK
6
CONTINUOUS
10
62.0286
20
-140.103
11
62.0231
21
-140.102
0
LINE
8
BLACK
6
CONTINUOUS
10
62.0231
20
-140.102
11
62.016
21
-140.099
0
LINE
8
BLACK
6
CONTINUOUS
10
62.016
20
-140.099
11
62.0089
21
-140.097
0
LINE
8
BLACK
6
CONTINUOUS
10
62.0089
20
-140.097
11
62.0047
21
-140.093
0
LINE
8
BLACK
6
CONTINUOUS
10
62.0047
20
-140.093
11
61.4845
21
-139.742
0
LINE
8
BLACK
6
CONTINUOUS
10
61.4845
20
-139.742
11
61.4797
21
-139.74
0
LINE
8
BLACK
6
CONTINUOUS
10
61.4797
20
-139.74
11
61.4742
21
-139.734
0
LINE
8
BLACK
6
CONTINUOUS
10
61.4742
20
-139.734
11
61.4685
21
-139.729
0
LINE
8
BLACK
6
CONTINUOUS
10
61.4685
20
-139.729
11
61.4662
21
-139.724
0
LINE
8
BLACK
6
CONTINUOUS
10
61.4662
20
-139.724
11
61.1154
21
-139.204
0
LINE
8
BLACK
6
CONTINUOUS
10
61.1154
20
-139.204
11
61.1117
21
-139.2
0
LINE
8
BLACK
6
CONTINUOUS
10
61.1117
20
-139.2
11
61.1089
21
-139.193
0
LINE
8
BLACK
6
CONTINUOUS
10
61.1089
20
-139.193
11
61.1058
21
-139.186
0
LINE
8
BLACK
6
CONTINUOUS
10
61.1058
20
-139.186
11
61.1054
21
-139.18
0
LINE
8
BLACK
6
CONTINUOUS
10
61.1054
20
-139.18
11
60.9776
21
-138.547
0
LINE
8
BLACK
6
CONTINUOUS
10
60.9776
20
-138.547
11
60.9773
21
-138.547
0
LINE
8
BLACK
6
CONTINUOUS
10
60.9773
20
-138.547
11
60.9759
21
-138.539
0
LINE
8
BLACK
6
CONTINUOUS
10
60.9759
20
-138.539
11
60.9751
21
-138.535
0
LINE
8
BLACK
6
CONTINUOUS
10
60.9751
20
-138.535
11
60.9751
21
-138.535
0
LINE
8
BLACK
6
CONTINUOUS
10
60.9751
20
-138.535
11
60.975
21
-138.534
0
LINE
8
BLACK
6
CONTINUOUS
10
60.975
20
-138.534
11
60.975
21
-138.53
0
LINE
8
BLACK
6
CONTINUOUS
10
60.975
20
-138.53
11
60.9748
21
-138.522
0
LINE
8
BLACK
6
CONTINUOUS
10
60.9748
20
-138.522
11
60.975
21
-138.521
0
LINE
8
BLACK
6
CONTINUOUS
10
60.975
20
-138.521
11
60.975
21
-136.038
0
LINE
8
BLACK
6
CONTINUOUS
10
60.975
20
-136.038
11
60.9748
21
-136.037
0
LINE
8
BLACK
6
CONTINUOUS
10
60.9748
20
-136.037
11
60.975
21
-136.029
0
LINE
8
BLACK
6
CONTINUOUS
10
60.975
20
-136.029
11
60.975
21
-136.025
0
LINE
8
BLACK
6
CONTINUOUS
10
60.975
20
-136.025
11
60.9751
21
-136.025
0
LINE
8
BLACK
6
CONTINUOUS
10
60.9751
20
-136.025
11
60.9751
21
-136.024
0
LINE
8
BLACK
6
CONTINUOUS
10
60.9751
20
-136.024
11
60.9759
21
-136.02
0
LINE
8
BLACK
6
CONTINUOUS
10
60.9759
20
-136.02
11
60.9773
21
-136.012
0
LINE
8
BLACK
6
CONTINUOUS
10
60.9773
20
-136.012
11
60.9776
21
-136.012
0
LINE
8
BLACK
6
CONTINUOUS
10
60.9776
20
-136.012
11
61.1054
21
-135.379
0
LINE
8
BLACK
6
CONTINUOUS
10
61.1054
20
-135.379
11
61.1058
21
-135.373
0
LINE
8
BLACK
6
CONTINUOUS
10
61.1058
20
-135.373
11
61.1089
21
-135.366
0
LINE
8
BLACK
6
CONTINUOUS
10
61.1089
20
-135.366
11
61.1117
21
-135.359
0
LINE
8
BLACK
6
CONTINUOUS
10
61.1117
20
-135.359
11
61.1154
21
-135.355
0
LINE
8
BLACK
6
CONTINUOUS
10
61.1154
20
-135.355
11
61.4661
21
-134.835
0
LINE
8
BLACK
6
CONTINUOUS
10
61.4661
20
-134.835
11
61.4685
21
-134.83
0
LINE
8
BLACK
6
CONTINUOUS
10
61.4685
20
-134.83
11
61.4742
21
-134.825
0
LINE
8
BLACK
6
CONTINUOUS
10
61.4742
20
-134.825
11
61.4797
21
-134.819
0
LINE
8
BLACK
6
CONTINUOUS
10
61.4797
20
-134.819
11
61.4845
21
-134.817
0
LINE
8
BLACK
6
CONTINUOUS
10
61.4845
20
-134.817
11
62.0047
21
-134.466
0
LINE
8
BLACK
6
CONTINUOUS
10
62.0047
20
-134.466
11
62.0089
21
-134.462
0
LINE
8
BLACK
6
CONTINUOUS
10
62.0089
20
-134.462
11
62.016
21
-134.459
0
LINE
8
BLACK
6
CONTINUOUS
10
62.016
20
-134.459
11
62.0231
21
-134.456
0
LINE
8
BLACK
6
CONTINUOUS
10
62.0231
20
-134.456
11
62.0286
21
-134.456
0
LINE
8
BLACK
6
CONTINUOUS
10
62.0286
20
-134.456
11
62.6613
21
-134.328
0
LINE
8
BLACK
6
CONTINUOUS
10
62.6613
20
-134.328
11
62.6618
21
-134.328
0
LINE
8
BLACK
6
CONTINUOUS
10
62.6618
20
-134.328
11
62.6699
21
-134.326
0
LINE
8
BLACK
6
CONTINUOUS
10
62.6699
20
-134.326
11
62.6736
21
-134.326
0
LINE
8
BLACK
6
CONTINUOUS
10
62.6736
20
-134.326
11
62.6742
21
-134.325
0
LINE
8
BLACK
6
CONTINUOUS
10
62.6742
20
-134.325
11
62.6748
21
-134.325
0
LINE
8
BLACK
6
CONTINUOUS
10
62.6748
20
-134.325
11
62.6786
21
-134.325
0
LINE
8
BLACK
6
CONTINUOUS
10
62.6786
20
-134.325
11
62.6867
21
-134.325
0
LINE
8
BLACK
6
CONTINUOUS
10
62.6867
20
-134.325
11
62.6873
21
-134.325
0
LINE
8
BLACK
6
CONTINUOUS
10
62.6873
20
-134.325
11
70.9413
21
-134.325
0
LINE
8
BLACK
6
CONTINUOUS
10
70.9413
20
-134.325
11
70.9419
21
-134.325
0
LINE
8
BLACK
6
CONTINUOUS
10
70.9419
20
-134.325
11
70.9501
21
-134.325
0
LINE
8
BLACK
6
CONTINUOUS
10
62.6842
20
-134.425
11
62.055
21
-134.552
0
LINE
8
BLACK
6
CONTINUOUS
10
62.055
20
-134.552
11
61.5456
21
-134.896
0
LINE
8
BLACK
6
CONTINUOUS
10
61.5456
20
-134.896
11
61.2021
21
-135.405
0
LINE
8
BLACK
6
CONTINUOUS
10
61.2021
20
-135.405
11
61.075
21
-136.035
0
LINE
8
BLACK
6
CONTINUOUS
10
61.075
20
-136.035
11
61.075
21
-138.525
0
LINE
8
BLACK
6
CONTINUOUS
10
61.075
20
-138.525
11
61.2021
21
-139.154
0
LINE
8
BLACK
6
CONTINUOUS
10
61.2021
20
-139.154
11
61.5456
21
-139.663
0
LINE
8
BLACK
6
CONTINUOUS
10
61.5456
20
-139.663
11
62.055
21
-140.006
0
LINE
8
BLACK
6
CONTINUOUS
10
62.055
20
-140.006
11
62.6842
21
-140.133
0
LINE
8
BLACK
6
CONTINUOUS
10
62.6842
20
-140.133
11
70.9445
21
-140.133
0
LINE
8
BLACK
6
CONTINUOUS
10
70.9445
20
-140.133
11
71.5736
21
-140.006
0
LINE
8
BLACK
6
CONTINUOUS
10
71.5736
20
-140.006
11
72.0831
21
-139.663
0
LINE
8
BLACK
6
CONTINUOUS
10
72.0831
20
-139.663
11
72.4266
21
-139.154
0
LINE
8
BLACK
6
CONTINUOUS
10
72.4266
20
-139.154
11
72.5536
21
-138.525
0
LINE
8
BLACK
6
CONTINUOUS
10
72.5536
20
-138.525
11
72.5536
21
-136.035
0
LINE
8
BLACK
6
CONTINUOUS
10
72.5536
20
-136.035
11
72.4266
21
-135.405
0
LINE
8
BLACK
6
CONTINUOUS
10
72.4266
20
-135.405
11
72.0831
21
-134.896
0
LINE
8
BLACK
6
CONTINUOUS
10
72.0831
20
-134.896
11
71.5736
21
-134.552
0
LINE
8
BLACK
6
CONTINUOUS
10
71.5736
20
-134.552
11
70.9445
21
-134.425
0
LINE
8
BLACK
6
CONTINUOUS
10
70.9445
20
-134.425
11
62.6842
21
-134.425
0
LINE
8
BLACK
6
CONTINUOUS
10
153.193
20
-134.325
11
153.197
21
-134.325
0
LINE
8
BLACK
6
CONTINUOUS
10
153.197
20
-134.325
11
153.198
21
-134.325
0
LINE
8
BLACK
6
CONTINUOUS
10
153.198
20
-134.325
11
153.198
21
-134.326
0
LINE
8
BLACK
6
CONTINUOUS
10
153.198
20
-134.326
11
153.202
21
-134.326
0
LINE
8
BLACK
6
CONTINUOUS
10
153.202
20
-134.326
11
153.21
21
-134.328
0
LINE
8
BLACK
6
CONTINUOUS
10
153.21
20
-134.328
11
153.211
21
-134.328
0
LINE
8
BLACK
6
CONTINUOUS
10
153.211
20
-134.328
11
153.843
21
-134.456
0
LINE
8
BLACK
6
CONTINUOUS
10
153.843
20
-134.456
11
153.849
21
-134.456
0
LINE
8
BLACK
6
CONTINUOUS
10
153.849
20
-134.456
11
153.856
21
-134.459
0
LINE
8
BLACK
6
CONTINUOUS
10
153.856
20
-134.459
11
153.863
21
-134.462
0
LINE
8
BLACK
6
CONTINUOUS
10
153.863
20
-134.462
11
153.867
21
-134.466
0
LINE
8
BLACK
6
CONTINUOUS
10
153.867
20
-134.466
11
154.387
21
-134.817
0
LINE
8
BLACK
6
CONTINUOUS
10
154.387
20
-134.817
11
154.392
21
-134.819
0
LINE
8
BLACK
6
CONTINUOUS
10
154.392
20
-134.819
11
154.398
21
-134.825
0
LINE
8
BLACK
6
CONTINUOUS
10
154.398
20
-134.825
11
154.403
21
-134.83
0
LINE
8
BLACK
6
CONTINUOUS
10
154.403
20
-134.83
11
154.406
21
-134.835
0
LINE
8
BLACK
6
CONTINUOUS
10
154.406
20
-134.835
11
154.756
21
-135.355
0
LINE
8
BLACK
6
CONTINUOUS
10
154.756
20
-135.355
11
154.76
21
-135.359
0
LINE
8
BLACK
6
CONTINUOUS
10
154.76
20
-135.359
11
154.763
21
-135.366
0
LINE
8
BLACK
6
CONTINUOUS
10
154.763
20
-135.366
11
154.766
21
-135.373
0
LINE
8
BLACK
6
CONTINUOUS
10
154.766
20
-135.373
11
154.766
21
-135.379
0
LINE
8
BLACK
6
CONTINUOUS
10
154.766
20
-135.379
11
154.894
21
-136.012
0
LINE
8
BLACK
6
CONTINUOUS
10
154.894
20
-136.012
11
154.895
21
-136.012
0
LINE
8
BLACK
6
CONTINUOUS
10
154.895
20
-136.012
11
154.896
21
-136.02
0
LINE
8
BLACK
6
CONTINUOUS
10
154.896
20
-136.02
11
154.897
21
-136.024
0
LINE
8
BLACK
6
CONTINUOUS
10
154.897
20
-136.024
11
154.897
21
-136.025
0
LINE
8
BLACK
6
CONTINUOUS
10
154.897
20
-136.025
11
154.897
21
-136.025
0
LINE
8
BLACK
6
CONTINUOUS
10
154.897
20
-136.025
11
154.897
21
-136.029
0
LINE
8
BLACK
6
CONTINUOUS
10
154.897
20
-136.029
11
154.897
21
-136.037
0
LINE
8
BLACK
6
CONTINUOUS
10
154.897
20
-136.037
11
154.897
21
-136.038
0
LINE
8
BLACK
6
CONTINUOUS
10
154.897
20
-136.038
11
154.897
21
-138.521
0
LINE
8
BLACK
6
CONTINUOUS
10
154.897
20
-138.521
11
154.897
21
-138.522
0
LINE
8
BLACK
6
CONTINUOUS
10
154.897
20
-138.522
11
154.897
21
-138.53
0
LINE
8
BLACK
6
CONTINUOUS
10
154.897
20
-138.53
11
154.897
21
-138.534
0
LINE
8
BLACK
6
CONTINUOUS
10
154.897
20
-138.534
11
154.897
21
-138.535
0
LINE
8
BLACK
6
CONTINUOUS
10
154.897
20
-138.535
11
154.897
21
-138.535
0
LINE
8
BLACK
6
CONTINUOUS
10
154.897
20
-138.535
11
154.896
21
-138.539
0
LINE
8
BLACK
6
CONTINUOUS
10
154.896
20
-138.539
11
154.895
21
-138.547
0
LINE
8
BLACK
6
CONTINUOUS
10
154.895
20
-138.547
11
154.894
21
-138.547
0
LINE
8
BLACK
6
CONTINUOUS
10
154.894
20
-138.547
11
154.766
21
-139.18
0
LINE
8
BLACK
6
CONTINUOUS
10
154.766
20
-139.18
11
154.766
21
-139.186
0
LINE
8
BLACK
6
CONTINUOUS
10
154.766
20
-139.186
11
154.763
21
-139.193
0
LINE
8
BLACK
6
CONTINUOUS
10
154.763
20
-139.193
11
154.76
21
-139.2
0
LINE
8
BLACK
6
CONTINUOUS
10
154.76
20
-139.2
11
154.756
21
-139.204
0
LINE
8
BLACK
6
CONTINUOUS
10
154.756
20
-139.204
11
154.406
21
-139.724
0
LINE
8
BLACK
6
CONTINUOUS
10
154.406
20
-139.724
11
154.403
21
-139.729
0
LINE
8
BLACK
6
CONTINUOUS
10
154.403
20
-139.729
11
154.398
21
-139.734
0
LINE
8
BLACK
6
CONTINUOUS
10
154.398
20
-139.734
11
154.392
21
-139.74
0
LINE
8
BLACK
6
CONTINUOUS
10
154.392
20
-139.74
11
154.387
21
-139.742
0
LINE
8
BLACK
6
CONTINUOUS
10
154.387
20
-139.742
11
153.867
21
-140.093
0
LINE
8
BLACK
6
CONTINUOUS
10
153.867
20
-140.093
11
153.863
21
-140.097
0
LINE
8
BLACK
6
CONTINUOUS
10
153.863
20
-140.097
11
153.856
21
-140.099
0
LINE
8
BLACK
6
CONTINUOUS
10
153.856
20
-140.099
11
153.849
21
-140.102
0
LINE
8
BLACK
6
CONTINUOUS
10
153.849
20
-140.102
11
153.843
21
-140.103
0
LINE
8
BLACK
6
CONTINUOUS
10
153.843
20
-140.103
11
153.211
21
-140.231
0
LINE
8
BLACK
6
CONTINUOUS
10
153.211
20
-140.231
11
153.21
21
-140.231
0
LINE
8
BLACK
6
CONTINUOUS
10
153.21
20
-140.231
11
153.202
21
-140.232
0
LINE
8
BLACK
6
CONTINUOUS
10
153.202
20
-140.232
11
153.198
21
-140.233
0
LINE
8
BLACK
6
CONTINUOUS
10
153.198
20
-140.233
11
153.198
21
-140.233
0
LINE
8
BLACK
6
CONTINUOUS
10
153.198
20
-140.233
11
153.197
21
-140.233
0
LINE
8
BLACK
6
CONTINUOUS
10
153.197
20
-140.233
11
153.193
21
-140.233
0
LINE
8
BLACK
6
CONTINUOUS
10
153.193
20
-140.233
11
153.185
21
-140.233
0
LINE
8
BLACK
6
CONTINUOUS
10
153.185
20
-140.233
11
153.185
21
-140.233
0
LINE
8
BLACK
6
CONTINUOUS
10
153.185
20
-140.233
11
144.93
21
-140.233
0
LINE
8
BLACK
6
CONTINUOUS
10
144.93
20
-140.233
11
144.929
21
-140.233
0
LINE
8
BLACK
6
CONTINUOUS
10
144.929
20
-140.233
11
144.921
21
-140.233
0
LINE
8
BLACK
6
CONTINUOUS
10
144.921
20
-140.233
11
144.917
21
-140.233
0
LINE
8
BLACK
6
CONTINUOUS
10
144.917
20
-140.233
11
144.916
21
-140.233
0
LINE
8
BLACK
6
CONTINUOUS
10
144.916
20
-140.233
11
144.916
21
-140.233
0
LINE
8
BLACK
6
CONTINUOUS
10
144.916
20
-140.233
11
144.912
21
-140.232
0
LINE
8
BLACK
6
CONTINUOUS
10
144.912
20
-140.232
11
144.904
21
-140.231
0
LINE
8
BLACK
6
CONTINUOUS
10
144.904
20
-140.231
11
144.903
21
-140.231
0
LINE
8
BLACK
6
CONTINUOUS
10
144.903
20
-140.231
11
144.271
21
-140.103
0
LINE
8
BLACK
6
CONTINUOUS
10
144.271
20
-140.103
11
144.265
21
-140.102
0
LINE
8
BLACK
6
CONTINUOUS
10
144.265
20
-140.102
11
144.258
21
-140.099
0
LINE
8
BLACK
6
CONTINUOUS
10
144.258
20
-140.099
11
144.251
21
-140.097
0
LINE
8
BLACK
6
CONTINUOUS
10
144.251
20
-140.097
11
144.247
21
-140.093
0
LINE
8
BLACK
6
CONTINUOUS
10
144.247
20
-140.093
11
143.727
21
-139.742
0
LINE
8
BLACK
6
CONTINUOUS
10
143.727
20
-139.742
11
143.722
21
-139.74
0
LINE
8
BLACK
6
CONTINUOUS
10
143.722
20
-139.74
11
143.717
21
-139.734
0
LINE
8
BLACK
6
CONTINUOUS
10
143.717
20
-139.734
11
143.711
21
-139.729
0
LINE
8
BLACK
6
CONTINUOUS
10
143.711
20
-139.729
11
143.709
21
-139.724
0
LINE
8
BLACK
6
CONTINUOUS
10
143.709
20
-139.724
11
143.358
21
-139.204
0
LINE
8
BLACK
6
CONTINUOUS
10
143.358
20
-139.204
11
143.354
21
-139.2
0
LINE
8
BLACK
6
CONTINUOUS
10
143.354
20
-139.2
11
143.352
21
-139.193
0
LINE
8
BLACK
6
CONTINUOUS
10
143.352
20
-139.193
11
143.348
21
-139.186
0
LINE
8
BLACK
6
CONTINUOUS
10
143.348
20
-139.186
11
143.348
21
-139.18
0
LINE
8
BLACK
6
CONTINUOUS
10
143.348
20
-139.18
11
143.22
21
-138.547
0
LINE
8
BLACK
6
CONTINUOUS
10
143.22
20
-138.547
11
143.22
21
-138.547
0
LINE
8
BLACK
6
CONTINUOUS
10
143.22
20
-138.547
11
143.219
21
-138.539
0
LINE
8
BLACK
6
CONTINUOUS
10
143.219
20
-138.539
11
143.218
21
-138.535
0
LINE
8
BLACK
6
CONTINUOUS
10
143.218
20
-138.535
11
143.218
21
-138.535
0
LINE
8
BLACK
6
CONTINUOUS
10
143.218
20
-138.535
11
143.218
21
-138.534
0
LINE
8
BLACK
6
CONTINUOUS
10
143.218
20
-138.534
11
143.218
21
-138.53
0
LINE
8
BLACK
6
CONTINUOUS
10
143.218
20
-138.53
11
143.218
21
-138.522
0
LINE
8
BLACK
6
CONTINUOUS
10
143.218
20
-138.522
11
143.218
21
-138.521
0
LINE
8
BLACK
6
CONTINUOUS
10
143.218
20
-138.521
11
143.218
21
-136.038
0
LINE
8
BLACK
6
CONTINUOUS
10
143.218
20
-136.038
11
143.218
21
-136.037
0
LINE
8
BLACK
6
CONTINUOUS
10
143.218
20
-136.037
11
143.218
21
-136.029
0
LINE
8
BLACK
6
CONTINUOUS
10
143.218
20
-136.029
11
143.218
21
-136.025
0
LINE
8
BLACK
6
CONTINUOUS
10
143.218
20
-136.025
11
143.218
21
-136.025
0
LINE
8
BLACK
6
CONTINUOUS
10
143.218
20
-136.025
11
143.218
21
-136.024
0
LINE
8
BLACK
6
CONTINUOUS
10
143.218
20
-136.024
11
143.219
21
-136.02
0
LINE
8
BLACK
6
CONTINUOUS
10
143.219
20
-136.02
11
143.22
21
-136.012
0
LINE
8
BLACK
6
CONTINUOUS
10
143.22
20
-136.012
11
143.22
21
-136.012
0
LINE
8
BLACK
6
CONTINUOUS
10
143.22
20
-136.012
11
143.348
21
-135.379
0
LINE
8
BLACK
6
CONTINUOUS
10
143.348
20
-135.379
11
143.348
21
-135.373
0
LINE
8
BLACK
6
CONTINUOUS
10
143.348
20
-135.373
11
143.352
21
-135.366
0
LINE
8
BLACK
6
CONTINUOUS
10
143.352
20
-135.366
11
143.354
21
-135.359
0
LINE
8
BLACK
6
CONTINUOUS
10
143.354
20
-135.359
11
143.358
21
-135.355
0
LINE
8
BLACK
6
CONTINUOUS
10
143.358
20
-135.355
11
143.709
21
-134.835
0
LINE
8
BLACK
6
CONTINUOUS
10
143.709
20
-134.835
11
143.711
21
-134.83
0
LINE
8
BLACK
6
CONTINUOUS
10
143.711
20
-134.83
11
143.717
21
-134.825
0
LINE
8
BLACK
6
CONTINUOUS
10
143.717
20
-134.825
11
143.722
21
-134.819
0
LINE
8
BLACK
6
CONTINUOUS
10
143.722
20
-134.819
11
143.727
21
-134.817
0
LINE
8
BLACK
6
CONTINUOUS
10
143.727
20
-134.817
11
144.247
21
-134.466
0
LINE
8
BLACK
6
CONTINUOUS
10
144.247
20
-134.466
11
144.251
21
-134.462
0
LINE
8
BLACK
6
CONTINUOUS
10
144.251
20
-134.462
11
144.258
21
-134.459
0
LINE
8
BLACK
6
CONTINUOUS
10
144.258
20
-134.459
11
144.265
21
-134.456
0
LINE
8
BLACK
6
CONTINUOUS
10
144.265
20
-134.456
11
144.271
21
-134.456
0
LINE
8
BLACK
6
CONTINUOUS
10
144.271
20
-134.456
11
144.903
21
-134.328
0
LINE
8
BLACK
6
CONTINUOUS
10
144.903
20
-134.328
11
144.904
21
-134.328
0
LINE
8
BLACK
6
CONTINUOUS
10
144.904
20
-134.328
11
144.912
21
-134.326
0
LINE
8
BLACK
6
CONTINUOUS
10
144.912
20
-134.326
11
144.916
21
-134.326
0
LINE
8
BLACK
6
CONTINUOUS
10
144.916
20
-134.326
11
144.916
21
-134.325
0
LINE
8
BLACK
6
CONTINUOUS
10
144.916
20
-134.325
11
144.917
21
-134.325
0
LINE
8
BLACK
6
CONTINUOUS
10
144.917
20
-134.325
11
144.921
21
-134.325
0
LINE
8
BLACK
6
CONTINUOUS
10
144.921
20
-134.325
11
144.929
21
-134.325
0
LINE
8
BLACK
6
CONTINUOUS
10
144.929
20
-134.325
11
144.93
21
-134.325
0
LINE
8
BLACK
6
CONTINUOUS
10
144.93
20
-134.325
11
153.185
21
-134.325
0
LINE
8
BLACK
6
CONTINUOUS
10
153.185
20
-134.325
11
153.185
21
-134.325
0
LINE
8
BLACK
6
CONTINUOUS
10
153.185
20
-134.325
11
153.193
21
-134.325
0
LINE
8
BLACK
6
CONTINUOUS
10
144.926
20
-134.425
11
144.297
21
-134.552
0
LINE
8
BLACK
6
CONTINUOUS
10
144.297
20
-134.552
11
143.788
21
-134.896
0
LINE
8
BLACK
6
CONTINUOUS
10
143.788
20
-134.896
11
143.445
21
-135.405
0
LINE
8
BLACK
6
CONTINUOUS
10
143.445
20
-135.405
11
143.318
21
-136.035
0
LINE
8
BLACK
6
CONTINUOUS
10
143.318
20
-136.035
11
143.318
21
-138.525
0
LINE
8
BLACK
6
CONTINUOUS
10
143.318
20
-138.525
11
143.445
21
-139.154
0
LINE
8
BLACK
6
CONTINUOUS
10
143.445
20
-139.154
11
143.788
21
-139.663
0
LINE
8
BLACK
6
CONTINUOUS
10
143.788
20
-139.663
11
144.297
21
-140.006
0
LINE
8
BLACK
6
CONTINUOUS
10
144.297
20
-140.006
11
144.926
21
-140.133
0
LINE
8
BLACK
6
CONTINUOUS
10
144.926
20
-140.133
11
153.188
21
-140.133
0
LINE
8
BLACK
6
CONTINUOUS
10
153.188
20
-140.133
11
153.817
21
-140.006
0
LINE
8
BLACK
6
CONTINUOUS
10
153.817
20
-140.006
11
154.326
21
-139.663
0
LINE
8
BLACK
6
CONTINUOUS
10
154.326
20
-139.663
11
154.67
21
-139.154
0
LINE
8
BLACK
6
CONTINUOUS
10
154.67
20
-139.154
11
154.797
21
-138.525
0
LINE
8
BLACK
6
CONTINUOUS
10
154.797
20
-138.525
11
154.797
21
-136.035
0
LINE
8
BLACK
6
CONTINUOUS
10
154.797
20
-136.035
11
154.67
21
-135.405
0
LINE
8
BLACK
6
CONTINUOUS
10
154.67
20
-135.405
11
154.326
21
-134.896
0
LINE
8
BLACK
6
CONTINUOUS
10
154.326
20
-134.896
11
153.817
21
-134.552
0
LINE
8
BLACK
6
CONTINUOUS
10
153.817
20
-134.552
11
153.188
21
-134.425
0
LINE
8
BLACK
6
CONTINUOUS
10
153.188
20
-134.425
11
144.926
21
-134.425
  0
ENDSEC
  0
EOF
