<?xml version="1.0" encoding="UTF-8" standalone="no"?>
<!-- Created with Inkscape (http://www.inkscape.org/) -->

<svg
   xmlns:dc="http://purl.org/dc/elements/1.1/"
   xmlns:cc="http://creativecommons.org/ns#"
   xmlns:rdf="http://www.w3.org/1999/02/22-rdf-syntax-ns#"
   xmlns:svg="http://www.w3.org/2000/svg"
   xmlns="http://www.w3.org/2000/svg"
   xmlns:sodipodi="http://sodipodi.sourceforge.net/DTD/sodipodi-0.dtd"
   xmlns:inkscape="http://www.inkscape.org/namespaces/inkscape"
   width="19.74486mm"
   height="16.000771mm"
   viewBox="0 0 19.744859 16.000771"
   version="1.1"
   id="svg1375"
   inkscape:version="0.92.3 (2405546, 2018-03-11)"
   sodipodi:docname="oshw-US00133.svg">
  <sodipodi:namedview
     id="base"
     pagecolor="#ffffff"
     bordercolor="#666666"
     borderopacity="1.0"
     inkscape:pageopacity="0.0"
     inkscape:pageshadow="2"
     inkscape:zoom="13.078232"
     inkscape:cx="40.464377"
     inkscape:cy="24.268036"
     inkscape:document-units="mm"
     inkscape:current-layer="layer3"
     showgrid="false"
     inkscape:window-width="1920"
     inkscape:window-height="1057"
     inkscape:window-x="1072"
     inkscape:window-y="634"
     inkscape:window-maximized="1"
     fit-margin-top="2"
     fit-margin-bottom="2"
     fit-margin-right="2"
     fit-margin-left="2" />
  <defs
     id="defs1369" />
  <metadata
     id="metadata1372">
    <rdf:RDF>
      <cc:Work
         rdf:about="">
        <dc:format>image/svg+xml</dc:format>
        <dc:type
           rdf:resource="http://purl.org/dc/dcmitype/StillImage" />
        <dc:title></dc:title>
      </cc:Work>
    </rdf:RDF>
  </metadata>
  <g
     transform="translate(173.88995,-267.02106)"
     style="display:inline"
     id="layer1"
     inkscape:groupmode="layer"
     inkscape:label="Layer 1" />
  <g
     transform="translate(173.88995,-267.02106)"
     style="display:inline"
     inkscape:label="Cu"
     id="layer2"
     inkscape:groupmode="layer">
    <path
       d="m -161.21554,271.79529 h 0.49266 l 0.35762,3.03096 0.42514,-2.00567 h 0.52767 l 0.43014,2.01068 1.21127,-5.81021 h 0.49266 l -1.41134,6.50793 h -0.47766 l -0.50766,-2.21821 -0.50517,2.21821 h -0.47766 l -0.55768,-3.73369"
       id="path1157"
       inkscape:connector-curvature="0"
       style="display:inline;fill:#ff3a3a;stroke-width:0.10670141" />
  </g>
  <g
     transform="translate(173.88995,-267.02106)"
     style="display:inline"
     inkscape:label="SilkS"
     id="layer3"
     inkscape:groupmode="layer">
    <path
       transform="translate(4.5833329e-7,-1.1875e-5)"
       style="color:#000000;text-indent:0;text-transform:none;display:inline;fill:#333333;stroke-width:0.10670141"
       d="m -171.88995,269.95683 v 0.32011 6.6221 0.3201 h 0.3201 15.10466 0.3201 v -0.3201 -6.94221 h -0.62647 l -0.0137,6.6221 h -14.46444 v -5.98189 h 12.30694 v -0.64021 h -12.62705 -0.3201"
       id="path1149"
       inkscape:connector-curvature="0" />
    <path
       transform="translate(4.5833329e-7,-1.1875e-5)"
       d="m -171.72823,279.90574 v -1.70443 h 0.37609 v 1.87488 l 0.003,0.17322 0.008,0.11579 0.0153,0.0755 0.0236,0.056 0.0329,0.0513 0.0394,0.0446 0.0459,0.0379 0.0523,0.0312 0.0594,0.0243 0.0652,0.0174 0.071,0.0104 0.0768,0.003 0.0775,-0.003 0.0712,-0.0104 0.065,-0.0174 0.0587,-0.0243 0.0524,-0.0312 0.0462,-0.0379 0.04,-0.0446 0.0337,-0.0513 0.0236,-0.056 0.0153,-0.0755 0.008,-0.11393 0.003,-0.17138 v -1.87858 h 0.37424 v 1.70443 l -0.003,0.19685 -0.0101,0.16627 -0.0168,0.13571 -0.0235,0.10513 -0.0308,0.0851 -0.0405,0.0775 -0.0503,0.0698 -0.06,0.0622 -0.0633,0.0512 -0.0677,0.0442 -0.0721,0.0373 -0.0765,0.0303 -0.0812,0.0235 -0.086,0.0168 -0.0909,0.0101 -0.0958,0.003 -0.0949,-0.003 -0.0903,-0.0101 -0.0857,-0.0168 -0.0811,-0.0235 -0.0767,-0.0303 -0.0725,-0.0373 -0.0683,-0.0442 -0.0642,-0.0512 -0.0593,-0.0616 -0.05,-0.0699 -0.0408,-0.0783 -0.0315,-0.0866 -0.0235,-0.10641 -0.0168,-0.13582 -0.0101,-0.16523 -0.003,-0.19465 v 0"
       style="font-weight:normal;font-size:medium;line-height:125%;font-family:'Andale Mono';letter-spacing:0px;word-spacing:0px;display:inline;fill:#333333;stroke-width:0.09485542"
       id="path1942"
       inkscape:connector-curvature="0" />
    <path
       transform="translate(4.5833329e-7,-1.1875e-5)"
       d="m -167.84323,278.2958 v 0.37978 l -0.0853,-0.0513 -0.0856,-0.0446 -0.0858,-0.0379 -0.086,-0.0312 -0.0855,-0.0243 -0.0859,-0.0174 -0.0864,-0.0104 -0.0868,-0.003 -0.12552,0.008 -0.11162,0.0233 -0.0506,0.0174 -0.0471,0.0213 -0.0436,0.0252 -0.0402,0.0291 -0.036,0.0319 -0.0312,0.0346 -0.0264,0.0374 -0.0216,0.0401 -0.0168,0.0428 -0.012,0.0455 -0.007,0.0483 -0.002,0.051 0.006,0.0863 0.0188,0.0754 0.0313,0.0645 0.0438,0.0536 0.0618,0.0462 0.0836,0.0423 0.10537,0.0383 0.12714,0.0344 0.19638,0.0445 0.094,0.0243 0.0874,0.0276 0.0808,0.0308 0.0742,0.034 0.0676,0.0373 0.061,0.0405 0.0544,0.0438 0.0478,0.047 0.0417,0.0508 0.0361,0.0552 0.0306,0.0596 0.025,0.064 0.0195,0.0684 0.0139,0.0728 0.008,0.0772 0.003,0.0816 -0.004,0.0957 -0.0115,0.0899 -0.0191,0.084 -0.0267,0.0782 -0.0344,0.0723 -0.042,0.0665 -0.0497,0.0606 -0.0573,0.0548 -0.0646,0.0486 -0.0716,0.0421 -0.0785,0.0357 -0.0854,0.0292 -0.0924,0.0227 -0.0994,0.0162 -0.1063,0.01 -0.11324,0.003 -0.0974,-0.003 -0.0976,-0.008 -0.0978,-0.0133 -0.0981,-0.0186 -0.0983,-0.0231 -0.0985,-0.0284 -0.0988,-0.0337 -0.099,-0.039 v -0.39832 l 0.10502,0.0631 0.10201,0.0541 0.099,0.045 0.096,0.036 0.0955,0.0276 0.0958,0.0197 0.096,0.0118 0.0962,0.004 0.13385,-0.008 0.11811,-0.0236 0.0532,-0.0177 0.0492,-0.0216 0.0453,-0.0256 0.0413,-0.0295 0.0369,-0.0335 0.032,-0.0367 0.0271,-0.0398 0.0222,-0.0429 0.0172,-0.046 0.0123,-0.0491 0.007,-0.0523 0.002,-0.0554 -0.007,-0.0976 -0.0205,-0.0853 -0.0342,-0.0731 -0.0478,-0.0608 -0.0638,-0.0515 -0.0839,-0.0453 -0.1041,-0.039 -0.12424,-0.0328 -0.20008,-0.0463 -0.17948,-0.0491 -0.0798,-0.0287 -0.0732,-0.0315 -0.0666,-0.0343 -0.06,-0.0371 -0.0534,-0.0398 -0.0468,-0.0426 -0.0408,-0.0459 -0.0354,-0.0496 -0.0299,-0.0534 -0.0245,-0.0572 -0.0191,-0.0609 -0.0136,-0.0647 -0.008,-0.0685 -0.003,-0.0722 0.004,-0.0903 0.0116,-0.0857 0.0194,-0.081 0.0272,-0.0764 0.0349,-0.0718 0.0427,-0.0672 0.0504,-0.0625 0.0582,-0.0579 0.0651,-0.0525 0.0702,-0.0455 0.0753,-0.0385 0.0804,-0.0315 0.0855,-0.0245 0.0905,-0.0175 0.0956,-0.0105 0.10074,-0.004 0.1635,0.009 0.17183,0.0278 0.18063,0.0445 0.1899,0.063 v -5e-5"
       style="font-weight:normal;font-size:medium;line-height:125%;font-family:'Andale Mono';letter-spacing:0px;word-spacing:0px;display:inline;fill:#333333;stroke-width:0.09485542"
       id="path1944"
       inkscape:connector-curvature="0" />
    <path
       transform="translate(4.5833329e-7,-1.1875e-5)"
       inkscape:connector-curvature="0"
       style="font-weight:normal;font-size:medium;line-height:125%;font-family:'Andale Mono';letter-spacing:0px;word-spacing:0px;display:inline;opacity:1;fill:#333333;stroke-width:0.09485541"
       d="m -166.29443,278.15128 -0.10731,0.006 -0.10053,0.017 -0.0937,0.0283 -0.087,0.0397 -0.0802,0.0511 -0.0734,0.0624 -0.0667,0.0738 -0.0599,0.0851 -0.053,0.0962 -0.0459,0.10703 -0.0389,0.11788 -0.0318,0.1287 -0.0247,0.13953 -0.0177,0.15035 -0.0106,0.16118 -0.004,0.17198 0.004,0.17154 0.0106,0.16077 0.0177,0.14999 0.0247,0.13923 0.0318,0.12845 0.0389,0.1177 0.0459,0.10692 0.053,0.0962 0.0599,0.0851 0.0667,0.0738 0.0734,0.0624 0.0802,0.0511 0.087,0.0397 0.0937,0.0284 0.10053,0.017 0.10731,0.006 0.10731,-0.006 0.10053,-0.017 0.0937,-0.0284 0.087,-0.0397 0.0802,-0.0511 0.0734,-0.0624 0.0667,-0.0738 0.0599,-0.0851 0.0534,-0.0962 0.0463,-0.10692 0.0392,-0.1177 0.0321,-0.12845 0.025,-0.13923 0.0178,-0.14999 0.0107,-0.16077 0.004,-0.17154 -0.004,-0.17198 -0.0107,-0.16118 -0.0178,-0.15035 -0.0249,-0.13953 -0.0321,-0.1287 -0.0392,-0.11788 -0.0463,-0.10703 -0.0534,-0.0962 -0.0599,-0.0851 -0.0667,-0.0738 -0.0734,-0.0624 -0.0802,-0.0511 -0.087,-0.0397 -0.0937,-0.0283 -0.10053,-0.017 -0.10731,-0.006 v 0 m 0,0.29634 0.0637,0.004 0.0594,0.0132 0.0552,0.022 0.051,0.0308 0.0468,0.0396 0.0425,0.0484 0.0383,0.0572 0.0341,0.066 0.0304,0.075 0.0263,0.0842 0.0223,0.0934 0.0182,0.10262 0.0142,0.11182 0.0101,0.12103 0.008,0.26968 -0.008,0.26887 -0.0101,0.1207 -0.0142,0.11156 -0.0182,0.10242 -0.0223,0.0933 -0.0263,0.0841 -0.0304,0.075 -0.0341,0.066 -0.0383,0.0572 -0.0425,0.0484 -0.0468,0.0396 -0.051,0.0308 -0.0552,0.022 -0.0594,0.0132 -0.0637,0.004 -0.0632,-0.004 -0.0592,-0.0132 -0.055,-0.022 -0.0509,-0.0308 -0.0468,-0.0396 -0.0427,-0.0484 -0.0386,-0.0572 -0.0345,-0.066 -0.03,-0.075 -0.0259,-0.0841 -0.022,-0.0933 -0.018,-0.10242 -0.014,-0.11156 -0.01,-0.1207 -0.008,-0.26887 0.008,-0.26968 0.01,-0.12103 0.014,-0.11182 0.018,-0.10262 0.022,-0.0934 0.0259,-0.0842 0.03,-0.075 0.0345,-0.066 0.0386,-0.0572 0.0427,-0.0484 0.0468,-0.0396 0.0509,-0.0308 0.055,-0.022 0.0592,-0.0132 0.0632,-0.004 v 0"
       id="path1946" />
    <path
       transform="translate(4.5833329e-7,-1.1875e-5)"
       inkscape:connector-curvature="0"
       style="font-weight:normal;font-size:medium;line-height:125%;font-family:'Andale Mono';letter-spacing:0px;word-spacing:0px;display:inline;fill:#333333;stroke-width:0.09485542"
       d="m -166.54082,279.57782 0.004,-0.0492 0.0132,-0.0457 0.022,-0.0423 0.0308,-0.0388 0.0379,-0.0324 0.0413,-0.0232 0.0448,-0.0139 0.0483,-0.005 0.05,0.005 0.0463,0.0139 0.0426,0.0232 0.0389,0.0324 0.0324,0.0388 0.0232,0.0423 0.0139,0.0457 0.005,0.0492 -0.005,0.0499 -0.0139,0.046 -0.0232,0.042 -0.0324,0.0381 -0.0382,0.0316 -0.0424,0.0226 -0.0465,0.0136 -0.0507,0.005 -0.0498,-0.004 -0.0456,-0.0132 -0.0414,-0.022 -0.0373,-0.0308 -0.03,-0.0375 -0.0214,-0.0421 -0.0129,-0.0468 -0.004,-0.0514 v -4e-5"
       id="path847" />
    <path
       transform="translate(4.5833329e-7,-1.1875e-5)"
       inkscape:connector-curvature="0"
       style="font-weight:normal;font-size:medium;line-height:125%;font-family:'Andale Mono';letter-spacing:0px;word-spacing:0px;display:inline;fill:#333333;stroke-width:0.09485541"
       d="m -164.01202,278.15128 -0.10731,0.006 -0.10053,0.017 -0.0937,0.0283 -0.087,0.0397 -0.0802,0.0511 -0.0734,0.0624 -0.0667,0.0738 -0.0599,0.0851 -0.053,0.0962 -0.0459,0.10703 -0.0389,0.11788 -0.0318,0.1287 -0.0247,0.13953 -0.0177,0.15035 -0.0106,0.16118 -0.004,0.17198 0.004,0.17154 0.0106,0.16077 0.0177,0.14999 0.0247,0.13923 0.0318,0.12845 0.0389,0.1177 0.0459,0.10692 0.053,0.0962 0.0599,0.0851 0.0667,0.0738 0.0734,0.0624 0.0802,0.0511 0.087,0.0397 0.0937,0.0284 0.10053,0.017 0.10731,0.006 0.10731,-0.006 0.10053,-0.017 0.0937,-0.0284 0.087,-0.0397 0.0802,-0.0511 0.0734,-0.0624 0.0667,-0.0738 0.0599,-0.0851 0.0534,-0.0962 0.0463,-0.10692 0.0392,-0.1177 0.0321,-0.12845 0.025,-0.13923 0.0178,-0.14999 0.0107,-0.16077 0.004,-0.17154 -0.004,-0.17198 -0.0107,-0.16118 -0.0178,-0.15035 -0.0249,-0.13953 -0.0321,-0.1287 -0.0392,-0.11788 -0.0463,-0.10703 -0.0534,-0.0962 -0.0599,-0.0851 -0.0667,-0.0738 -0.0734,-0.0624 -0.0802,-0.0511 -0.087,-0.0397 -0.0937,-0.0283 -0.10053,-0.017 -0.10731,-0.006 v 0 m 0,0.29634 0.0637,0.004 0.0594,0.0132 0.0552,0.022 0.051,0.0308 0.0468,0.0396 0.0425,0.0484 0.0383,0.0572 0.0341,0.066 0.0304,0.075 0.0263,0.0842 0.0223,0.0934 0.0182,0.10262 0.0142,0.11182 0.0101,0.12103 0.008,0.26968 -0.008,0.26887 -0.0101,0.1207 -0.0142,0.11156 -0.0182,0.10242 -0.0223,0.0933 -0.0263,0.0841 -0.0304,0.075 -0.0341,0.066 -0.0383,0.0572 -0.0425,0.0484 -0.0468,0.0396 -0.051,0.0308 -0.0552,0.022 -0.0594,0.0132 -0.0637,0.004 -0.0632,-0.004 -0.0591,-0.0132 -0.055,-0.022 -0.0509,-0.0308 -0.0468,-0.0396 -0.0427,-0.0484 -0.0386,-0.0572 -0.0345,-0.066 -0.03,-0.075 -0.026,-0.0841 -0.022,-0.0933 -0.018,-0.10242 -0.014,-0.11156 -0.01,-0.1207 -0.008,-0.26887 0.008,-0.26968 0.01,-0.12103 0.014,-0.11182 0.018,-0.10262 0.022,-0.0934 0.026,-0.0842 0.03,-0.075 0.0345,-0.066 0.0386,-0.0572 0.0427,-0.0484 0.0468,-0.0396 0.0509,-0.0308 0.055,-0.022 0.0591,-0.0132 0.0632,-0.004 v 0"
       id="path1948" />
    <path
       transform="translate(4.5833329e-7,-1.1875e-5)"
       inkscape:connector-curvature="0"
       style="font-weight:normal;font-size:medium;line-height:125%;font-family:'Andale Mono';letter-spacing:0px;word-spacing:0px;display:inline;fill:#333333;stroke-width:0.09485542"
       d="m -164.25836,279.57782 0.004,-0.0492 0.0132,-0.0457 0.022,-0.0423 0.0308,-0.0388 0.0379,-0.0324 0.0413,-0.0232 0.0448,-0.0139 0.0483,-0.005 0.05,0.005 0.0463,0.0139 0.0426,0.0232 0.0389,0.0324 0.0324,0.0388 0.0232,0.0423 0.0139,0.0457 0.005,0.0492 -0.005,0.0499 -0.0139,0.046 -0.0232,0.042 -0.0324,0.0381 -0.0382,0.0316 -0.0424,0.0226 -0.0465,0.0136 -0.0507,0.005 -0.0498,-0.004 -0.0456,-0.0132 -0.0415,-0.022 -0.0373,-0.0308 -0.03,-0.0375 -0.0214,-0.0421 -0.0128,-0.0468 -0.004,-0.0514 1e-5,-4e-5"
       id="path854" />
    <path
       transform="translate(4.5833329e-7,-1.1875e-5)"
       d="m -162.37052,280.65236 h 0.58173 v -2.11387 l -0.62619,0.14081 v -0.34089 l 0.62249,-0.1371 h 0.37423 v 2.45105 h 0.57432 v 0.31495 h -1.52658 v -0.31495"
       style="font-weight:normal;font-size:medium;line-height:125%;font-family:'Andale Mono';letter-spacing:0px;word-spacing:0px;display:inline;fill:#333333;stroke-width:0.09485542"
       id="path1950"
       inkscape:connector-curvature="0" />
    <path
       transform="translate(4.5833329e-7,-1.1875e-5)"
       d="m -159.15062,279.48704 0.12818,0.0432 0.0581,0.0269 0.0541,0.0304 0.0501,0.034 0.0461,0.0375 0.0421,0.041 0.0381,0.0445 0.0339,0.0473 0.0293,0.0502 0.0248,0.0531 0.0203,0.056 0.0158,0.0589 0.0113,0.0618 0.009,0.13223 -0.004,0.0929 -0.0121,0.0878 -0.0201,0.0827 -0.0282,0.0776 -0.0362,0.0725 -0.0443,0.0674 -0.0523,0.0623 -0.0604,0.0572 -0.067,0.0508 -0.0732,0.044 -0.0794,0.0373 -0.0856,0.0305 -0.0918,0.0237 -0.098,0.0169 -0.10419,0.0102 -0.11037,0.003 -0.19268,-0.009 -0.19638,-0.0264 -0.19638,-0.0431 -0.19267,-0.0588 v -0.37238 l 0.0941,0.046 0.0934,0.0397 0.0928,0.0335 0.0921,0.0272 0.0916,0.0211 0.0914,0.0151 0.0911,0.009 0.0909,0.003 0.14485,-0.009 0.0657,-0.0109 0.0613,-0.0152 0.0568,-0.0195 0.0524,-0.0239 0.0479,-0.0282 0.0435,-0.0326 0.0386,-0.0366 0.0335,-0.0405 0.0283,-0.0443 0.0232,-0.0481 0.018,-0.0519 0.0129,-0.0557 0.008,-0.0596 0.003,-0.0634 -0.003,-0.0587 -0.008,-0.0555 -0.0129,-0.0524 -0.018,-0.0493 -0.0232,-0.0462 -0.0283,-0.043 -0.0335,-0.0399 -0.0386,-0.0368 -0.043,-0.0334 -0.0467,-0.029 -0.0503,-0.0245 -0.054,-0.0201 -0.0576,-0.0156 -0.0613,-0.0111 -0.1335,-0.009 h -0.28531 v -0.30754 h 0.28531 l 0.12169,-0.007 0.10757,-0.0212 0.0934,-0.0353 0.0793,-0.0494 0.0339,-0.0296 0.0293,-0.0324 0.0248,-0.0352 0.0203,-0.038 0.0158,-0.0408 0.0113,-0.0435 0.009,-0.0954 -0.008,-0.10027 -0.0106,-0.0455 -0.0148,-0.0423 -0.019,-0.0392 -0.0232,-0.0361 -0.0275,-0.0329 -0.0317,-0.0298 -0.0351,-0.0269 -0.0387,-0.0233 -0.0882,-0.0359 -0.10259,-0.0215 -0.11695,-0.007 -0.16767,0.009 -0.17322,0.0278 -0.18017,0.0463 -0.1885,0.0648 v -0.3446 l 0.21166,-0.0519 0.18665,-0.0371 0.16582,-0.0222 0.14543,-0.007 0.0984,0.003 0.0933,0.01 0.0882,0.0159 0.0831,0.0223 0.078,0.0287 0.0729,0.035 0.0678,0.0414 0.0628,0.0478 0.0569,0.0526 0.0493,0.0567 0.0417,0.0609 0.0341,0.0651 0.0265,0.0692 0.019,0.0734 0.0114,0.0776 0.004,0.0817 -0.008,0.1092 -0.024,0.0997 -0.04,0.0902 -0.0559,0.0807 -0.0703,0.0704 -0.0849,0.0593 -0.0995,0.0482 -0.11405,0.037 v -7e-5"
       style="font-weight:normal;font-size:medium;line-height:125%;font-family:'Andale Mono';letter-spacing:0px;word-spacing:0px;display:inline;fill:#333333;stroke-width:0.09485542"
       id="path1952"
       inkscape:connector-curvature="0" />
    <path
       transform="translate(4.5833329e-7,-1.1875e-5)"
       d="m -156.86817,279.48704 0.12818,0.0432 0.0581,0.0269 0.0541,0.0304 0.0501,0.034 0.0461,0.0375 0.0421,0.041 0.0381,0.0445 0.0339,0.0473 0.0293,0.0502 0.0248,0.0531 0.0203,0.056 0.0158,0.0589 0.0113,0.0618 0.009,0.13223 -0.004,0.0929 -0.0121,0.0878 -0.0201,0.0827 -0.0282,0.0776 -0.0362,0.0725 -0.0443,0.0674 -0.0523,0.0623 -0.0603,0.0572 -0.067,0.0508 -0.0732,0.044 -0.0794,0.0373 -0.0856,0.0305 -0.0918,0.0237 -0.098,0.0169 -0.10419,0.0102 -0.11037,0.003 -0.19268,-0.009 -0.19638,-0.0264 -0.19638,-0.0431 -0.19267,-0.0588 v -0.37238 l 0.0941,0.046 0.0935,0.0397 0.0927,0.0335 0.0921,0.0272 0.0916,0.0211 0.0914,0.0151 0.0911,0.009 0.0909,0.003 0.14485,-0.009 0.0657,-0.0109 0.0613,-0.0152 0.0568,-0.0195 0.0524,-0.0239 0.0479,-0.0282 0.0435,-0.0326 0.0386,-0.0366 0.0335,-0.0405 0.0283,-0.0443 0.0232,-0.0481 0.018,-0.0519 0.0129,-0.0557 0.008,-0.0596 0.003,-0.0634 -0.003,-0.0587 -0.008,-0.0555 -0.0129,-0.0524 -0.018,-0.0493 -0.0232,-0.0462 -0.0283,-0.043 -0.0335,-0.0399 -0.0386,-0.0368 -0.043,-0.0334 -0.0467,-0.029 -0.0503,-0.0245 -0.054,-0.0201 -0.0576,-0.0156 -0.0613,-0.0111 -0.1335,-0.009 h -0.28531 v -0.30754 h 0.28531 l 0.12169,-0.007 0.10757,-0.0212 0.0934,-0.0353 0.0793,-0.0494 0.0339,-0.0296 0.0294,-0.0324 0.0248,-0.0352 0.0203,-0.038 0.0158,-0.0408 0.0113,-0.0435 0.009,-0.0954 -0.008,-0.10027 -0.0106,-0.0455 -0.0148,-0.0423 -0.019,-0.0392 -0.0233,-0.0361 -0.0275,-0.0329 -0.0317,-0.0298 -0.0351,-0.0269 -0.0387,-0.0233 -0.0882,-0.0359 -0.10259,-0.0215 -0.11695,-0.007 -0.16767,0.009 -0.17322,0.0278 -0.18017,0.0463 -0.1885,0.0648 v -0.3446 l 0.21166,-0.0519 0.18665,-0.0371 0.16582,-0.0222 0.14543,-0.007 0.0984,0.003 0.0933,0.01 0.0882,0.0159 0.0831,0.0223 0.078,0.0287 0.073,0.035 0.0678,0.0414 0.0628,0.0478 0.0569,0.0526 0.0493,0.0567 0.0417,0.0609 0.0341,0.0651 0.0266,0.0692 0.019,0.0734 0.0114,0.0776 0.004,0.0817 -0.008,0.1092 -0.024,0.0997 -0.04,0.0902 -0.0559,0.0807 -0.0703,0.0704 -0.0849,0.0593 -0.0995,0.0482 -0.11406,0.037 v -7e-5"
       style="font-weight:normal;font-size:medium;line-height:125%;font-family:'Andale Mono';letter-spacing:0px;word-spacing:0px;display:inline;fill:#333333;stroke-width:0.09485542"
       id="path1954"
       inkscape:connector-curvature="0" />
    <path
       transform="translate(4.5833329e-7,-1.1875e-5)"
       d="m -168.19595,273.66577 -0.003,-0.19834 -0.008,-0.18366 -0.0133,-0.16896 -0.0186,-0.15427 -0.0239,-0.13958 -0.0292,-0.12489 -0.0345,-0.11021 -0.0399,-0.0955 -0.0453,-0.0826 -0.0521,-0.0716 -0.0589,-0.0606 -0.0657,-0.0496 -0.0725,-0.0386 -0.0793,-0.0276 -0.0861,-0.0165 -0.0929,-0.006 -0.0923,0.006 -0.0857,0.0165 -0.079,0.0275 -0.0724,0.0386 -0.0658,0.0496 -0.0591,0.0606 -0.0525,0.0716 -0.0458,0.0826 -0.0393,0.0955 -0.034,0.1102 -0.0288,0.12488 -0.0236,0.13958 -0.0183,0.15427 -0.0131,0.16897 -0.008,0.18366 -0.003,0.19836 0.003,0.19776 0.008,0.18315 0.0131,0.16853 0.0183,0.15392 0.0236,0.1393 0.0288,0.12468 0.034,0.11007 0.0393,0.0955 0.0458,0.0826 0.0525,0.0716 0.0591,0.0606 0.0658,0.0496 0.0724,0.0386 0.079,0.0276 0.0857,0.0165 0.0923,0.006 0.0929,-0.005 0.0861,-0.0164 0.0793,-0.0274 0.0725,-0.0383 0.0657,-0.0492 0.0589,-0.0602 0.0521,-0.0711 0.0453,-0.0821 0.0399,-0.0955 0.0345,-0.11019 0.0292,-0.12489 0.0239,-0.13957 0.0186,-0.15428 0.0133,-0.16897 0.008,-0.18366 0.003,-0.19836 m 0.52767,0 -0.005,0.23609 -0.0145,0.22063 -0.0242,0.20515 -0.0339,0.18968 -0.0436,0.1742 -0.0533,0.15873 -0.063,0.14325 -0.0727,0.12778 -0.082,0.11254 -0.0921,0.0975 -0.1023,0.0825 -0.11246,0.0675 -0.12262,0.0525 -0.13278,0.0375 -0.14293,0.0225 -0.1531,0.007 -0.1531,-0.007 -0.14293,-0.0224 -0.13278,-0.0373 -0.12262,-0.0522 -0.11246,-0.0672 -0.10229,-0.0821 -0.0921,-0.097 -0.082,-0.11195 -0.0721,-0.12727 -0.0625,-0.14297 -0.0529,-0.15869 -0.0433,-0.17439 -0.0336,-0.1901 -0.024,-0.20581 -0.0144,-0.22151 -0.005,-0.23723 0.005,-0.23668 0.0144,-0.22112 0.024,-0.20558 0.0337,-0.19002 0.0433,-0.17447 0.0529,-0.15892 0.0625,-0.14336 0.0721,-0.12782 0.0825,-0.11253 0.0925,-0.0975 0.10254,-0.0825 0.11253,-0.0675 0.12254,-0.0525 0.13254,-0.0375 0.14255,-0.0225 0.15255,-0.007 0.1531,0.007 0.14293,0.0225 0.13278,0.0375 0.12262,0.0525 0.11246,0.0675 0.1023,0.0825 0.0921,0.0975 0.082,0.11253 0.0727,0.12782 0.063,0.14337 0.0533,0.15891 0.0436,0.17448 0.0339,0.19002 0.0242,0.20557 0.0145,0.22113 0.005,0.23667"
       id="path1151"
       inkscape:connector-curvature="0"
       style="display:inline;fill:#333333;stroke-width:0.10670141" />
    <path
       transform="translate(4.5833329e-7,-1.1875e-5)"
       d="m -164.84659,271.92334 v 0.51267 l -0.11519,-0.0692 -0.11551,-0.0602 -0.11582,-0.0511 -0.11613,-0.042 -0.11535,-0.0328 -0.11597,-0.0234 -0.1166,-0.0141 -0.11723,-0.005 -0.0871,0.003 -0.0824,0.008 -0.0777,0.0131 -0.073,0.0183 -0.0683,0.0236 -0.0636,0.0288 -0.0589,0.034 -0.0542,0.0393 -0.0486,0.0431 -0.0422,0.0468 -0.0357,0.0504 -0.0292,0.0541 -0.0227,0.0578 -0.0162,0.0615 -0.01,0.0651 -0.003,0.0688 0.008,0.11644 0.0105,0.0527 0.0148,0.049 0.019,0.0454 0.0232,0.0417 0.0274,0.038 0.0316,0.0344 0.0381,0.0319 0.0454,0.0305 0.11285,0.0571 0.14223,0.0517 0.17162,0.0464 0.26509,0.06 0.12683,0.0328 0.11793,0.0372 0.10902,0.0416 0.10011,0.046 0.0912,0.0503 0.0823,0.0547 0.0734,0.0591 0.0645,0.0635 0.0563,0.0686 0.0488,0.0746 0.0413,0.0805 0.0338,0.0864 0.0263,0.0924 0.0187,0.0983 0.0113,0.10426 0.004,0.11019 -0.005,0.12922 -0.0155,0.12133 -0.0258,0.11343 -0.0361,0.10554 -0.0464,0.0976 -0.0567,0.0898 -0.0671,0.0819 -0.0774,0.074 -0.0872,0.0657 -0.0966,0.0569 -0.10597,0.0481 -0.11535,0.0394 -0.12473,0.0306 -0.1341,0.0219 -0.14349,0.0131 -0.15286,0.004 -0.13145,-0.004 -0.13176,-0.0108 -0.13207,-0.018 -0.13239,-0.0252 -0.1327,-0.0311 -0.13301,-0.0383 -0.13332,-0.0455 -0.13364,-0.0527 v -0.53767 l 0.14176,0.0852 0.1377,0.073 0.13364,0.0608 0.12957,0.0486 0.12895,0.0372 0.12926,0.0266 0.12958,0.0159 0.12988,0.005 0.093,-0.003 0.0877,-0.008 0.0824,-0.0133 0.0771,-0.0186 0.0717,-0.0239 0.0664,-0.0292 0.0611,-0.0345 0.0558,-0.0399 0.0498,-0.0453 0.0432,-0.0495 0.0365,-0.0537 0.0299,-0.0579 0.0232,-0.0621 0.0166,-0.0663 0.01,-0.0706 0.003,-0.0748 -0.002,-0.0679 -0.007,-0.0638 -0.0115,-0.0597 -0.0161,-0.0555 -0.0207,-0.0514 -0.0254,-0.0472 -0.03,-0.0431 -0.0346,-0.039 -0.0397,-0.0358 -0.0465,-0.0337 -0.0533,-0.0316 -0.0601,-0.0295 -0.14052,-0.0527 -0.16771,-0.0442 -0.27008,-0.0625 -0.12559,-0.0313 -0.11668,-0.035 -0.10777,-0.0388 -0.0989,-0.0425 -0.0899,-0.0463 -0.081,-0.05 -0.0721,-0.0538 -0.0632,-0.0575 -0.0551,-0.0619 -0.0478,-0.067 -0.0404,-0.0721 -0.0331,-0.0772 -0.0257,-0.0823 -0.0184,-0.0873 -0.011,-0.0924 -0.004,-0.0975 0.005,-0.12192 0.0157,-0.11566 0.0262,-0.10941 0.0367,-0.10316 0.0471,-0.0969 0.0576,-0.0906 0.0681,-0.0844 0.0785,-0.0781 0.0878,-0.0709 0.0947,-0.0615 0.10159,-0.052 0.10848,-0.0426 0.11534,-0.0331 0.12223,-0.0236 0.12911,-0.0142 0.13598,-0.005 0.10894,0.003 0.11175,0.009 0.11457,0.0156 0.11739,0.0219 0.12035,0.0269 0.12347,0.0331 0.12661,0.0394 0.12973,0.0456"
       id="path1153"
       inkscape:connector-curvature="0"
       style="display:inline;fill:#333333;stroke-width:0.10670141" />
    <path
       transform="translate(4.5833329e-7,-1.1875e-5)"
       d="m -163.95457,271.7953 h 0.50767 v 1.53052 h 1.38296 v -1.53052 h 0.50766 v 3.73369 h -0.50766 v -1.77807 h -1.38296 v 1.77807 h -0.50767 v -3.73369"
       id="path1155"
       inkscape:connector-curvature="0"
       style="display:inline;fill:#333333;stroke-width:0.10670141" />
  </g>
  <g
     transform="translate(173.88995,-267.02106)"
     style="display:inline"
     inkscape:label="Mask"
     id="layer4"
     inkscape:groupmode="layer">
    <path
       d="m -161.21554,271.7953 h 0.49266 l 0.35762,3.03096 0.42514,-2.00567 h 0.52767 l 0.43014,2.01068 1.21127,-5.81021 h 0.49266 l -1.41133,6.50793 h -0.47767 l -0.50766,-2.21821 -0.50517,2.21821 h -0.47766 l -0.55768,-3.73369"
       id="path1157-1"
       inkscape:connector-curvature="0"
       style="display:inline;fill:#ff3a3a;stroke-width:0.10670141" />
  </g>
</svg>
